<?xml version="1.0" encoding="utf-8"?>
<!-- Generator: Adobe Illustrator 24.2.3, SVG Export Plug-In . SVG Version: 6.00 Build 0)  -->
<svg version="1.1" id="Calque_1" xmlns="http://www.w3.org/2000/svg" xmlns:xlink="http://www.w3.org/1999/xlink" x="0px" y="0px"
	 viewBox="0 0 450 400" style="enable-background:new 0 0 450 400;" xml:space="preserve">
<style type="text/css">
	.st0{fill:#67B7AA;}
	.st1{opacity:0.9;fill:#FFFFFF;enable-background:new    ;}
	.st2{opacity:0.3;fill:#67B7AA;enable-background:new    ;}
	.st3{fill:#FFFFFF;}
	.st4{opacity:0.4;fill:#67B7AA;enable-background:new    ;}
	.st5{opacity:0.1;fill:#67B7AA;enable-background:new    ;}
	.st6{opacity:0.5;}
	.st7{fill:#263339;}
	.st8{fill:#CF7A64;}
	.st9{fill:#CE7A63;}
	.st10{opacity:0.2;fill:#020203;enable-background:new    ;}
	.st11{fill:#BB4E3C;}
	.st12{fill:#F8C1BD;}
	.st13{fill:#EE857F;}
</style>
<g id="freepik--background-simple--inject-39">
	<path class="st0" d="M196.5,254.7c49.1-11.3,99.8,29.6,150.4,21.9c48.9-7.4,90.6-46.3,73.7-99.4c-16.2-51.5-69.5-85.4-120.6-85.4
		c-31.6,0-48.2-0.6-75.1-22.5C204,52.3,188.1,31,162,21.8C111.4,3.8,85.5,35.2,80.2,76.7c-5.8,44.9-41.8,68.6-52,111.7
		c-8.6,36.4,2.8,85.2,49.6,97.8C121.5,297.8,158.5,263.5,196.5,254.7z"/>
	<path class="st1" d="M196.5,254.7c49.1-11.3,99.8,29.6,150.4,21.9c48.9-7.4,90.6-46.3,73.7-99.4c-16.2-51.5-69.5-85.4-120.6-85.4
		c-31.6,0-48.2-0.6-75.1-22.5C204,52.3,188.1,31,162,21.8C111.4,3.8,85.5,35.2,80.2,76.7c-5.8,44.9-41.8,68.6-52,111.7
		c-8.6,36.4,2.8,85.2,49.6,97.8C121.5,297.8,158.5,263.5,196.5,254.7z"/>
</g>
<g id="freepik--Calendar--inject-39">
	<path class="st2" d="M344.3,222.4h-264c-5.9-0.1-10.8-4.6-11.3-10.5L59.4,83.7c-0.5-5.3,3.4-10,8.7-10.5c0.3,0,0.6,0,1,0h264
		c5.9,0.1,10.8,4.6,11.3,10.5l9.6,128.2c0.5,5.3-3.4,10-8.7,10.5C345,222.3,344.6,222.4,344.3,222.4z"/>
	<rect x="283" y="66" class="st0" width="9.1" height="1"/>
	<rect x="235" y="66" class="st0" width="39.5" height="1"/>
	<path class="st0" d="M348,218.7H84c-5.9-0.1-10.8-4.6-11.3-10.5L63.1,80c-0.5-5.3,3.4-10,8.7-10.5c0.3,0,0.7,0,1,0h264
		c5.9,0.1,10.8,4.6,11.3,10.5l9.6,128.2c0.5,5.3-3.4,10-8.7,10.5C348.6,218.6,348.3,218.7,348,218.7z"/>
	<path class="st3" d="M336.6,190.5H91.1c-4.7-0.1-8.7-3.7-9.1-8.5l-7.3-97.9c-0.4-4.3,2.8-8,7-8.4c0.3,0,0.5,0,0.8,0H328
		c4.7,0.1,8.7,3.7,9.1,8.4l7.3,97.9c0.4,4.3-2.7,8-7,8.4C337.2,190.5,336.9,190.5,336.6,190.5z"/>
	<path class="st3" d="M342.7,209.6h-51c-2.2,0-4-1.7-4.2-3.9l-0.4-5.2c-0.2-2,1.3-3.7,3.2-3.9c0.1,0,0.2,0,0.4,0h51
		c2.2,0,4,1.7,4.2,3.9l0.4,5.2c0.2,2-1.3,3.7-3.2,3.9C342.9,209.6,342.8,209.6,342.7,209.6z"/>
	<path class="st3" d="M89.6,198.6c2.6,0,4.8,2,5,4.6c0.1,1.1-0.3,2.2-1,3.1c-0.8,0.8-1.9,1.3-3,1.3c-2.6,0-4.8-2-5-4.6
		c-0.1-1.1,0.3-2.2,1-3.1C87.4,199,88.5,198.6,89.6,198.6 M89.6,196.6c-3.3,0-6,2.6-6,5.9c0,0.2,0,0.4,0,0.6c0.3,3.6,3.3,6.4,7,6.5
		c3.3,0,6-2.6,6-5.9c0-0.2,0-0.4,0-0.6C96.3,199.5,93.3,196.7,89.6,196.6z"/>
	<path class="st3" d="M107.1,198.6c2.6,0,4.8,2,5,4.6c0.2,2.2-1.4,4.1-3.5,4.3c-0.2,0-0.3,0-0.5,0c-2.6,0-4.8-2-5-4.6
		c-0.1-1.1,0.2-2.2,1-3.1C104.9,199,106,198.6,107.1,198.6 M107.1,196.6c-3.3-0.1-6,2.6-6,5.8c0,0.2,0,0.4,0,0.7
		c0.3,3.6,3.3,6.5,7,6.5c3.3,0.1,6-2.6,6-5.8c0-0.2,0-0.4,0-0.7C113.8,199.5,110.8,196.6,107.1,196.6z"/>
	<polygon class="st4" points="166.6,155 154.5,155 153.7,143.9 165.8,143.9 	"/>
	<polygon class="st4" points="266.8,141.3 254.7,141.3 253.9,130.2 266,130.2 	"/>
	<polygon class="st5" points="221,141.3 254.7,141.3 253.9,130.2 220.1,130.2 	"/>
	<polygon class="st5" points="219.9,127.9 331,127.9 330.1,116.8 219.1,116.8 	"/>
	<polygon class="st5" points="166.6,155 198.9,155 198.1,143.9 165.8,143.9 	"/>
	<polygon class="st5" points="90.9,168.4 200,168.4 199.1,157.4 90.1,157.4 	"/>
	<polygon class="st5" points="92,181.8 201,181.8 200.2,170.7 91.1,170.7 	"/>
	<path class="st0" d="M225.2,135.7c-0.2-0.1-0.3-0.2-0.4-0.3c-0.1-0.1-0.2-0.3-0.2-0.5c0-0.3,0.1-0.6,0.4-0.8
		c0.3-0.2,0.6-0.3,0.9-0.2c0.4,0,0.8,0.1,1.2,0.3c0.2,0.2,0.4,0.4,0.4,0.8c0,0.2,0,0.3-0.1,0.5c-0.1,0.1-0.2,0.2-0.3,0.3
		c0.2,0.1,0.4,0.2,0.5,0.4c0.1,0.2,0.2,0.4,0.2,0.6c0,0.4-0.1,0.7-0.4,0.9c-0.1,0.1-0.3,0.2-0.5,0.2c-0.2,0-0.4,0.1-0.6,0.1
		c-0.3,0-0.6,0-1-0.1c-0.2-0.1-0.4-0.2-0.5-0.4c-0.1-0.2-0.2-0.4-0.2-0.6c0-0.2,0-0.4,0.1-0.6C224.8,135.9,225,135.8,225.2,135.7z
		 M225.7,136.6c0,0.2,0.1,0.3,0.2,0.4c0.1,0.1,0.2,0.2,0.4,0.2c0.1,0,0.3-0.1,0.3-0.2c0.1-0.1,0.1-0.3,0.1-0.4
		c0-0.2-0.1-0.3-0.2-0.4c-0.1-0.1-0.2-0.2-0.4-0.2c-0.1,0-0.3,0.1-0.3,0.1C225.7,136.3,225.6,136.5,225.7,136.6L225.7,136.6z
		 M225.6,134.9c0,0.1,0.1,0.2,0.1,0.3c0.1,0.1,0.2,0.1,0.3,0.1c0.1,0,0.2,0,0.3-0.1c0.1-0.1,0.1-0.2,0.1-0.3c0-0.1-0.1-0.2-0.1-0.3
		c-0.1-0.1-0.2-0.1-0.3-0.1c-0.1,0-0.2,0-0.3,0.1C225.6,134.7,225.6,134.8,225.6,134.9L225.6,134.9z"/>
	<path class="st0" d="M240.9,136.9l1.1-0.1c0,0.1,0.1,0.2,0.2,0.3c0.2,0.1,0.4,0.1,0.6-0.1c0,0,0-0.1,0.1-0.1
		c0.1-0.3,0.1-0.5,0.1-0.8c-0.1,0.1-0.2,0.2-0.4,0.3c-0.1,0.1-0.3,0.1-0.5,0.1c-0.3,0-0.7-0.1-0.9-0.4c-0.3-0.2-0.4-0.6-0.4-0.9
		c0-0.2,0-0.5,0.1-0.7c0.1-0.2,0.3-0.4,0.5-0.5c0.2-0.1,0.5-0.2,0.8-0.2c0.3,0,0.7,0,1,0.2c0.3,0.2,0.5,0.4,0.6,0.6
		c0.2,0.4,0.3,0.7,0.3,1.1c0.1,0.5,0,1.1-0.3,1.5c-0.3,0.3-0.7,0.5-1.2,0.5c-0.3,0-0.5,0-0.7-0.1c-0.2-0.1-0.3-0.2-0.5-0.3
		C241.1,137.3,241,137.1,240.9,136.9z M242.8,135.2c0-0.2-0.1-0.4-0.2-0.5c-0.1-0.1-0.2-0.2-0.4-0.2c-0.1,0-0.3,0.1-0.3,0.2
		c-0.1,0.1-0.1,0.3-0.1,0.5c0,0.2,0.1,0.4,0.2,0.5c0.1,0.1,0.2,0.2,0.4,0.2c0.1,0,0.3-0.1,0.4-0.2
		C242.7,135.5,242.8,135.4,242.8,135.2L242.8,135.2z"/>
	<path class="st0" d="M259.3,133.9l0.3,3.9h-1.1l-0.2-2.6c-0.1,0.1-0.3,0.2-0.5,0.3c-0.2,0.1-0.4,0.2-0.6,0.2l-0.1-0.9
		c0.3-0.1,0.6-0.2,0.8-0.4c0.2-0.2,0.3-0.4,0.4-0.6L259.3,133.9z"/>
	<path class="st0" d="M260.6,135.8c-0.1-0.5,0-1.1,0.3-1.5c0.3-0.3,0.7-0.5,1.2-0.4c0.2,0,0.4,0,0.6,0.1c0.3,0.1,0.5,0.3,0.7,0.6
		c0.1,0.1,0.1,0.3,0.2,0.4c0.1,0.3,0.1,0.6,0.2,0.9c0.1,0.5,0,1.1-0.2,1.6c-0.3,0.4-0.7,0.5-1.2,0.5c-0.3,0-0.6,0-0.8-0.2
		c-0.2-0.1-0.4-0.3-0.5-0.5c-0.1-0.2-0.2-0.4-0.3-0.6C260.7,136.4,260.7,136.1,260.6,135.8z M261.7,135.8c0,0.3,0.1,0.7,0.2,1
		c0.1,0.2,0.2,0.3,0.4,0.3c0.1,0,0.2,0,0.3-0.1c0.1-0.1,0.1-0.2,0.1-0.4c0-0.3,0-0.5,0-0.8c0-0.3-0.1-0.7-0.2-1
		c-0.1-0.2-0.2-0.3-0.4-0.3c-0.2,0-0.3,0.1-0.4,0.3C261.7,135.2,261.7,135.5,261.7,135.8L261.7,135.8z"/>
	<path class="st0" d="M275.6,133.9l0.3,3.9h-1.1l-0.2-2.6c-0.2,0.1-0.3,0.2-0.5,0.3c-0.2,0.1-0.4,0.2-0.6,0.2l-0.1-0.9
		c0.3-0.1,0.6-0.2,0.8-0.4c0.2-0.2,0.3-0.4,0.4-0.6L275.6,133.9z"/>
	<path class="st0" d="M279.2,133.9l0.3,3.9h-1.1l-0.2-2.6c-0.1,0.1-0.3,0.2-0.5,0.3c-0.2,0.1-0.4,0.2-0.6,0.2l-0.1-0.9
		c0.3-0.1,0.6-0.2,0.8-0.4c0.2-0.2,0.3-0.4,0.4-0.6L279.2,133.9z"/>
	<path class="st0" d="M291.8,133.9l0.3,3.9H291l-0.2-2.6c-0.1,0.1-0.3,0.2-0.5,0.3c-0.2,0.1-0.4,0.2-0.6,0.2l-0.1-0.9
		c0.3-0.1,0.6-0.2,0.8-0.4c0.2-0.2,0.3-0.4,0.4-0.6L291.8,133.9z"/>
	<path class="st0" d="M296.5,137.8h-3.2c0-0.3,0.1-0.6,0.3-0.9c0.3-0.4,0.6-0.7,1-1c0.2-0.1,0.4-0.3,0.6-0.5
		c0.1-0.1,0.1-0.2,0.1-0.4c0-0.1-0.1-0.2-0.1-0.3c-0.1-0.1-0.2-0.1-0.3-0.1c-0.1,0-0.2,0-0.3,0.1c-0.1,0.1-0.1,0.3-0.1,0.5l-1.1-0.1
		c0-0.2,0.1-0.5,0.2-0.7c0.1-0.2,0.3-0.3,0.5-0.4c0.3-0.1,0.6-0.1,0.9-0.1c0.3,0,0.6,0,0.9,0.1c0.2,0.1,0.4,0.2,0.5,0.4
		c0.1,0.2,0.2,0.4,0.2,0.6c0,0.2,0,0.5-0.1,0.7c-0.2,0.3-0.4,0.5-0.7,0.7c-0.2,0.1-0.4,0.3-0.4,0.3c-0.1,0.1-0.2,0.1-0.2,0.2h1.7
		L296.5,137.8z"/>
	<path class="st0" d="M308.1,133.9l0.3,3.9h-1.1l-0.2-2.6c-0.2,0.1-0.3,0.2-0.5,0.3c-0.2,0.1-0.4,0.2-0.6,0.2l-0.1-0.9
		c0.3-0.1,0.6-0.2,0.8-0.4c0.2-0.2,0.3-0.4,0.4-0.6L308.1,133.9z"/>
	<path class="st0" d="M310.4,135l-1-0.2c0-0.3,0.2-0.6,0.4-0.8c0.3-0.2,0.6-0.3,1-0.3c0.4,0,0.8,0.1,1.1,0.3
		c0.2,0.2,0.4,0.4,0.4,0.7c0,0.2,0,0.3-0.1,0.4c-0.1,0.2-0.2,0.3-0.4,0.4c0.1,0,0.2,0.1,0.4,0.1c0.1,0.1,0.2,0.2,0.3,0.3
		c0.1,0.1,0.1,0.3,0.1,0.5c0,0.2,0,0.5-0.1,0.6c-0.1,0.2-0.3,0.4-0.5,0.5c-0.3,0.1-0.6,0.2-0.9,0.2c-0.3,0-0.6,0-0.9-0.1
		c-0.2-0.1-0.4-0.2-0.5-0.4c-0.2-0.2-0.3-0.4-0.4-0.6l1.1-0.1c0,0.2,0.1,0.3,0.2,0.4c0.1,0.1,0.2,0.1,0.4,0.1c0.1,0,0.3-0.1,0.4-0.2
		c0.1-0.1,0.1-0.3,0.1-0.4c0-0.2-0.1-0.3-0.2-0.4c-0.1-0.1-0.2-0.2-0.4-0.1c-0.1,0-0.2,0-0.3,0.1v-0.8h0.1c0.1,0,0.3,0,0.3-0.1
		c0.1-0.1,0.1-0.2,0.1-0.3c0-0.2-0.2-0.4-0.5-0.4c-0.1,0-0.2,0.1-0.3,0.1C310.5,134.7,310.4,134.9,310.4,135z"/>
	<path class="st0" d="M324.3,133.9l0.3,3.9h-1.1l-0.1-2.6c-0.2,0.1-0.3,0.2-0.5,0.3c-0.2,0.1-0.4,0.2-0.6,0.2l-0.1-0.9
		c0.3-0.1,0.6-0.2,0.8-0.4c0.2-0.2,0.3-0.4,0.4-0.6L324.3,133.9z"/>
	<path class="st0" d="M327.6,137.1h-2l-0.1-0.9l1.8-2.3h0.9l0.2,2.4h0.5l0.1,0.8h-0.5l0.1,0.7h-0.9L327.6,137.1z M327.5,136.3
		l-0.1-1.2l-1,1.2H327.5z"/>
	<path class="st0" d="M227.8,147.4l0.3,3.9H227l-0.2-2.6c-0.2,0.1-0.3,0.2-0.5,0.3c-0.2,0.1-0.4,0.2-0.6,0.2l-0.1-0.9
		c0.3-0.1,0.6-0.2,0.8-0.4c0.2-0.2,0.3-0.4,0.4-0.6H227.8z"/>
	<path class="st0" d="M229.4,147.5h2.6l0.1,0.9h-1.7l0,0.6c0.1-0.1,0.2-0.1,0.4-0.1c0.1,0,0.2,0,0.3,0c0.4,0,0.7,0.1,1,0.4
		c0.3,0.2,0.4,0.5,0.4,0.9c0,0.2,0,0.5-0.1,0.7c-0.1,0.2-0.3,0.4-0.5,0.5c-0.3,0.1-0.6,0.2-0.9,0.2c-0.2,0-0.4,0-0.7-0.1
		c-0.2,0-0.3-0.1-0.5-0.2c-0.1-0.1-0.2-0.2-0.3-0.3c-0.1-0.1-0.2-0.3-0.2-0.4l1.1-0.1c0,0.2,0.1,0.3,0.2,0.4
		c0.1,0.1,0.2,0.1,0.4,0.1c0.1,0,0.3-0.1,0.4-0.2c0.2-0.3,0.1-0.7-0.1-1c-0.1-0.1-0.3-0.2-0.4-0.2c-0.1,0-0.2,0-0.3,0.1
		c-0.1,0.1-0.2,0.1-0.2,0.2l-0.9-0.1L229.4,147.5z"/>
	<path class="st0" d="M244.1,147.4l0.3,3.9h-1.1l-0.2-2.6c-0.2,0.1-0.3,0.2-0.5,0.3c-0.2,0.1-0.4,0.2-0.6,0.2l-0.1-0.9
		c0.3-0.1,0.6-0.2,0.8-0.4c0.2-0.2,0.3-0.4,0.4-0.6H244.1z"/>
	<path class="st0" d="M248.4,148.3l-1.1,0.1c0-0.1-0.1-0.2-0.2-0.3c-0.1-0.1-0.2-0.1-0.3-0.1c-0.2,0-0.3,0.1-0.4,0.3
		c-0.1,0.3-0.1,0.5-0.1,0.8c0.1-0.1,0.2-0.2,0.4-0.3c0.1-0.1,0.3-0.1,0.5-0.1c0.3,0,0.7,0.1,0.9,0.4c0.4,0.4,0.6,1.1,0.3,1.6
		c-0.1,0.2-0.3,0.4-0.5,0.5c-0.2,0.1-0.5,0.2-0.8,0.2c-0.3,0-0.7-0.1-1-0.2c-0.3-0.1-0.5-0.4-0.6-0.6c-0.2-0.4-0.3-0.8-0.3-1.1
		c-0.1-0.5,0-1.1,0.3-1.5c0.3-0.3,0.7-0.5,1.2-0.5c0.3,0,0.5,0,0.7,0.1c0.2,0.1,0.3,0.2,0.5,0.3C248.2,148,248.3,148.1,248.4,148.3z
		 M246.6,150.1c0,0.2,0.1,0.4,0.2,0.5c0.1,0.1,0.2,0.2,0.4,0.2c0.1,0,0.3-0.1,0.3-0.2c0.1-0.1,0.1-0.3,0.1-0.5
		c0-0.2-0.1-0.4-0.2-0.5c-0.1-0.1-0.2-0.2-0.4-0.2c-0.1,0-0.3,0.1-0.4,0.2C246.6,149.8,246.6,149.9,246.6,150.1z"/>
	<path class="st0" d="M260.3,147.4l0.3,3.9h-1.1l-0.2-2.6c-0.2,0.1-0.3,0.2-0.5,0.3c-0.2,0.1-0.4,0.2-0.6,0.2l-0.1-0.9
		c0.3-0.1,0.6-0.2,0.8-0.4c0.2-0.2,0.3-0.4,0.4-0.6H260.3z"/>
	<path class="st0" d="M261.5,147.5h3.1l0,0.7c-0.2,0.2-0.5,0.5-0.6,0.8c-0.2,0.4-0.4,0.8-0.4,1.2c-0.1,0.4-0.1,0.8-0.1,1.2h-1.1
		c0-0.5,0.1-1.1,0.3-1.6c0.2-0.5,0.4-1,0.8-1.4h-1.9L261.5,147.5z"/>
	<path class="st0" d="M276.6,147.4l0.3,3.9h-1.1l-0.2-2.6c-0.3,0.3-0.7,0.5-1.1,0.6l-0.1-0.9c0.3-0.1,0.6-0.2,0.8-0.4
		c0.2-0.2,0.3-0.4,0.4-0.6H276.6z"/>
	<path class="st0" d="M278.6,149.3c-0.2-0.1-0.3-0.2-0.4-0.3c-0.1-0.2-0.2-0.3-0.2-0.5c0-0.3,0.1-0.6,0.4-0.8
		c0.3-0.2,0.6-0.3,0.9-0.2c0.4,0,0.8,0.1,1.2,0.3c0.2,0.2,0.4,0.4,0.4,0.7c0,0.2,0,0.3-0.1,0.5c-0.1,0.1-0.2,0.2-0.3,0.3
		c0.2,0.1,0.4,0.2,0.5,0.4c0.1,0.2,0.2,0.4,0.2,0.6c0,0.2,0,0.4-0.1,0.5c-0.1,0.2-0.2,0.3-0.3,0.4c-0.1,0.1-0.3,0.2-0.5,0.2
		c-0.2,0-0.4,0.1-0.6,0.1c-0.3,0-0.6,0-1-0.1c-0.2-0.1-0.4-0.2-0.5-0.4c-0.1-0.2-0.2-0.4-0.2-0.6c0-0.2,0-0.4,0.1-0.6
		C278.2,149.5,278.4,149.3,278.6,149.3z M279.1,150.2c0,0.2,0.1,0.3,0.2,0.4c0.1,0.1,0.2,0.2,0.4,0.2c0.1,0,0.3-0.1,0.3-0.2
		c0.1-0.1,0.1-0.3,0.1-0.4c0-0.2-0.1-0.3-0.2-0.4c-0.1-0.1-0.2-0.2-0.4-0.2c-0.1,0-0.3,0.1-0.3,0.2C279.1,149.9,279,150,279.1,150.2
		z M279,148.5c0,0.1,0.1,0.2,0.1,0.3c0.1,0.1,0.2,0.1,0.3,0.1c0.2,0,0.4-0.2,0.4-0.4c0,0,0-0.1,0-0.1c0-0.1-0.1-0.2-0.1-0.3
		c-0.1-0.1-0.2-0.1-0.3-0.1c-0.1,0-0.2,0-0.3,0.1C279,148.3,279,148.4,279,148.5z"/>
	<path class="st0" d="M292.9,147.4l0.3,3.9h-1.1l-0.2-2.6c-0.2,0.1-0.3,0.2-0.5,0.3c-0.2,0.1-0.4,0.2-0.6,0.2l-0.1-0.9
		c0.3-0.1,0.6-0.2,0.8-0.4c0.2-0.2,0.3-0.4,0.4-0.6H292.9z"/>
	<path class="st0" d="M294.3,150.5l1.1-0.1c0,0.1,0.1,0.2,0.2,0.3c0.1,0.1,0.2,0.1,0.3,0.1c0.2,0,0.3-0.1,0.4-0.3
		c0.1-0.3,0.1-0.5,0.1-0.8c-0.1,0.1-0.2,0.2-0.4,0.3c-0.1,0.1-0.3,0.1-0.5,0.1c-0.3,0-0.7-0.1-0.9-0.4c-0.3-0.2-0.4-0.6-0.4-0.9
		c0-0.2,0-0.5,0.1-0.7c0.1-0.2,0.3-0.4,0.5-0.5c0.2-0.1,0.5-0.2,0.8-0.2c0.3,0,0.7,0.1,1,0.2c0.3,0.1,0.5,0.4,0.6,0.6
		c0.2,0.4,0.3,0.8,0.3,1.1c0.1,0.5,0,1.1-0.3,1.5c-0.3,0.3-0.7,0.5-1.2,0.5c-0.2,0-0.5,0-0.7-0.1c-0.2-0.1-0.3-0.2-0.5-0.3
		C294.5,150.8,294.4,150.7,294.3,150.5z M296.2,148.7c0-0.2-0.1-0.4-0.2-0.5c-0.1-0.1-0.2-0.2-0.4-0.2c-0.1,0-0.3,0.1-0.4,0.2
		c-0.1,0.1-0.1,0.3-0.1,0.5c0,0.2,0.1,0.4,0.2,0.5c0.1,0.1,0.2,0.2,0.4,0.2c0.1,0,0.3-0.1,0.4-0.2
		C296.1,149.1,296.2,148.9,296.2,148.7z"/>
	<path class="st0" d="M310.1,151.3h-3.2c0-0.3,0.1-0.6,0.3-0.9c0.3-0.4,0.6-0.7,1-1c0.2-0.2,0.4-0.3,0.6-0.5
		c0.1-0.1,0.1-0.2,0.1-0.3c0-0.1-0.1-0.2-0.2-0.3c-0.1-0.1-0.2-0.1-0.3-0.1c-0.1,0-0.2,0-0.3,0.1c-0.1,0.1-0.1,0.3-0.1,0.5l-1.1-0.1
		c0-0.2,0.1-0.5,0.2-0.7c0.1-0.2,0.3-0.3,0.5-0.4c0.3-0.1,0.6-0.2,0.8-0.1c0.3,0,0.6,0,0.9,0.1c0.2,0.1,0.4,0.2,0.5,0.4
		c0.3,0.4,0.3,0.9,0.1,1.3c-0.2,0.3-0.4,0.5-0.7,0.7l-0.4,0.3l-0.2,0.2h1.7L310.1,151.3z"/>
	<path class="st0" d="M310.4,149.4c-0.1-0.5,0-1.1,0.3-1.6c0.3-0.3,0.7-0.5,1.2-0.4c0.2,0,0.4,0,0.6,0.1c0.2,0,0.3,0.1,0.4,0.3
		c0.1,0.1,0.2,0.2,0.3,0.3c0.1,0.1,0.1,0.3,0.2,0.4c0.1,0.3,0.2,0.6,0.2,0.9c0.1,0.5,0,1.1-0.2,1.5c-0.3,0.4-0.7,0.5-1.2,0.5
		c-0.3,0-0.5,0-0.8-0.2c-0.2-0.1-0.4-0.3-0.5-0.4c-0.1-0.2-0.2-0.4-0.3-0.6C310.5,149.9,310.4,149.7,310.4,149.4z M311.5,149.4
		c0,0.3,0.1,0.7,0.2,1c0.1,0.2,0.2,0.3,0.4,0.3c0.1,0,0.2,0,0.3-0.1c0.1-0.1,0.1-0.2,0.1-0.4c0-0.3,0-0.5,0-0.8c0-0.3-0.1-0.7-0.2-1
		c-0.1-0.2-0.2-0.3-0.4-0.3c-0.2,0-0.3,0.1-0.4,0.3C311.5,148.7,311.4,149.1,311.5,149.4L311.5,149.4z"/>
	<path class="st0" d="M326.4,151.3h-3.2c0-0.3,0.1-0.6,0.3-0.9c0.3-0.4,0.6-0.7,1-1c0.2-0.2,0.4-0.3,0.6-0.5
		c0.1-0.1,0.1-0.2,0.1-0.3c0-0.1-0.1-0.2-0.1-0.3c-0.1-0.1-0.2-0.1-0.3-0.1c-0.1,0-0.2,0-0.3,0.1c-0.1,0.1-0.1,0.3-0.1,0.5l-1.1-0.1
		c0-0.2,0.1-0.5,0.2-0.7c0.1-0.2,0.3-0.3,0.5-0.4c0.3-0.1,0.6-0.2,0.9-0.1c0.3,0,0.6,0,0.9,0.1c0.2,0.1,0.4,0.2,0.5,0.4
		c0.1,0.2,0.2,0.4,0.2,0.6c0,0.2,0,0.5-0.1,0.7c-0.2,0.3-0.4,0.5-0.7,0.7l-0.4,0.3l-0.2,0.2h1.7L326.4,151.3z"/>
	<path class="st0" d="M329,147.4l0.3,3.9h-1.1l-0.2-2.6c-0.2,0.1-0.3,0.2-0.5,0.3c-0.2,0.1-0.4,0.2-0.6,0.2l-0.1-0.9
		c0.3-0.1,0.6-0.2,0.8-0.4c0.2-0.2,0.3-0.4,0.4-0.6H329z"/>
	<path class="st0" d="M226,120.3l0.3,3.9h-1.1l-0.2-2.6c-0.2,0.1-0.3,0.2-0.5,0.3c-0.2,0.1-0.4,0.2-0.6,0.2l-0.1-0.9
		c0.3-0.1,0.6-0.2,0.8-0.4c0.2-0.2,0.3-0.4,0.4-0.6H226z"/>
	<path class="st0" d="M243.3,124.2H240c0-0.3,0.1-0.6,0.3-0.9c0.3-0.4,0.6-0.7,1-1c0.2-0.2,0.4-0.3,0.6-0.5c0.1-0.1,0.1-0.2,0.1-0.3
		c0-0.1-0.1-0.2-0.1-0.3c-0.1-0.1-0.2-0.1-0.3-0.1c-0.1,0-0.2,0-0.3,0.1c-0.1,0.1-0.1,0.3-0.1,0.5l-1.1-0.1c0-0.2,0.1-0.5,0.2-0.7
		c0.1-0.2,0.3-0.3,0.5-0.4c0.3-0.1,0.6-0.2,0.9-0.1c0.3,0,0.6,0,0.9,0.1c0.2,0.1,0.4,0.2,0.5,0.4c0.1,0.2,0.2,0.4,0.2,0.6
		c0,0.2,0,0.5-0.1,0.7c-0.2,0.3-0.4,0.5-0.7,0.7l-0.4,0.3c-0.1,0.1-0.2,0.2-0.2,0.2h1.7L243.3,124.2z"/>
	<path class="st0" d="M257.2,121.5l-1-0.2c0-0.3,0.2-0.6,0.4-0.8c0.3-0.2,0.6-0.3,1-0.3c0.4,0,0.8,0.1,1.1,0.3
		c0.2,0.2,0.4,0.4,0.4,0.7c0,0.2,0,0.3-0.1,0.5c-0.1,0.2-0.2,0.3-0.4,0.4c0.1,0,0.2,0.1,0.4,0.1c0.1,0.1,0.2,0.2,0.3,0.3
		c0.1,0.1,0.1,0.3,0.1,0.5c0,0.2,0,0.5-0.1,0.6c-0.1,0.2-0.3,0.4-0.5,0.5c-0.3,0.1-0.6,0.2-0.9,0.2c-0.3,0-0.6,0-0.9-0.1
		c-0.2-0.1-0.4-0.2-0.5-0.4c-0.2-0.2-0.3-0.4-0.4-0.6l1.1-0.1c0,0.2,0.1,0.3,0.2,0.4c0.1,0.1,0.2,0.1,0.4,0.1c0.1,0,0.3-0.1,0.4-0.1
		c0.1-0.1,0.1-0.3,0.1-0.4c0-0.2-0.1-0.3-0.2-0.4c-0.1-0.1-0.2-0.1-0.4-0.1c-0.1,0-0.2,0-0.3,0.1v-0.8h0.1c0.1,0,0.3,0,0.3-0.1
		c0.2-0.2,0.2-0.4,0-0.6c0,0,0,0,0,0c-0.1-0.1-0.2-0.1-0.3-0.1c-0.1,0-0.2,0-0.3,0.1C257.3,121.2,257.2,121.3,257.2,121.5z"/>
	<path class="st0" d="M274.4,123.5h-2l-0.1-0.9l1.8-2.3h0.9l0.2,2.4h0.5l0.1,0.8h-0.4l0.1,0.7h-0.9L274.4,123.5z M274.3,122.7
		l-0.1-1.2l-1,1.2H274.3z"/>
	<path class="st0" d="M289,120.4h2.5l0.1,0.9h-1.7l0,0.6c0.1-0.1,0.2-0.1,0.3-0.1c0.1,0,0.2,0,0.4,0c0.4,0,0.7,0.1,1,0.4
		c0.3,0.2,0.4,0.5,0.4,0.9c0,0.2,0,0.5-0.1,0.7c-0.1,0.2-0.3,0.4-0.5,0.5c-0.3,0.1-0.6,0.2-0.9,0.2c-0.2,0-0.4,0-0.7-0.1
		c-0.3-0.1-0.6-0.3-0.8-0.6c-0.1-0.1-0.2-0.3-0.2-0.4l1.1-0.1c0,0.2,0.1,0.3,0.2,0.4c0.1,0.1,0.2,0.1,0.4,0.1c0.1,0,0.3-0.1,0.4-0.2
		c0.1-0.1,0.1-0.3,0.1-0.5c0-0.2-0.1-0.4-0.2-0.5c-0.1-0.1-0.2-0.2-0.4-0.2c-0.1,0-0.2,0-0.3,0.1c-0.1,0.1-0.2,0.1-0.2,0.2l-0.9-0.1
		L289,120.4z"/>
	<path class="st0" d="M308,121.2l-1.1,0.1c0-0.1-0.1-0.2-0.2-0.3c-0.1-0.1-0.2-0.1-0.3-0.1c-0.2,0-0.3,0.1-0.4,0.3
		c-0.1,0.3-0.1,0.5-0.1,0.8c0.1-0.1,0.2-0.2,0.4-0.3c0.1-0.1,0.3-0.1,0.5-0.1c0.3,0,0.7,0.1,0.9,0.4c0.3,0.2,0.4,0.6,0.4,0.9
		c0,0.2,0,0.5-0.1,0.7c-0.1,0.2-0.3,0.4-0.5,0.5c-0.2,0.1-0.5,0.2-0.8,0.2c-0.3,0-0.7-0.1-1-0.2c-0.3-0.1-0.5-0.4-0.6-0.6
		c-0.2-0.4-0.3-0.8-0.3-1.1c-0.1-0.5,0-1.1,0.3-1.5c0.3-0.3,0.7-0.5,1.2-0.5c0.3,0,0.5,0,0.7,0.1c0.2,0.1,0.3,0.2,0.5,0.3
		C307.9,120.9,308,121.1,308,121.2z M306.2,123c0,0.2,0.1,0.4,0.2,0.5c0.1,0.1,0.2,0.2,0.4,0.2c0.1,0,0.3-0.1,0.3-0.2
		c0.1-0.1,0.1-0.3,0.1-0.5c0-0.2-0.1-0.4-0.2-0.5c-0.1-0.1-0.2-0.2-0.4-0.2c-0.1,0-0.3,0.1-0.4,0.2
		C306.2,122.6,306.1,122.8,306.2,123z"/>
	<path class="st0" d="M321.1,120.4h3.1l0.1,0.7c-0.2,0.2-0.5,0.5-0.6,0.8c-0.2,0.4-0.3,0.8-0.4,1.2c-0.1,0.4-0.1,0.8-0.1,1.2h-1.1
		c0-0.5,0.1-1.1,0.3-1.6c0.2-0.5,0.4-1,0.8-1.4h-1.9L321.1,120.4z"/>
	<path class="st0" d="M229.9,164.9h-3.2c0-0.3,0.1-0.6,0.3-0.9c0.3-0.4,0.6-0.7,1-1c0.2-0.1,0.4-0.3,0.6-0.5
		c0.1-0.1,0.1-0.2,0.1-0.4c0-0.1-0.1-0.2-0.1-0.3c-0.1-0.1-0.2-0.1-0.3-0.1c-0.1,0-0.2,0-0.3,0.1c-0.1,0.1-0.1,0.3-0.1,0.5l-1.1-0.1
		c0-0.2,0.1-0.5,0.2-0.7c0.1-0.2,0.3-0.3,0.4-0.4c0.3-0.1,0.6-0.1,0.9-0.1c0.3,0,0.6,0,0.9,0.1c0.2,0.1,0.4,0.2,0.5,0.4
		c0.1,0.2,0.2,0.4,0.2,0.6c0,0.2,0,0.5-0.1,0.7c-0.2,0.3-0.4,0.5-0.7,0.7c-0.2,0.1-0.4,0.3-0.4,0.3l-0.2,0.2h1.7L229.9,164.9z"/>
	<path class="st0" d="M233.5,164.9h-3.2c0-0.3,0.1-0.6,0.3-0.9c0.3-0.4,0.6-0.7,1-1c0.2-0.2,0.4-0.3,0.6-0.5
		c0.1-0.1,0.1-0.2,0.1-0.4c0-0.1-0.1-0.2-0.2-0.3c-0.1-0.1-0.2-0.1-0.3-0.1c-0.1,0-0.2,0-0.3,0.1c-0.1,0.1-0.1,0.3-0.1,0.5l-1.1-0.1
		c0-0.2,0.1-0.5,0.2-0.7c0.1-0.2,0.3-0.3,0.5-0.4c0.3-0.1,0.6-0.1,0.8-0.1c0.3,0,0.6,0,0.9,0.1c0.2,0.1,0.4,0.2,0.5,0.4
		c0.1,0.2,0.2,0.4,0.2,0.6c0,0.2,0,0.5-0.2,0.7c-0.2,0.3-0.4,0.5-0.7,0.7c-0.2,0.1-0.3,0.3-0.4,0.3c-0.1,0.1-0.2,0.1-0.2,0.2h1.7
		L233.5,164.9z"/>
	<path class="st0" d="M246.1,164.9h-3.2c0-0.3,0.1-0.6,0.3-0.9c0.3-0.4,0.6-0.7,1-1c0.2-0.2,0.4-0.3,0.6-0.5
		c0.1-0.1,0.1-0.2,0.1-0.4c0-0.1-0.1-0.2-0.2-0.3c-0.1-0.1-0.2-0.1-0.3-0.1c-0.1,0-0.2,0-0.3,0.1c-0.1,0.1-0.1,0.3-0.1,0.5l-1.1-0.1
		c0-0.2,0.1-0.5,0.2-0.7c0.1-0.2,0.3-0.3,0.5-0.4c0.3-0.1,0.6-0.1,0.8-0.1c0.3,0,0.6,0,0.9,0.1c0.4,0.2,0.7,0.5,0.8,1
		c0,0.2,0,0.5-0.2,0.7c-0.2,0.3-0.4,0.5-0.7,0.7c-0.2,0.1-0.3,0.3-0.4,0.3c-0.1,0.1-0.2,0.1-0.2,0.2h1.7L246.1,164.9z"/>
	<path class="st0" d="M247.4,162.1l-1-0.2c0-0.3,0.2-0.6,0.4-0.8c0.3-0.2,0.6-0.3,1-0.3c0.4,0,0.8,0.1,1.1,0.3
		c0.2,0.2,0.4,0.4,0.4,0.7c0,0.2,0,0.3-0.1,0.5c-0.1,0.1-0.2,0.3-0.4,0.4c0.1,0,0.2,0.1,0.4,0.1c0.1,0.1,0.2,0.2,0.3,0.3
		c0.1,0.1,0.1,0.3,0.1,0.5c0,0.2,0,0.4-0.1,0.6c-0.1,0.2-0.3,0.4-0.5,0.5c-0.3,0.1-0.6,0.2-0.9,0.2c-0.3,0-0.6,0-0.8-0.1
		c-0.2-0.1-0.4-0.2-0.5-0.4c-0.2-0.2-0.3-0.4-0.4-0.6l1.1-0.1c0,0.2,0.1,0.3,0.2,0.4c0.1,0.1,0.2,0.1,0.4,0.1c0.1,0,0.3-0.1,0.4-0.2
		c0.1-0.1,0.1-0.3,0.1-0.4c0-0.2-0.1-0.3-0.2-0.4c-0.1-0.1-0.2-0.2-0.4-0.1c-0.1,0-0.2,0-0.4,0.1v-0.8h0.1c0.1,0,0.3,0,0.4-0.1
		c0.1-0.1,0.1-0.2,0.1-0.3c0-0.1,0-0.2-0.1-0.3c-0.1-0.1-0.2-0.1-0.3-0.1c-0.1,0-0.2,0-0.3,0.1C247.5,161.8,247.4,162,247.4,162.1z"
		/>
	<path class="st0" d="M262.4,164.9h-3.2c0-0.3,0.1-0.6,0.3-0.9c0.3-0.4,0.6-0.7,1-1c0.2-0.1,0.4-0.3,0.6-0.5
		c0.1-0.1,0.1-0.2,0.1-0.4c0-0.1-0.1-0.2-0.1-0.3c-0.1-0.1-0.2-0.1-0.3-0.1c-0.1,0-0.2,0-0.3,0.1c-0.1,0.1-0.1,0.3-0.1,0.5l-1.1-0.1
		c0-0.2,0.1-0.5,0.2-0.7c0.1-0.2,0.3-0.3,0.5-0.4c0.3-0.1,0.6-0.1,0.8-0.1c0.3,0,0.6,0,0.9,0.1c0.2,0.1,0.4,0.2,0.5,0.4
		c0.1,0.2,0.2,0.4,0.2,0.6c0,0.2,0,0.5-0.1,0.7c-0.2,0.3-0.4,0.5-0.7,0.7l-0.4,0.3c-0.1,0.1-0.2,0.1-0.2,0.2h1.7L262.4,164.9z"/>
	<path class="st0" d="M264.6,164.2h-2l-0.1-0.9l1.8-2.3h0.9l0.2,2.4h0.5l0.1,0.8h-0.5v0.7h-0.9L264.6,164.2z M264.6,163.3l-0.1-1.2
		l-0.9,1.2H264.6z"/>
	<path class="st0" d="M278.6,164.9h-3.2c0-0.3,0.1-0.6,0.3-0.9c0.3-0.4,0.6-0.7,1-1c0.2-0.1,0.4-0.3,0.6-0.5
		c0.1-0.1,0.1-0.2,0.1-0.4c0-0.1-0.1-0.2-0.2-0.3c-0.1-0.1-0.2-0.1-0.3-0.1c-0.1,0-0.2,0-0.3,0.1c-0.1,0.1-0.2,0.3-0.1,0.5l-1.1-0.1
		c0-0.2,0.1-0.5,0.2-0.7c0.1-0.2,0.3-0.3,0.5-0.4c0.3-0.1,0.6-0.1,0.8-0.1c0.3,0,0.6,0,0.9,0.1c0.2,0.1,0.4,0.2,0.5,0.4
		c0.1,0.2,0.2,0.4,0.2,0.6c0,0.2,0,0.5-0.2,0.7c-0.2,0.3-0.4,0.5-0.7,0.7c-0.2,0.1-0.3,0.3-0.4,0.3c-0.1,0.1-0.2,0.1-0.2,0.2h1.7
		L278.6,164.9z"/>
	<path class="st0" d="M279.2,161h2.6l0.1,0.9h-1.7v0.6c0.1-0.1,0.2-0.1,0.4-0.1c0.1,0,0.2,0,0.3-0.1c0.4,0,0.7,0.1,1,0.4
		c0.3,0.2,0.4,0.5,0.4,0.9c0,0.2,0,0.5-0.1,0.7c-0.1,0.2-0.3,0.4-0.5,0.5c-0.3,0.1-0.6,0.2-0.9,0.2c-0.2,0-0.5,0-0.7-0.1
		c-0.2,0-0.3-0.1-0.5-0.2c-0.1-0.1-0.2-0.2-0.3-0.3c-0.1-0.1-0.2-0.3-0.2-0.5l1.1-0.1c0,0.1,0.1,0.3,0.2,0.4
		c0.1,0.1,0.2,0.1,0.4,0.1c0.1,0,0.3-0.1,0.4-0.2c0.1-0.2,0.1-0.3,0.1-0.5c0-0.2-0.1-0.4-0.2-0.5c-0.1-0.1-0.3-0.2-0.4-0.2
		c-0.1,0-0.2,0-0.3,0.1c-0.1,0-0.2,0.1-0.2,0.2l-0.9-0.1L279.2,161z"/>
	<path class="st0" d="M294.9,164.9h-3.2c0-0.3,0.1-0.6,0.3-0.9c0.3-0.4,0.6-0.7,1-1c0.2-0.1,0.4-0.3,0.6-0.5
		c0.1-0.1,0.1-0.2,0.1-0.4c0-0.1-0.1-0.2-0.1-0.3c-0.1-0.1-0.2-0.1-0.3-0.1c-0.1,0-0.2,0-0.3,0.1c-0.1,0.1-0.1,0.3-0.1,0.5l-1.1-0.1
		c0-0.2,0.1-0.5,0.2-0.7c0.1-0.2,0.3-0.3,0.5-0.4c0.3-0.1,0.6-0.1,0.8-0.1c0.3,0,0.6,0,0.9,0.1c0.4,0.2,0.7,0.5,0.8,1
		c0,0.2,0,0.5-0.2,0.7c-0.2,0.3-0.4,0.5-0.7,0.7l-0.4,0.3c-0.1,0.1-0.2,0.1-0.2,0.2h1.7L294.9,164.9z"/>
	<path class="st0" d="M298.2,161.9l-1.1,0.1c0-0.1-0.1-0.2-0.2-0.3c-0.1-0.1-0.2-0.1-0.3-0.1c-0.2,0-0.3,0.1-0.4,0.3
		c-0.1,0.3-0.1,0.5-0.1,0.8c0.1-0.1,0.2-0.2,0.4-0.3c0.1-0.1,0.3-0.1,0.5-0.1c0.3,0,0.7,0.1,0.9,0.4c0.3,0.2,0.4,0.6,0.4,0.9
		c0,0.2,0,0.5-0.1,0.7c-0.1,0.2-0.3,0.4-0.5,0.5c-0.2,0.1-0.5,0.2-0.8,0.2c-0.3,0-0.7-0.1-1-0.2c-0.3-0.1-0.5-0.4-0.6-0.6
		c-0.2-0.4-0.3-0.7-0.3-1.1c-0.1-0.5,0-1.1,0.3-1.5c0.3-0.3,0.7-0.5,1.2-0.5c0.2,0,0.5,0,0.7,0.1c0.2,0.1,0.3,0.2,0.5,0.3
		C298.1,161.5,298.2,161.7,298.2,161.9z M296.4,163.6c0,0.2,0.1,0.4,0.2,0.5c0.1,0.1,0.3,0.2,0.4,0.2c0.1,0,0.3-0.1,0.3-0.2
		c0.1-0.1,0.1-0.3,0.1-0.5c0-0.2-0.1-0.4-0.2-0.5c-0.1-0.1-0.2-0.2-0.4-0.2c-0.1,0-0.3,0.1-0.4,0.2
		C296.4,163.3,296.4,163.4,296.4,163.6z"/>
	<path class="st0" d="M311.1,164.9h-3.2c0-0.3,0.1-0.6,0.3-0.9c0.3-0.4,0.6-0.7,1-1c0.2-0.1,0.4-0.3,0.6-0.5
		c0.1-0.1,0.1-0.2,0.1-0.4c0-0.1-0.1-0.2-0.1-0.3c-0.1-0.1-0.2-0.1-0.3-0.1c-0.1,0-0.2,0-0.3,0.1c-0.1,0.1-0.1,0.3-0.1,0.5l-1.1-0.1
		c0-0.2,0.1-0.5,0.2-0.7c0.1-0.2,0.3-0.3,0.4-0.4c0.3-0.1,0.6-0.1,0.9-0.1c0.3,0,0.6,0,0.9,0.1c0.2,0.1,0.4,0.2,0.5,0.4
		c0.1,0.2,0.2,0.4,0.2,0.6c0,0.2,0,0.5-0.2,0.7c-0.2,0.3-0.4,0.5-0.7,0.7l-0.4,0.3l-0.2,0.2h1.7L311.1,164.9z"/>
	<path class="st0" d="M311.3,161h3.1l0,0.7c-0.2,0.2-0.5,0.5-0.6,0.8c-0.2,0.4-0.4,0.8-0.4,1.2c-0.1,0.4-0.1,0.8-0.1,1.2h-1.1
		c0-0.5,0.1-1.1,0.3-1.6c0.2-0.5,0.4-1,0.8-1.4h-1.9L311.3,161z"/>
	<path class="st0" d="M327.4,164.9h-3.2c0-0.3,0.1-0.6,0.3-0.9c0.3-0.4,0.6-0.7,1-1c0.2-0.2,0.4-0.3,0.6-0.5
		c0.1-0.1,0.1-0.2,0.1-0.4c0-0.1-0.1-0.2-0.2-0.3c-0.1-0.1-0.2-0.1-0.3-0.1c-0.1,0-0.2,0-0.3,0.1c-0.1,0.1-0.1,0.3-0.1,0.5l-1.1-0.1
		c0-0.2,0.1-0.5,0.2-0.7c0.1-0.2,0.3-0.3,0.5-0.4c0.3-0.1,0.6-0.1,0.8-0.1c0.3,0,0.6,0,0.9,0.1c0.4,0.2,0.7,0.5,0.8,1
		c0,0.2,0,0.5-0.2,0.7c-0.2,0.3-0.4,0.5-0.7,0.7c-0.2,0.1-0.3,0.3-0.4,0.3c-0.1,0.1-0.2,0.1-0.2,0.2h1.7L327.4,164.9z"/>
	<path class="st0" d="M328.3,162.8c-0.2-0.1-0.3-0.2-0.4-0.3c-0.1-0.1-0.2-0.3-0.2-0.5c0-0.3,0.1-0.6,0.4-0.8
		c0.3-0.2,0.6-0.3,0.9-0.2c0.4,0,0.8,0.1,1.2,0.3c0.2,0.2,0.4,0.4,0.4,0.8c0,0.2,0,0.3-0.1,0.5c-0.1,0.1-0.2,0.2-0.3,0.3
		c0.2,0.1,0.4,0.2,0.5,0.4c0.1,0.2,0.2,0.4,0.2,0.6c0,0.2,0,0.4-0.1,0.5c-0.1,0.2-0.2,0.3-0.3,0.4c-0.1,0.1-0.3,0.2-0.5,0.2
		c-0.2,0-0.4,0.1-0.6,0.1c-0.3,0-0.6,0-1-0.1c-0.2-0.1-0.4-0.2-0.5-0.4c-0.1-0.2-0.2-0.4-0.2-0.6c0-0.2,0-0.4,0.1-0.6
		C328,163,328.1,162.9,328.3,162.8z M328.8,163.7c0,0.2,0.1,0.3,0.2,0.4c0.1,0.1,0.2,0.2,0.4,0.2c0.1,0,0.3-0.1,0.3-0.2
		c0.1-0.1,0.1-0.3,0.1-0.4c0-0.2-0.1-0.3-0.2-0.4c-0.1-0.1-0.2-0.2-0.4-0.2c-0.1,0-0.3,0.1-0.3,0.1
		C328.9,163.4,328.8,163.6,328.8,163.7L328.8,163.7z M328.8,162c0,0.1,0.1,0.2,0.1,0.3c0.1,0.1,0.2,0.1,0.3,0.1c0.1,0,0.2,0,0.3-0.1
		c0.1-0.1,0.1-0.2,0.1-0.3c0-0.1-0.1-0.2-0.1-0.3c-0.1-0.1-0.2-0.1-0.3-0.1c-0.1,0-0.2,0-0.3,0.1C328.8,161.8,328.8,161.9,328.8,162
		z"/>
	<path class="st0" d="M92.7,137.1h-2l-0.1-0.9l1.8-2.3h1l0.2,2.4h0.5l0.1,0.8h-0.5v0.7h-0.9L92.7,137.1z M92.6,136.3l-0.1-1.2
		l-1,1.2H92.6z"/>
	<path class="st0" d="M107.3,133.9h2.6l0.1,0.9h-1.7v0.6c0.1-0.1,0.2-0.1,0.4-0.1c0.1,0,0.2,0,0.3,0c0.4,0,0.7,0.1,1,0.4
		c0.3,0.2,0.4,0.5,0.4,0.9c0,0.2,0,0.5-0.1,0.7c-0.1,0.2-0.3,0.4-0.5,0.5c-0.3,0.1-0.6,0.2-0.9,0.2c-0.2,0-0.4,0-0.7-0.1
		c-0.2,0-0.3-0.1-0.5-0.2c-0.1-0.1-0.2-0.2-0.3-0.3c-0.1-0.1-0.2-0.3-0.2-0.5l1.1-0.1c0,0.1,0.1,0.3,0.2,0.4
		c0.1,0.1,0.2,0.1,0.4,0.1c0.1,0,0.3-0.1,0.4-0.2c0.1-0.2,0.1-0.3,0.1-0.5c0-0.2-0.1-0.4-0.2-0.5c-0.1-0.1-0.3-0.2-0.4-0.2
		c-0.1,0-0.2,0-0.3,0.1c-0.1,0-0.2,0.1-0.2,0.2l-0.9-0.1L107.3,133.9z"/>
	<path class="st0" d="M126.3,134.8l-1.1,0.1c0-0.1-0.1-0.2-0.2-0.3c-0.1-0.1-0.2-0.1-0.3-0.1c-0.2,0-0.3,0.1-0.4,0.3
		c-0.1,0.3-0.1,0.5-0.1,0.8c0.1-0.1,0.2-0.2,0.4-0.3c0.1-0.1,0.3-0.1,0.5-0.1c0.3,0,0.7,0.1,0.9,0.4c0.4,0.4,0.6,1.1,0.3,1.6
		c-0.1,0.2-0.3,0.4-0.5,0.5c-0.2,0.1-0.5,0.2-0.8,0.2c-0.3,0-0.7-0.1-0.9-0.2c-0.3-0.1-0.5-0.4-0.6-0.6c-0.2-0.4-0.3-0.7-0.3-1.1
		c-0.1-0.5,0-1.1,0.3-1.5c0.3-0.3,0.7-0.5,1.2-0.5c0.3,0,0.5,0,0.7,0.1c0.2,0.1,0.3,0.2,0.5,0.3
		C126.1,134.4,126.2,134.6,126.3,134.8z M124.4,136.5c0,0.2,0.1,0.4,0.2,0.5c0.1,0.1,0.2,0.2,0.4,0.2c0.1,0,0.3-0.1,0.3-0.2
		c0.1-0.1,0.1-0.3,0.1-0.5c0-0.2-0.1-0.4-0.2-0.5c-0.1-0.1-0.2-0.2-0.4-0.2c-0.1,0-0.3,0.1-0.4,0.2
		C124.4,136.2,124.4,136.3,124.4,136.5z"/>
	<path class="st0" d="M139.4,133.9h3.1v0.7c-0.2,0.2-0.5,0.5-0.6,0.8c-0.2,0.4-0.4,0.8-0.4,1.2c-0.1,0.4-0.1,0.8-0.1,1.2h-1.1
		c0-0.5,0.1-1.1,0.3-1.6c0.2-0.5,0.4-1,0.8-1.4h-1.9V133.9z"/>
	<path class="st0" d="M156.4,135.7c-0.2-0.1-0.3-0.2-0.4-0.3c-0.1-0.1-0.2-0.3-0.2-0.5c0-0.3,0.1-0.6,0.4-0.8
		c0.3-0.2,0.6-0.3,0.9-0.2c0.4,0,0.8,0.1,1.2,0.3c0.2,0.2,0.4,0.4,0.4,0.8c0,0.2,0,0.3-0.1,0.5c-0.1,0.1-0.2,0.2-0.3,0.3
		c0.2,0.1,0.4,0.2,0.5,0.4c0.1,0.2,0.2,0.4,0.2,0.6c0,0.4-0.1,0.7-0.4,0.9c-0.1,0.1-0.3,0.2-0.5,0.2c-0.2,0-0.4,0.1-0.6,0.1
		c-0.3,0-0.6,0-0.9-0.1c-0.2-0.1-0.4-0.2-0.5-0.4c-0.1-0.2-0.2-0.4-0.2-0.6c0-0.2,0-0.4,0.1-0.6
		C156.1,135.9,156.2,135.8,156.4,135.7z M156.9,136.6c0,0.2,0.1,0.3,0.2,0.4c0.1,0.1,0.2,0.2,0.4,0.2c0.1,0,0.3-0.1,0.3-0.2
		c0.1-0.1,0.1-0.3,0.1-0.4c0-0.2-0.1-0.3-0.2-0.4c-0.1-0.1-0.2-0.2-0.4-0.2c-0.1,0-0.3,0.1-0.3,0.1
		C156.9,136.3,156.9,136.5,156.9,136.6L156.9,136.6z M156.8,134.9c0,0.1,0.1,0.2,0.1,0.3c0.1,0.1,0.2,0.1,0.3,0.1
		c0.1,0,0.2,0,0.3-0.1c0.1-0.1,0.1-0.2,0.1-0.3c0-0.1-0.1-0.2-0.1-0.3c-0.1-0.1-0.2-0.1-0.3-0.1C157,134.5,156.9,134.6,156.8,134.9
		C156.8,134.9,156.8,134.9,156.8,134.9L156.8,134.9z"/>
	<path class="st0" d="M172.1,136.9l1.1-0.1c0,0.1,0.1,0.2,0.2,0.3c0.2,0.1,0.4,0.1,0.6-0.1c0,0,0-0.1,0.1-0.1
		c0.1-0.3,0.1-0.5,0.1-0.8c-0.1,0.1-0.2,0.2-0.4,0.3c-0.1,0.1-0.3,0.1-0.5,0.1c-0.3,0-0.7-0.1-0.9-0.4c-0.3-0.2-0.4-0.6-0.4-0.9
		c0-0.2,0-0.5,0.1-0.7c0.1-0.2,0.3-0.4,0.5-0.5c0.2-0.1,0.5-0.2,0.8-0.2c0.3,0,0.7,0,0.9,0.2c0.3,0.2,0.5,0.4,0.6,0.6
		c0.2,0.4,0.3,0.7,0.3,1.1c0.1,0.5,0,1.1-0.3,1.5c-0.3,0.3-0.7,0.5-1.2,0.5c-0.3,0-0.5,0-0.7-0.1c-0.2-0.1-0.3-0.2-0.5-0.3
		C172.3,137.3,172.2,137.1,172.1,136.9z M174,135.2c0-0.2-0.1-0.4-0.2-0.5c-0.1-0.1-0.2-0.2-0.4-0.2c-0.1,0-0.3,0.1-0.3,0.2
		c-0.1,0.1-0.1,0.3-0.1,0.5c0,0.2,0.1,0.4,0.2,0.5c0.1,0.1,0.2,0.2,0.4,0.2c0.1,0,0.3-0.1,0.4-0.2C174,135.5,174,135.4,174,135.2
		L174,135.2z"/>
	<path class="st0" d="M190.5,133.9l0.3,3.9h-1.1l-0.2-2.6c-0.1,0.1-0.3,0.2-0.5,0.3c-0.2,0.1-0.4,0.2-0.6,0.2l-0.1-0.9
		c0.3-0.1,0.6-0.2,0.8-0.4c0.2-0.2,0.3-0.4,0.4-0.6L190.5,133.9z"/>
	<path class="st0" d="M191.9,135.8c-0.1-0.5,0-1.1,0.3-1.5c0.3-0.3,0.7-0.5,1.2-0.4c0.2,0,0.4,0,0.6,0.1c0.3,0.1,0.5,0.3,0.7,0.6
		c0.1,0.1,0.1,0.3,0.2,0.4c0.1,0.3,0.1,0.6,0.2,0.9c0.1,0.5,0,1.1-0.2,1.6c-0.3,0.4-0.7,0.5-1.2,0.5c-0.3,0-0.6,0-0.8-0.2
		c-0.2-0.1-0.4-0.3-0.5-0.5c-0.1-0.2-0.2-0.4-0.3-0.6C191.9,136.4,191.9,136.1,191.9,135.8z M192.9,135.8c0,0.3,0.1,0.7,0.2,1
		c0.1,0.2,0.2,0.3,0.4,0.3c0.1,0,0.2,0,0.3-0.1c0.1-0.1,0.1-0.2,0.1-0.4c0-0.3,0-0.5,0-0.8c0-0.3-0.1-0.7-0.2-1
		c-0.1-0.2-0.2-0.3-0.4-0.3c-0.2,0-0.3,0.1-0.4,0.3C192.9,135.2,192.9,135.5,192.9,135.8L192.9,135.8z"/>
	<path class="st0" d="M94,147.4l0.3,3.9h-1.1l-0.2-2.6c-0.2,0.1-0.3,0.2-0.5,0.3c-0.2,0.1-0.4,0.2-0.6,0.2l-0.1-0.9
		c0.3-0.1,0.6-0.2,0.8-0.4c0.2-0.2,0.3-0.4,0.4-0.6H94z"/>
	<path class="st0" d="M97.7,147.4l0.3,3.9h-1.1l-0.2-2.6c-0.2,0.1-0.3,0.2-0.5,0.3c-0.2,0.1-0.4,0.2-0.6,0.2l-0.1-0.9
		c0.3-0.1,0.6-0.2,0.8-0.4c0.2-0.2,0.3-0.4,0.4-0.6H97.7z"/>
	<path class="st0" d="M110.3,147.4l0.3,3.9h-1.1l-0.2-2.6c-0.2,0.1-0.3,0.2-0.5,0.3c-0.2,0.1-0.4,0.2-0.6,0.2l-0.1-0.9
		c0.3-0.1,0.6-0.2,0.8-0.4c0.2-0.2,0.3-0.4,0.4-0.6H110.3z"/>
	<path class="st0" d="M114.9,151.3h-3.2c0-0.3,0.1-0.6,0.3-0.9c0.3-0.4,0.6-0.7,1-1c0.2-0.2,0.4-0.3,0.6-0.5
		c0.1-0.1,0.1-0.2,0.1-0.3c0-0.1-0.1-0.2-0.1-0.3c-0.1-0.1-0.2-0.1-0.3-0.1c-0.1,0-0.2,0-0.3,0.1c-0.1,0.1-0.1,0.3-0.1,0.5l-1.1-0.1
		c0-0.2,0.1-0.5,0.2-0.7c0.1-0.2,0.3-0.3,0.4-0.4c0.3-0.1,0.6-0.2,0.8-0.1c0.3,0,0.6,0,0.9,0.1c0.2,0.1,0.4,0.2,0.5,0.4
		c0.3,0.4,0.3,0.9,0.1,1.3c-0.2,0.3-0.4,0.5-0.7,0.7l-0.4,0.3c-0.1,0.1-0.2,0.2-0.2,0.2h1.7L114.9,151.3z"/>
	<path class="st0" d="M126.5,147.4l0.3,3.9h-1.1l-0.2-2.6c-0.2,0.1-0.3,0.2-0.5,0.3c-0.2,0.1-0.4,0.2-0.6,0.2l-0.1-0.9
		c0.3-0.1,0.6-0.2,0.8-0.4c0.2-0.2,0.3-0.4,0.4-0.6H126.5z"/>
	<path class="st0" d="M128.9,148.6l-1-0.2c0-0.3,0.2-0.6,0.4-0.8c0.3-0.2,0.6-0.3,1-0.3c0.4,0,0.8,0.1,1.1,0.3
		c0.2,0.2,0.4,0.4,0.4,0.7c0,0.2,0,0.3-0.1,0.5c-0.1,0.2-0.2,0.3-0.4,0.4c0.1,0,0.2,0.1,0.4,0.1c0.1,0.1,0.2,0.2,0.3,0.3
		c0.1,0.1,0.1,0.3,0.1,0.5c0,0.2,0,0.4-0.1,0.6c-0.1,0.2-0.3,0.4-0.5,0.5c-0.3,0.1-0.6,0.2-0.9,0.2c-0.3,0-0.6,0-0.8-0.1
		c-0.2-0.1-0.4-0.2-0.5-0.4c-0.2-0.2-0.3-0.4-0.3-0.6l1.1-0.1c0,0.2,0.1,0.3,0.2,0.4c0.1,0.1,0.2,0.1,0.4,0.1c0.1,0,0.3-0.1,0.4-0.1
		c0.1-0.1,0.1-0.3,0.1-0.4c0-0.2-0.1-0.3-0.2-0.4c-0.1-0.1-0.2-0.1-0.4-0.1c-0.1,0-0.2,0-0.3,0.1v-0.8h0.1c0.1,0,0.3,0,0.3-0.1
		c0.1-0.1,0.1-0.2,0.1-0.3c0-0.1-0.1-0.2-0.1-0.3c-0.1-0.1-0.2-0.1-0.3-0.1c-0.1,0-0.2,0-0.3,0.1
		C128.9,148.3,128.9,148.4,128.9,148.6z"/>
	<path class="st0" d="M142.8,147.4l0.3,3.9H142l-0.2-2.6c-0.2,0.1-0.3,0.2-0.5,0.3c-0.2,0.1-0.4,0.2-0.6,0.2l-0.1-0.9
		c0.3-0.1,0.6-0.2,0.8-0.4c0.2-0.2,0.3-0.4,0.4-0.6H142.8z"/>
	<path class="st0" d="M146.1,150.6h-2l-0.1-0.9l1.8-2.3h0.9l0.2,2.4h0.5l0.1,0.8H147l0.1,0.7h-0.9L146.1,150.6z M146,149.8l-0.1-1.2
		l-0.9,1.2H146z"/>
	<path class="st0" d="M159.1,147.4l0.3,3.9h-1.1l-0.2-2.6c-0.2,0.1-0.3,0.2-0.5,0.3c-0.2,0.1-0.4,0.2-0.6,0.2l-0.1-0.9
		c0.3-0.1,0.6-0.2,0.8-0.4c0.2-0.2,0.3-0.4,0.4-0.6H159.1z"/>
	<path class="st0" d="M160.7,147.5h2.6l0.1,0.9h-1.7l-0.1,0.6c0.1-0.1,0.2-0.1,0.4-0.1c0.1,0,0.2,0,0.4,0c0.4,0,0.7,0.1,1,0.4
		c0.3,0.2,0.4,0.5,0.4,0.9c0,0.2,0,0.5-0.1,0.7c-0.1,0.2-0.3,0.4-0.5,0.5c-0.3,0.1-0.6,0.2-0.9,0.2c-0.2,0-0.4,0-0.7-0.1
		c-0.2,0-0.3-0.1-0.5-0.2c-0.1-0.1-0.2-0.2-0.3-0.3c-0.1-0.1-0.2-0.3-0.2-0.4l1.1-0.1c0,0.2,0.1,0.3,0.2,0.4
		c0.1,0.1,0.2,0.1,0.4,0.1c0.1,0,0.3-0.1,0.4-0.2c0.2-0.3,0.1-0.7-0.1-1c-0.1-0.1-0.3-0.2-0.4-0.2c-0.1,0-0.2,0-0.3,0.1
		c-0.1,0.1-0.2,0.1-0.2,0.2l-0.9-0.1L160.7,147.5z"/>
	<path class="st0" d="M175.3,147.4l0.3,3.9h-1.1l-0.2-2.6c-0.2,0.1-0.3,0.2-0.5,0.3c-0.2,0.1-0.4,0.2-0.6,0.2l-0.1-0.9
		c0.3-0.1,0.6-0.2,0.8-0.4c0.2-0.2,0.3-0.4,0.4-0.6H175.3z"/>
	<path class="st0" d="M179.7,148.3l-1.1,0.1c0-0.1-0.1-0.3-0.2-0.4c-0.1-0.1-0.2-0.1-0.3-0.1c-0.2,0-0.3,0.1-0.4,0.3
		c-0.1,0.3-0.1,0.5-0.1,0.8c0.1-0.1,0.2-0.2,0.4-0.3c0.1-0.1,0.3-0.1,0.5-0.1c0.3,0,0.7,0.1,0.9,0.4c0.4,0.4,0.6,1.1,0.3,1.6
		c-0.1,0.2-0.3,0.4-0.5,0.5c-0.2,0.1-0.5,0.2-0.8,0.2c-0.3,0-0.7,0-1-0.2c-0.3-0.1-0.5-0.4-0.6-0.6c-0.2-0.4-0.3-0.8-0.3-1.1
		c-0.1-0.5,0-1.1,0.3-1.5c0.3-0.3,0.7-0.5,1.2-0.5c0.3,0,0.5,0,0.7,0.1c0.2,0.1,0.3,0.2,0.5,0.3
		C179.5,147.9,179.6,148.1,179.7,148.3z M177.8,150.1c0,0.2,0.1,0.4,0.2,0.5c0.1,0.1,0.2,0.2,0.4,0.2c0.1,0,0.3-0.1,0.3-0.2
		c0.1-0.1,0.1-0.3,0.1-0.5c0-0.2-0.1-0.4-0.2-0.5c-0.1-0.1-0.2-0.2-0.4-0.2c-0.1,0-0.3,0.1-0.4,0.2
		C177.8,149.8,177.8,149.9,177.8,150.1z"/>
	<path class="st0" d="M191.6,147.4l0.3,3.9h-1.1l-0.2-2.6c-0.2,0.1-0.3,0.2-0.5,0.3c-0.2,0.1-0.4,0.2-0.6,0.2l-0.1-0.9
		c0.3-0.1,0.6-0.2,0.8-0.4c0.2-0.2,0.3-0.4,0.4-0.6H191.6z"/>
	<path class="st0" d="M192.8,147.5h3.1l0.1,0.7c-0.2,0.2-0.5,0.5-0.6,0.8c-0.2,0.4-0.4,0.8-0.4,1.2c-0.1,0.4-0.1,0.8-0.1,1.2h-1.1
		c0-0.5,0.1-1.1,0.3-1.6c0.2-0.5,0.4-1,0.8-1.4h-1.9L192.8,147.5z"/>
	<path class="st0" d="M157.2,120.3l0.3,3.9h-1.1l-0.2-2.6c-0.2,0.1-0.3,0.2-0.5,0.3c-0.2,0.1-0.4,0.2-0.6,0.2l-0.1-0.9
		c0.3-0.1,0.6-0.2,0.8-0.4c0.2-0.2,0.3-0.4,0.4-0.6H157.2z"/>
	<path class="st0" d="M174.5,124.2h-3.2c0-0.3,0.1-0.6,0.3-0.9c0.3-0.4,0.6-0.7,1-1c0.2-0.2,0.4-0.3,0.6-0.5
		c0.1-0.1,0.1-0.2,0.1-0.3c0-0.1-0.1-0.2-0.1-0.3c-0.1-0.1-0.2-0.1-0.3-0.1c-0.1,0-0.2,0-0.3,0.1c-0.1,0.1-0.1,0.3-0.1,0.5l-1.1-0.1
		c0-0.2,0.1-0.5,0.2-0.7c0.1-0.2,0.3-0.3,0.4-0.4c0.3-0.1,0.6-0.2,0.9-0.1c0.3,0,0.6,0,0.9,0.1c0.2,0.1,0.4,0.2,0.5,0.4
		c0.1,0.2,0.2,0.4,0.2,0.6c0,0.2,0,0.5-0.2,0.7c-0.2,0.3-0.4,0.5-0.7,0.7l-0.4,0.3l-0.2,0.2h1.6L174.5,124.2z"/>
	<path class="st0" d="M188.4,121.5l-1-0.2c0-0.3,0.2-0.6,0.4-0.8c0.3-0.2,0.6-0.3,1-0.3c0.4,0,0.8,0.1,1.1,0.3
		c0.2,0.2,0.4,0.4,0.4,0.7c0,0.2,0,0.3-0.1,0.5c-0.1,0.2-0.2,0.3-0.4,0.4c0.1,0,0.2,0.1,0.4,0.1c0.1,0.1,0.2,0.2,0.3,0.3
		c0.1,0.1,0.1,0.3,0.1,0.5c0,0.2,0,0.5-0.1,0.6c-0.1,0.2-0.3,0.4-0.5,0.5c-0.3,0.1-0.6,0.2-0.9,0.2c-0.3,0-0.6,0-0.9-0.1
		c-0.2-0.1-0.4-0.2-0.5-0.4c-0.2-0.2-0.3-0.4-0.4-0.6l1.1-0.1c0,0.2,0.1,0.3,0.2,0.4c0.1,0.1,0.2,0.1,0.4,0.1c0.1,0,0.3,0,0.4-0.1
		c0.1-0.1,0.1-0.3,0.1-0.4c0-0.2-0.1-0.3-0.2-0.4c-0.1-0.1-0.2-0.1-0.4-0.1c-0.1,0-0.2,0-0.3,0.1v-0.8h0.1c0.1,0,0.3,0,0.3-0.1
		c0.2-0.2,0.2-0.4,0-0.6c0,0,0,0,0,0c-0.1-0.1-0.2-0.1-0.3-0.1c-0.1,0-0.2,0-0.3,0.1C188.5,121.2,188.4,121.3,188.4,121.5z"/>
	<path class="st0" d="M95.1,160.9l0.3,3.9h-1.1l-0.2-2.6c-0.2,0.1-0.3,0.2-0.5,0.3c-0.2,0.1-0.4,0.2-0.6,0.2l-0.1-0.9
		c0.3-0.1,0.6-0.2,0.8-0.4c0.2-0.2,0.3-0.4,0.4-0.6L95.1,160.9z"/>
	<path class="st0" d="M97,162.8c-0.2-0.1-0.3-0.2-0.4-0.3c-0.1-0.1-0.2-0.3-0.2-0.5c0-0.3,0.1-0.6,0.4-0.8c0.3-0.2,0.6-0.3,0.9-0.2
		c0.4,0,0.8,0.1,1.2,0.3c0.2,0.2,0.4,0.4,0.4,0.8c0,0.2,0,0.3-0.1,0.5c-0.1,0.1-0.2,0.2-0.3,0.3c0.2,0.1,0.4,0.2,0.5,0.4
		c0.1,0.2,0.2,0.4,0.2,0.6c0,0.2,0,0.4-0.1,0.5c-0.1,0.2-0.2,0.3-0.3,0.4c-0.1,0.1-0.3,0.2-0.5,0.2c-0.2,0-0.4,0.1-0.6,0.1
		c-0.3,0-0.7,0-1-0.1c-0.2-0.1-0.4-0.2-0.5-0.4c-0.1-0.2-0.2-0.4-0.2-0.6c0-0.2,0-0.4,0.1-0.6C96.6,163,96.8,162.9,97,162.8z
		 M97.5,163.7c0,0.2,0.1,0.3,0.2,0.4c0.1,0.1,0.2,0.2,0.4,0.2c0.1,0,0.3-0.1,0.3-0.2c0.1-0.1,0.1-0.3,0.1-0.4c0-0.2-0.1-0.3-0.2-0.4
		c-0.1-0.1-0.2-0.2-0.4-0.2c-0.1,0-0.3,0.1-0.3,0.1C97.5,163.4,97.5,163.5,97.5,163.7L97.5,163.7z M97.4,162c0,0.1,0.1,0.2,0.1,0.3
		c0.1,0.1,0.2,0.1,0.3,0.1c0.1,0,0.2,0,0.3-0.1c0.1-0.1,0.1-0.2,0.1-0.3c0-0.1-0.1-0.2-0.1-0.3c-0.1-0.1-0.2-0.1-0.3-0.1
		c-0.1,0-0.2,0-0.3,0.1C97.5,161.8,97.4,161.9,97.4,162L97.4,162z"/>
	<path class="st0" d="M111.3,160.9l0.3,3.9h-1.1l-0.2-2.6c-0.1,0.1-0.3,0.2-0.5,0.3c-0.2,0.1-0.4,0.2-0.6,0.2l-0.1-0.9
		c0.3-0.1,0.6-0.2,0.8-0.4c0.2-0.2,0.3-0.4,0.4-0.6L111.3,160.9z"/>
	<path class="st0" d="M112.8,164l1.1-0.1c0,0.1,0.1,0.2,0.2,0.3c0.1,0.1,0.2,0.1,0.3,0.1c0.2,0,0.3-0.1,0.4-0.3
		c0.1-0.3,0.1-0.5,0.1-0.8c-0.1,0.1-0.2,0.2-0.4,0.3c-0.1,0.1-0.3,0.1-0.5,0.1c-0.3,0-0.7-0.1-0.9-0.4c-0.3-0.2-0.4-0.6-0.4-0.9
		c0-0.2,0-0.5,0.1-0.7c0.1-0.2,0.3-0.4,0.5-0.5c0.2-0.1,0.5-0.2,0.8-0.2c0.3,0,0.7,0.1,0.9,0.2c0.3,0.1,0.5,0.4,0.6,0.6
		c0.2,0.4,0.3,0.7,0.3,1.1c0.1,0.5,0,1.1-0.3,1.5c-0.3,0.3-0.7,0.5-1.2,0.5c-0.3,0-0.5,0-0.7-0.1c-0.2-0.1-0.3-0.2-0.5-0.3
		C112.9,164.4,112.8,164.2,112.8,164z M114.6,162.3c0-0.2-0.1-0.4-0.2-0.5c-0.1-0.1-0.2-0.2-0.4-0.2c-0.1,0-0.3,0.1-0.3,0.2
		c-0.1,0.1-0.1,0.3-0.1,0.5c0,0.2,0.1,0.4,0.2,0.5c0.1,0.1,0.2,0.2,0.4,0.2c0.1,0,0.3-0.1,0.4-0.2
		C114.6,162.6,114.6,162.5,114.6,162.3L114.6,162.3z"/>
	<path class="st0" d="M128.6,164.9h-3.2c0-0.3,0.1-0.6,0.3-0.9c0.3-0.4,0.6-0.7,1-1c0.2-0.1,0.4-0.3,0.6-0.5
		c0.1-0.1,0.1-0.2,0.1-0.4c0-0.1-0.1-0.2-0.2-0.3c-0.1-0.1-0.2-0.1-0.3-0.1c-0.1,0-0.2,0-0.3,0.1c-0.1,0.1-0.2,0.3-0.1,0.5l-1.1-0.1
		c0-0.2,0.1-0.5,0.2-0.7c0.1-0.2,0.3-0.3,0.4-0.4c0.3-0.1,0.6-0.1,0.8-0.1c0.3,0,0.6,0,0.9,0.1c0.2,0.1,0.4,0.2,0.5,0.4
		c0.1,0.2,0.2,0.4,0.2,0.6c0,0.2,0,0.5-0.2,0.7c-0.2,0.3-0.4,0.5-0.7,0.7c-0.1,0.1-0.3,0.2-0.4,0.3c-0.1,0.1-0.2,0.1-0.2,0.2h1.7
		L128.6,164.9z"/>
	<path class="st0" d="M128.9,162.9c-0.1-0.5,0-1.1,0.3-1.5c0.3-0.3,0.7-0.5,1.2-0.4c0.2,0,0.4,0,0.6,0.1c0.2,0.1,0.3,0.1,0.4,0.3
		c0.1,0.1,0.2,0.2,0.3,0.3c0.1,0.1,0.1,0.3,0.2,0.4c0.1,0.3,0.2,0.6,0.2,0.9c0.1,0.5,0,1.1-0.2,1.6c-0.3,0.4-0.7,0.5-1.2,0.5
		c-0.3,0-0.5,0-0.8-0.2c-0.2-0.1-0.4-0.3-0.5-0.5c-0.1-0.2-0.2-0.4-0.3-0.6C129,163.5,128.9,163.2,128.9,162.9z M130,162.9
		c0,0.3,0.1,0.7,0.2,1c0.1,0.2,0.2,0.3,0.4,0.3c0.1,0,0.2,0,0.3-0.1c0.1-0.1,0.1-0.2,0.1-0.4c0-0.3,0-0.5,0-0.8c0-0.3-0.1-0.7-0.2-1
		c-0.1-0.2-0.2-0.3-0.4-0.3c-0.2,0-0.3,0.1-0.4,0.3C129.9,162.3,129.9,162.6,130,162.9L130,162.9z"/>
	<path class="st0" d="M144.8,164.9h-3.2c0-0.3,0.1-0.6,0.3-0.9c0.3-0.4,0.6-0.7,1-1c0.2-0.1,0.4-0.3,0.6-0.5
		c0.1-0.1,0.1-0.2,0.1-0.4c0-0.1-0.1-0.2-0.1-0.3c-0.1-0.1-0.2-0.1-0.3-0.1c-0.1,0-0.2,0-0.3,0.1c-0.1,0.1-0.1,0.3-0.1,0.5l-1.1-0.1
		c0-0.2,0.1-0.5,0.2-0.7c0.1-0.2,0.3-0.3,0.4-0.4c0.3-0.1,0.6-0.1,0.8-0.1c0.3,0,0.6,0,0.9,0.1c0.4,0.2,0.7,0.5,0.8,1
		c0,0.2,0,0.5-0.2,0.7c-0.2,0.3-0.4,0.5-0.7,0.7l-0.4,0.3c-0.1,0.1-0.2,0.1-0.2,0.2h1.7L144.8,164.9z"/>
	<path class="st0" d="M147.4,160.9l0.3,3.9h-1.1l-0.2-2.6c-0.2,0.1-0.3,0.2-0.5,0.3c-0.2,0.1-0.4,0.2-0.6,0.2l-0.1-0.9
		c0.3-0.1,0.6-0.2,0.8-0.4c0.2-0.2,0.3-0.4,0.4-0.6L147.4,160.9z"/>
	<path class="st0" d="M161.1,164.9h-3.2c0-0.3,0.1-0.6,0.3-0.9c0.3-0.4,0.6-0.7,1-1c0.2-0.1,0.4-0.3,0.6-0.5
		c0.1-0.1,0.1-0.2,0.1-0.4c0-0.1-0.1-0.2-0.1-0.3c-0.1-0.1-0.2-0.1-0.3-0.1c-0.1,0-0.2,0-0.3,0.1c-0.1,0.1-0.1,0.3-0.1,0.5l-1.1-0.1
		c0-0.2,0.1-0.5,0.2-0.7c0.1-0.2,0.3-0.3,0.4-0.4c0.3-0.1,0.6-0.1,0.9-0.1c0.3,0,0.6,0,0.9,0.1c0.2,0.1,0.4,0.2,0.5,0.4
		c0.1,0.2,0.2,0.4,0.2,0.6c0,0.2,0,0.5-0.2,0.7c-0.2,0.3-0.4,0.5-0.7,0.7l-0.4,0.3l-0.2,0.2h1.7L161.1,164.9z"/>
	<path class="st0" d="M164.7,164.9h-3.2c0-0.3,0.1-0.6,0.3-0.9c0.3-0.4,0.6-0.7,1-1c0.2-0.2,0.4-0.3,0.6-0.5
		c0.1-0.1,0.1-0.2,0.1-0.4c0-0.1-0.1-0.2-0.2-0.3c-0.1-0.1-0.2-0.1-0.3-0.1c-0.1,0-0.2,0-0.3,0.1c-0.1,0.1-0.1,0.3-0.1,0.5l-1.1-0.1
		c0-0.2,0.1-0.5,0.2-0.7c0.1-0.2,0.3-0.3,0.4-0.4c0.3-0.1,0.6-0.1,0.8-0.1c0.3,0,0.6,0,0.9,0.1c0.4,0.2,0.7,0.5,0.8,1
		c0,0.2,0,0.5-0.2,0.7c-0.2,0.3-0.4,0.5-0.7,0.7c-0.2,0.1-0.3,0.3-0.4,0.3c-0.1,0.1-0.2,0.1-0.2,0.2h1.7L164.7,164.9z"/>
	<path class="st0" d="M177.3,164.9h-3.2c0-0.3,0.1-0.6,0.3-0.9c0.3-0.4,0.6-0.7,1-1c0.2-0.2,0.4-0.3,0.6-0.5
		c0.1-0.1,0.1-0.2,0.1-0.4c0-0.1-0.1-0.2-0.2-0.3c-0.1-0.1-0.2-0.1-0.3-0.1c-0.1,0-0.2,0-0.3,0.1c-0.1,0.1-0.1,0.3-0.1,0.5l-1.1-0.1
		c0-0.2,0.1-0.5,0.2-0.7c0.1-0.2,0.3-0.3,0.4-0.4c0.3-0.1,0.6-0.1,0.8-0.1c0.3,0,0.6,0,0.9,0.1c0.4,0.2,0.7,0.5,0.8,1
		c0,0.2,0,0.5-0.2,0.7c-0.2,0.3-0.4,0.5-0.7,0.7c-0.2,0.1-0.3,0.3-0.4,0.3c-0.1,0.1-0.2,0.1-0.2,0.2h1.7L177.3,164.9z"/>
	<path class="st0" d="M178.6,162.1l-1-0.2c0-0.3,0.2-0.6,0.4-0.8c0.3-0.2,0.6-0.3,1-0.3c0.4,0,0.8,0.1,1.1,0.3
		c0.2,0.2,0.4,0.4,0.4,0.7c0,0.2,0,0.3-0.1,0.5c-0.1,0.1-0.2,0.3-0.4,0.4c0.1,0,0.2,0.1,0.4,0.1c0.1,0.1,0.2,0.2,0.3,0.3
		c0.1,0.1,0.1,0.3,0.1,0.5c0,0.2,0,0.4-0.1,0.6c-0.1,0.2-0.3,0.4-0.5,0.5c-0.3,0.1-0.6,0.2-0.9,0.2c-0.3,0-0.6,0-0.8-0.1
		c-0.2-0.1-0.4-0.2-0.5-0.4c-0.2-0.2-0.3-0.4-0.4-0.6l1.1-0.1c0,0.2,0.1,0.3,0.2,0.4c0.1,0.1,0.2,0.1,0.4,0.1c0.1,0,0.3-0.1,0.3-0.2
		c0.1-0.1,0.1-0.3,0.1-0.4c0-0.2-0.1-0.3-0.2-0.4c-0.1-0.1-0.2-0.2-0.4-0.1c-0.1,0-0.2,0-0.4,0.1v-0.8h0.1c0.1,0,0.3,0,0.4-0.1
		c0.1-0.1,0.1-0.2,0.1-0.3c0-0.1,0-0.2-0.1-0.3c-0.1-0.1-0.2-0.1-0.3-0.1c-0.1,0-0.2,0-0.3,0.1C178.7,161.8,178.6,162,178.6,162.1z"
		/>
	<path class="st0" d="M193.6,164.9h-3.2c0-0.3,0.1-0.6,0.3-0.9c0.3-0.4,0.6-0.7,1-1c0.2-0.1,0.4-0.3,0.6-0.5
		c0.1-0.1,0.1-0.2,0.1-0.4c0-0.1-0.1-0.2-0.1-0.3c-0.1-0.1-0.2-0.1-0.3-0.1c-0.1,0-0.2,0-0.3,0.1c-0.1,0.1-0.1,0.3-0.1,0.5l-1.1-0.1
		c0-0.2,0.1-0.5,0.2-0.7c0.1-0.2,0.3-0.3,0.4-0.4c0.3-0.1,0.6-0.1,0.9-0.1c0.3,0,0.6,0,0.9,0.1c0.2,0.1,0.4,0.2,0.5,0.4
		c0.1,0.2,0.2,0.4,0.2,0.6c0,0.2,0,0.5-0.1,0.7c-0.2,0.3-0.4,0.5-0.7,0.7l-0.4,0.3c-0.1,0.1-0.2,0.1-0.2,0.2h1.7L193.6,164.9z"/>
	<path class="st0" d="M195.8,164.2h-2l-0.1-0.9l1.8-2.3h0.9l0.2,2.4h0.5l0.1,0.8h-0.5l0.1,0.7h-0.9L195.8,164.2z M195.8,163.3
		l-0.1-1.2l-0.9,1.2H195.8z"/>
	<path class="st0" d="M97.1,178.4h-3.2c0-0.3,0.1-0.6,0.3-0.9c0.3-0.4,0.6-0.7,1-1c0.2-0.2,0.4-0.3,0.6-0.5c0.1-0.1,0.1-0.2,0.1-0.3
		c0-0.1-0.1-0.2-0.1-0.3c-0.1-0.1-0.2-0.1-0.3-0.1c-0.1,0-0.2,0-0.3,0.1c-0.1,0.1-0.1,0.3-0.1,0.5l-1.1-0.1c0-0.2,0.1-0.5,0.2-0.7
		c0.1-0.2,0.3-0.3,0.4-0.4c0.3-0.1,0.6-0.2,0.9-0.1c0.3,0,0.6,0,0.9,0.1c0.2,0.1,0.4,0.2,0.5,0.4c0.1,0.2,0.2,0.4,0.2,0.6
		c0,0.2,0,0.5-0.1,0.7c-0.2,0.3-0.4,0.5-0.7,0.7l-0.4,0.3l-0.2,0.2H97L97.1,178.4z"/>
	<path class="st0" d="M97.7,174.6h2.6l0.1,0.9h-1.7v0.6c0.1-0.1,0.2-0.1,0.3-0.1c0.1,0,0.2,0,0.4,0c0.4,0,0.7,0.1,1,0.4
		c0.3,0.2,0.4,0.5,0.4,0.9c0,0.2,0,0.5-0.1,0.7c-0.1,0.2-0.3,0.4-0.5,0.5c-0.3,0.1-0.6,0.2-0.9,0.2c-0.2,0-0.4,0-0.7-0.1
		c-0.2,0-0.3-0.1-0.5-0.2c-0.1-0.1-0.2-0.2-0.3-0.3c-0.1-0.1-0.2-0.3-0.2-0.4l1.1-0.1c0,0.2,0.1,0.3,0.2,0.4
		c0.1,0.1,0.2,0.1,0.4,0.1c0.1,0,0.3-0.1,0.4-0.2c0.1-0.1,0.1-0.3,0.1-0.5c0-0.2-0.1-0.4-0.2-0.5c-0.1-0.1-0.3-0.2-0.4-0.2
		c-0.1,0-0.2,0-0.3,0.1c-0.1,0.1-0.2,0.1-0.2,0.2l-0.9-0.1L97.7,174.6z"/>
	<path class="st0" d="M113.3,178.4h-3.2c0-0.3,0.1-0.6,0.3-0.9c0.3-0.4,0.6-0.7,1-1c0.2-0.2,0.4-0.3,0.6-0.5
		c0.1-0.1,0.1-0.2,0.1-0.3c0-0.1-0.1-0.2-0.2-0.3c-0.1-0.1-0.2-0.1-0.3-0.1c-0.1,0-0.2,0-0.3,0.1c-0.1,0.1-0.1,0.3-0.1,0.5l-1.1-0.1
		c0-0.2,0.1-0.5,0.2-0.7c0.1-0.2,0.3-0.3,0.4-0.4c0.3-0.1,0.6-0.2,0.8-0.1c0.3,0,0.6,0,0.9,0.1c0.2,0.1,0.4,0.2,0.5,0.4
		c0.1,0.2,0.2,0.4,0.2,0.6c0,0.2,0,0.5-0.2,0.7c-0.2,0.3-0.4,0.5-0.7,0.7l-0.4,0.3l-0.2,0.2h1.7L113.3,178.4z"/>
	<path class="st0" d="M116.7,175.4l-1.1,0.1c0-0.1-0.1-0.2-0.2-0.3c-0.1-0.1-0.2-0.1-0.3-0.1c-0.2,0-0.3,0.1-0.4,0.3
		c-0.1,0.3-0.1,0.5-0.1,0.8c0.1-0.1,0.2-0.2,0.4-0.3c0.1-0.1,0.3-0.1,0.5-0.1c0.3,0,0.7,0.1,0.9,0.4c0.3,0.2,0.4,0.6,0.4,0.9
		c0,0.2,0,0.5-0.1,0.7c-0.1,0.2-0.3,0.4-0.5,0.5c-0.2,0.1-0.5,0.2-0.8,0.2c-0.3,0-0.7-0.1-0.9-0.2c-0.3-0.1-0.5-0.4-0.6-0.6
		c-0.2-0.4-0.3-0.8-0.3-1.1c-0.1-0.5,0-1.1,0.3-1.5c0.3-0.3,0.7-0.5,1.2-0.5c0.3,0,0.5,0,0.7,0.1c0.2,0.1,0.3,0.2,0.5,0.3
		C116.5,175.1,116.6,175.2,116.7,175.4z M114.8,177.2c0,0.2,0.1,0.4,0.2,0.5c0.1,0.1,0.2,0.2,0.4,0.2c0.1,0,0.3-0.1,0.4-0.2
		c0.1-0.1,0.1-0.3,0.1-0.5c0-0.2-0.1-0.4-0.2-0.5c-0.1-0.1-0.2-0.2-0.4-0.2c-0.1,0-0.3,0.1-0.4,0.2
		C114.8,176.8,114.8,177,114.8,177.2z"/>
	<path class="st0" d="M129.6,178.4h-3.2c0-0.3,0.1-0.6,0.3-0.9c0.3-0.4,0.6-0.7,1-1c0.2-0.1,0.4-0.3,0.6-0.5
		c0.1-0.1,0.1-0.2,0.1-0.3c0-0.1-0.1-0.2-0.1-0.3c-0.1-0.1-0.2-0.1-0.3-0.1c-0.1,0-0.2,0-0.3,0.1c-0.1,0.1-0.1,0.3-0.1,0.5l-1.1-0.1
		c0-0.2,0.1-0.5,0.2-0.7c0.1-0.2,0.3-0.3,0.4-0.4c0.3-0.1,0.6-0.2,0.8-0.1c0.3,0,0.6,0,0.9,0.1c0.2,0.1,0.4,0.2,0.5,0.4
		c0.1,0.2,0.2,0.4,0.2,0.6c0,0.2,0,0.5-0.1,0.7c-0.2,0.3-0.4,0.5-0.7,0.7l-0.4,0.3l-0.2,0.2h1.7L129.6,178.4z"/>
	<path class="st0" d="M129.8,174.6h3.1l0.1,0.7c-0.2,0.2-0.5,0.5-0.6,0.8c-0.2,0.4-0.3,0.8-0.4,1.2c-0.1,0.4-0.1,0.8-0.1,1.2h-1.1
		c0-0.5,0.1-1.1,0.3-1.6c0.2-0.5,0.4-1,0.8-1.4h-1.9L129.8,174.6z"/>
	<path class="st0" d="M145.8,178.4h-3.2c0-0.3,0.1-0.6,0.3-0.9c0.3-0.4,0.6-0.7,1-1c0.2-0.2,0.4-0.3,0.6-0.5
		c0.1-0.1,0.1-0.2,0.1-0.3c0-0.1-0.1-0.2-0.2-0.3c-0.1-0.1-0.2-0.1-0.3-0.1c-0.1,0-0.2,0-0.3,0.1c-0.1,0.1-0.2,0.3-0.1,0.5l-1.1-0.1
		c0-0.2,0.1-0.5,0.2-0.7c0.1-0.2,0.3-0.3,0.4-0.4c0.3-0.1,0.6-0.2,0.8-0.1c0.3,0,0.6,0,0.9,0.1c0.4,0.2,0.7,0.5,0.8,1
		c0,0.2,0,0.5-0.2,0.7c-0.2,0.3-0.4,0.5-0.7,0.7c-0.1,0.1-0.3,0.2-0.4,0.3l-0.2,0.2h1.7L145.8,178.4z"/>
	<path class="st0" d="M146.8,176.3c-0.2-0.1-0.3-0.2-0.4-0.3c-0.1-0.2-0.2-0.3-0.2-0.5c0-0.3,0.1-0.6,0.4-0.8
		c0.3-0.2,0.6-0.3,0.9-0.2c0.4,0,0.8,0.1,1.2,0.3c0.2,0.2,0.4,0.4,0.4,0.7c0,0.2,0,0.3-0.1,0.5c-0.1,0.1-0.2,0.2-0.3,0.3
		c0.2,0.1,0.4,0.2,0.5,0.4c0.1,0.2,0.2,0.4,0.2,0.6c0,0.2,0,0.4-0.1,0.5c-0.1,0.2-0.2,0.3-0.3,0.4c-0.1,0.1-0.3,0.2-0.5,0.2
		c-0.2,0-0.4,0.1-0.6,0.1c-0.3,0-0.7,0-1-0.1c-0.2-0.1-0.4-0.2-0.5-0.4c-0.1-0.2-0.2-0.4-0.2-0.6
		C146.1,176.9,146.4,176.5,146.8,176.3L146.8,176.3z M147.3,177.3c0,0.2,0.1,0.3,0.2,0.4c0.1,0.1,0.2,0.2,0.4,0.2
		c0.1,0,0.3-0.1,0.3-0.2c0.1-0.1,0.1-0.3,0.1-0.4c0-0.2-0.1-0.3-0.2-0.4c-0.1-0.1-0.2-0.2-0.4-0.2c-0.1,0-0.3,0.1-0.3,0.2
		C147.3,176.9,147.3,177.1,147.3,177.3L147.3,177.3z M147.2,175.6c0,0.1,0.1,0.2,0.1,0.3c0.1,0.1,0.2,0.1,0.4,0.1
		c0.1,0,0.2,0,0.3-0.1c0.1-0.1,0.1-0.2,0.1-0.3c0-0.1-0.1-0.2-0.1-0.3c-0.1-0.1-0.2-0.1-0.3-0.1c-0.1,0-0.2,0-0.3,0.1
		C147.2,175.4,147.2,175.5,147.2,175.6L147.2,175.6z"/>
	<path class="st0" d="M162.1,178.4h-3.2c0-0.3,0.1-0.6,0.3-0.9c0.3-0.4,0.6-0.7,1-1c0.2-0.2,0.4-0.3,0.6-0.5
		c0.1-0.1,0.1-0.2,0.1-0.3c0-0.1-0.1-0.2-0.1-0.3c-0.1-0.1-0.2-0.1-0.3-0.1c-0.1,0-0.2,0-0.3,0.1c-0.1,0.1-0.1,0.3-0.1,0.5l-1.1-0.1
		c0-0.2,0.1-0.5,0.2-0.7c0.1-0.2,0.3-0.3,0.4-0.4c0.3-0.1,0.6-0.2,0.8-0.1c0.3,0,0.6,0,0.9,0.1c0.2,0.1,0.4,0.2,0.5,0.4
		c0.3,0.4,0.3,0.9,0.1,1.3c-0.2,0.3-0.4,0.5-0.7,0.7l-0.4,0.3l-0.2,0.2h1.7L162.1,178.4z"/>
	<path class="st0" d="M162.5,177.6l1.1-0.1c0,0.1,0.1,0.2,0.2,0.3c0.1,0.1,0.2,0.1,0.3,0.1c0.2,0,0.3-0.1,0.4-0.3
		c0.1-0.3,0.1-0.5,0.1-0.8c-0.2,0.3-0.5,0.4-0.8,0.4c-0.3,0-0.7-0.1-0.9-0.4c-0.3-0.2-0.4-0.6-0.4-0.9c0-0.2,0-0.5,0.1-0.7
		c0.1-0.2,0.3-0.4,0.5-0.5c0.2-0.1,0.5-0.2,0.8-0.2c0.3,0,0.7,0.1,0.9,0.2c0.3,0.2,0.5,0.4,0.6,0.6c0.2,0.4,0.3,0.7,0.3,1.1
		c0.1,0.5,0,1.1-0.3,1.5c-0.3,0.3-0.7,0.5-1.2,0.5c-0.3,0-0.5,0-0.7-0.1c-0.2-0.1-0.3-0.2-0.5-0.3
		C162.7,177.9,162.6,177.7,162.5,177.6z M164.4,175.8c0-0.2-0.1-0.4-0.2-0.5c-0.1-0.1-0.2-0.2-0.4-0.2c-0.1,0-0.3,0.1-0.3,0.2
		c-0.1,0.1-0.1,0.3-0.1,0.5c0,0.2,0.1,0.4,0.2,0.5c0.1,0.1,0.2,0.2,0.4,0.2c0.1,0,0.3-0.1,0.4-0.2
		C164.4,176.2,164.4,176,164.4,175.8L164.4,175.8z"/>
	<path class="st0" d="M176,175.7l-1-0.2c0-0.3,0.2-0.6,0.4-0.8c0.3-0.2,0.6-0.3,1-0.3c0.4,0,0.8,0.1,1.1,0.3
		c0.2,0.2,0.4,0.4,0.4,0.7c0,0.2,0,0.3-0.1,0.4c-0.1,0.2-0.2,0.3-0.4,0.4c0.1,0,0.2,0.1,0.4,0.1c0.1,0.1,0.2,0.2,0.3,0.3
		c0.1,0.1,0.1,0.3,0.1,0.5c0,0.2,0,0.4-0.1,0.6c-0.1,0.2-0.3,0.4-0.5,0.5c-0.3,0.1-0.6,0.2-0.9,0.2c-0.3,0-0.6,0-0.8-0.1
		c-0.2-0.1-0.4-0.2-0.5-0.4c-0.2-0.2-0.3-0.4-0.4-0.6l1.1-0.1c0,0.2,0.1,0.3,0.2,0.4c0.1,0.1,0.2,0.1,0.4,0.1c0.1,0,0.3-0.1,0.4-0.2
		c0.1-0.1,0.1-0.3,0.1-0.4c0-0.2-0.1-0.3-0.2-0.4c-0.1-0.1-0.2-0.2-0.4-0.1c-0.1,0-0.2,0-0.3,0.1V176h0.1c0.1,0,0.3,0,0.4-0.1
		c0.1-0.1,0.1-0.2,0.1-0.3c0-0.1-0.1-0.2-0.1-0.3c-0.1-0.1-0.2-0.1-0.3-0.1c-0.1,0-0.2,0-0.3,0.1C176.1,175.4,176,175.5,176,175.7z"
		/>
	<path class="st0" d="M178.7,176.5c-0.1-0.5,0-1.1,0.3-1.6c0.3-0.3,0.7-0.5,1.2-0.4c0.2,0,0.4,0,0.6,0.1c0.2,0.1,0.3,0.1,0.4,0.3
		c0.1,0.1,0.2,0.2,0.3,0.3c0.1,0.1,0.1,0.3,0.2,0.4c0.1,0.3,0.2,0.6,0.2,0.9c0.1,0.5,0,1.1-0.2,1.5c-0.3,0.4-0.7,0.5-1.2,0.5
		c-0.3,0-0.5,0-0.8-0.1c-0.2-0.1-0.4-0.3-0.5-0.5c-0.1-0.2-0.2-0.4-0.3-0.6C178.7,177,178.7,176.8,178.7,176.5z M179.7,176.5
		c0,0.3,0.1,0.7,0.2,1c0.1,0.2,0.2,0.3,0.4,0.3c0.1,0,0.2,0,0.3-0.1c0.1-0.1,0.1-0.2,0.1-0.4c0-0.3,0-0.5,0-0.8c0-0.3-0.1-0.7-0.2-1
		c-0.1-0.2-0.2-0.3-0.4-0.3c-0.2,0-0.3,0.1-0.4,0.3C179.7,175.8,179.7,176.2,179.7,176.5z"/>
	<path class="st0" d="M192.3,175.7l-1-0.2c0-0.3,0.2-0.6,0.4-0.8c0.3-0.2,0.6-0.3,1-0.3c0.4,0,0.8,0.1,1.1,0.3
		c0.2,0.2,0.4,0.4,0.4,0.7c0,0.2,0,0.3-0.1,0.4c-0.1,0.2-0.2,0.3-0.4,0.4c0.1,0,0.2,0.1,0.4,0.1c0.1,0.1,0.2,0.2,0.3,0.3
		c0.1,0.1,0.1,0.3,0.1,0.5c0,0.2,0,0.5-0.1,0.6c-0.1,0.2-0.3,0.4-0.5,0.5c-0.3,0.1-0.6,0.2-0.9,0.2c-0.3,0-0.6,0-0.9-0.1
		c-0.2-0.1-0.4-0.2-0.5-0.4c-0.2-0.2-0.3-0.4-0.4-0.6l1.1-0.1c0,0.2,0.1,0.3,0.2,0.4c0.1,0.1,0.2,0.1,0.4,0.1c0.1,0,0.3-0.1,0.4-0.2
		c0.1-0.1,0.1-0.3,0.1-0.4c0-0.2-0.1-0.3-0.2-0.4c-0.1-0.1-0.2-0.2-0.4-0.1c-0.1,0-0.2,0-0.3,0.1V176h0.1c0.1,0,0.3,0,0.3-0.1
		c0.2-0.2,0.2-0.4,0-0.6c0,0,0,0,0,0c-0.1-0.1-0.2-0.1-0.3-0.1c-0.1,0-0.2,0-0.3,0.1C192.4,175.4,192.3,175.5,192.3,175.7z"/>
	<path class="st0" d="M197.2,174.5l0.3,3.9h-1.1l-0.2-2.6c-0.3,0.3-0.7,0.5-1.1,0.6l-0.1-0.9c0.3-0.1,0.6-0.2,0.8-0.4
		c0.2-0.2,0.3-0.4,0.4-0.6H197.2z"/>
	<g class="st6">
		<path class="st7" d="M86.8,113.6l-0.3-4.7h0.9l1.3,3.3c0.1,0.3,0.2,0.5,0.3,0.7c0-0.2,0.1-0.4,0.2-0.8l0.9-3.2h0.8l0.4,4.7h-0.6
			l-0.3-3.9l-1.1,3.9h-0.6l-1.6-4l0.3,4H86.8z"/>
		<path class="st7" d="M91.8,111.9c-0.1-0.5,0.1-1,0.4-1.4c0.3-0.2,0.6-0.4,1-0.4c0.4,0,0.9,0.2,1.2,0.4c0.3,0.3,0.5,0.8,0.5,1.3
			c0,0.3,0,0.7-0.1,1c-0.1,0.2-0.3,0.4-0.5,0.6c-0.2,0.1-0.5,0.2-0.8,0.2c-0.4,0-0.9-0.2-1.2-0.5C92,112.8,91.8,112.4,91.8,111.9z
			 M92.4,111.9c0,0.4,0.1,0.7,0.4,1c0.2,0.2,0.5,0.3,0.7,0.3c0.3,0,0.5-0.1,0.7-0.3c0.2-0.3,0.3-0.7,0.2-1c0-0.3-0.1-0.7-0.4-0.9
			c-0.2-0.2-0.5-0.3-0.7-0.3c-0.3,0-0.5,0.1-0.7,0.3C92.4,111.2,92.4,111.6,92.4,111.9L92.4,111.9z"/>
		<path class="st7" d="M95.8,113.6l-0.3-3.4h0.5v0.5c0.2-0.4,0.6-0.6,1-0.6c0.2,0,0.4,0,0.6,0.1c0.2,0.1,0.3,0.2,0.4,0.3
			c0.1,0.1,0.2,0.3,0.2,0.4c0,0.2,0.1,0.4,0.1,0.6l0.1,2.1h-0.6l-0.1-2.1c0-0.2,0-0.4-0.1-0.5c-0.1-0.1-0.1-0.2-0.3-0.3
			c-0.1-0.1-0.3-0.1-0.4-0.1c-0.2,0-0.5,0.1-0.6,0.2c-0.2,0.3-0.3,0.6-0.2,0.9l0.1,1.8L95.8,113.6z"/>
	</g>
	<g class="st6">
		<path class="st7" d="M104.7,113.6l-0.3-4.1h-1.5v-0.6h3.7v0.6H105l0.3,4.1H104.7z"/>
		<path class="st7" d="M109.4,113.6v-0.5c-0.2,0.4-0.6,0.6-1,0.6c-0.2,0-0.4,0-0.6-0.1c-0.2-0.1-0.3-0.2-0.4-0.3
			c-0.1-0.1-0.2-0.3-0.2-0.4c0-0.2-0.1-0.4-0.1-0.5l-0.2-2.1h0.6l0.1,1.9c0,0.2,0,0.4,0.1,0.6c0,0.1,0.1,0.3,0.3,0.4
			c0.1,0.1,0.3,0.1,0.4,0.1c0.2,0,0.3,0,0.5-0.1c0.1-0.1,0.2-0.2,0.3-0.4c0.1-0.2,0.1-0.4,0.1-0.7l-0.1-1.8h0.6l0.3,3.4L109.4,113.6
			z"/>
		<path class="st7" d="M113.1,112.5l0.6,0.1c-0.1,0.3-0.2,0.6-0.5,0.8c-0.3,0.2-0.6,0.3-0.9,0.3c-0.4,0-0.9-0.1-1.2-0.5
			c-0.3-0.3-0.5-0.8-0.5-1.3c-0.1-0.5,0.1-0.9,0.3-1.3c0.3-0.3,0.7-0.5,1.1-0.5c0.4,0,0.8,0.2,1.1,0.5c0.3,0.4,0.5,0.8,0.5,1.3
			c0,0,0,0.1,0,0.1h-2.5c0,0.3,0.2,0.6,0.4,0.9c0.2,0.2,0.5,0.3,0.7,0.3c0.2,0,0.4-0.1,0.5-0.2C112.9,112.9,113,112.7,113.1,112.5z
			 M111.1,111.6h1.9c0-0.2-0.1-0.5-0.3-0.6c-0.2-0.2-0.5-0.3-0.7-0.3c-0.2,0-0.5,0.1-0.6,0.3C111.2,111.1,111.1,111.3,111.1,111.6
			L111.1,111.6z"/>
	</g>
	<g class="st6">
		<path class="st7" d="M119.6,113.6l-1.6-4.7h0.6l0.9,3.1c0.1,0.3,0.2,0.6,0.3,1c0.1-0.5,0.1-0.8,0.1-0.9l0.6-3.1h0.8l0.8,2.4
			c0.2,0.5,0.4,1.1,0.5,1.6c0-0.3,0.1-0.6,0.2-1l0.5-3h0.6l-0.9,4.7h-0.6l-1.3-3.6c-0.1-0.3-0.2-0.5-0.2-0.6c0,0.2-0.1,0.4-0.1,0.6
			l-0.7,3.6L119.6,113.6z"/>
		<path class="st7" d="M127,112.5l0.6,0.1c-0.1,0.3-0.2,0.6-0.5,0.8c-0.3,0.2-0.6,0.3-1,0.3c-0.4,0-0.9-0.1-1.2-0.5
			c-0.3-0.3-0.5-0.8-0.5-1.3c-0.1-0.5,0.1-0.9,0.3-1.3c0.3-0.3,0.7-0.5,1.1-0.5c0.4,0,0.8,0.2,1.1,0.5c0.3,0.4,0.5,0.8,0.5,1.3
			c0,0,0,0.1,0,0.1H125c0,0.3,0.2,0.6,0.4,0.9c0.2,0.2,0.5,0.3,0.7,0.3c0.2,0,0.4-0.1,0.5-0.2C126.8,112.9,126.9,112.7,127,112.5z
			 M125,111.6h1.9c0-0.2-0.1-0.5-0.3-0.6c-0.2-0.2-0.5-0.3-0.7-0.3c-0.2,0-0.5,0.1-0.6,0.3C125.1,111.1,125,111.3,125,111.6
			L125,111.6z"/>
		<path class="st7" d="M130.6,113.6v-0.4c-0.2,0.3-0.5,0.5-0.9,0.5c-0.3,0-0.5-0.1-0.8-0.2c-0.2-0.2-0.4-0.4-0.6-0.6
			c-0.1-0.3-0.2-0.6-0.3-0.9c0-0.3,0-0.6,0.1-0.9c0.1-0.3,0.2-0.5,0.5-0.6c0.2-0.1,0.5-0.2,0.7-0.2c0.2,0,0.4,0,0.6,0.1
			c0.2,0.1,0.3,0.2,0.4,0.3l-0.1-1.7h0.6l0.4,4.7H130.6z M128.6,111.9c0,0.4,0.1,0.7,0.3,1c0.2,0.2,0.4,0.3,0.7,0.3
			c0.2,0,0.5-0.1,0.6-0.3c0.2-0.3,0.2-0.6,0.2-0.9c0-0.4-0.1-0.7-0.3-1c-0.2-0.2-0.4-0.3-0.7-0.3c-0.2,0-0.5,0.1-0.6,0.3
			C128.6,111.3,128.6,111.6,128.6,111.9L128.6,111.9z"/>
	</g>
	<g class="st6">
		<path class="st7" d="M137.6,113.6l-0.3-4.1h-1.5v-0.6h3.7v0.6h-1.5l0.3,4.1H137.6z"/>
		<path class="st7" d="M140.3,113.6l-0.4-4.7h0.6l0.1,1.7c0.2-0.3,0.6-0.5,1-0.5c0.2,0,0.5,0,0.7,0.1c0.2,0.1,0.3,0.2,0.4,0.4
			c0.1,0.2,0.2,0.5,0.2,0.8l0.2,2.1h-0.6l-0.2-2.1c0-0.2-0.1-0.4-0.2-0.6c-0.1-0.1-0.3-0.2-0.5-0.2c-0.2,0-0.3,0-0.5,0.1
			c-0.1,0.1-0.2,0.2-0.3,0.4c-0.1,0.2-0.1,0.4-0.1,0.6l0.1,1.9L140.3,113.6z"/>
		<path class="st7" d="M146.1,113.6v-0.5c-0.2,0.4-0.6,0.6-1,0.6c-0.2,0-0.4,0-0.6-0.1c-0.2-0.1-0.3-0.2-0.4-0.3
			c-0.1-0.1-0.2-0.3-0.2-0.4c0-0.2-0.1-0.4-0.1-0.5l-0.2-2.1h0.6l0.1,1.9c0,0.2,0,0.4,0.1,0.6c0,0.1,0.1,0.3,0.3,0.4
			c0.1,0.1,0.3,0.1,0.4,0.1c0.2,0,0.3,0,0.5-0.1c0.1-0.1,0.2-0.2,0.3-0.4c0-0.2,0-0.4,0-0.7l-0.1-1.8h0.6l0.3,3.4L146.1,113.6z"/>
	</g>
	<g class="st6">
		<path class="st7" d="M154.3,113.6l-0.4-4.7h3.1v0.6h-2.5l0.1,1.4h2.2v0.6h-2.1l0.2,2.1H154.3z"/>
		<path class="st7" d="M158.2,113.6l-0.3-3.4h0.5v0.5c0.1-0.2,0.2-0.3,0.3-0.5c0.1-0.1,0.2-0.1,0.4-0.1c0.2,0,0.4,0.1,0.6,0.2
			l-0.1,0.5c-0.1-0.1-0.3-0.1-0.4-0.1c-0.3,0-0.5,0.2-0.5,0.4c-0.1,0.2-0.1,0.4-0.1,0.7l0.1,1.8H158.2z"/>
		<path class="st7" d="M160.1,109.6l-0.1-0.7h0.6v0.7H160.1z M160.4,113.6l-0.3-3.4h0.6l0.3,3.4H160.4z"/>
	</g>
	<g class="st6">
		<path class="st7" d="M168.7,112.1l0.6-0.1c0,0.2,0.1,0.4,0.2,0.6c0.1,0.2,0.3,0.3,0.5,0.4c0.2,0.1,0.5,0.1,0.7,0.1
			c0.2,0,0.4,0,0.6-0.1c0.2-0.1,0.3-0.1,0.4-0.3c0.1-0.1,0.1-0.3,0.1-0.4c0-0.1-0.1-0.3-0.2-0.4c-0.1-0.1-0.3-0.2-0.4-0.3
			c-0.3-0.1-0.6-0.2-0.9-0.2c-0.3-0.1-0.6-0.2-0.9-0.3c-0.2-0.1-0.4-0.2-0.5-0.4c-0.1-0.2-0.2-0.4-0.2-0.6c0-0.5,0.2-0.9,0.7-1.1
			c0.3-0.1,0.6-0.2,0.9-0.2c0.3,0,0.6,0.1,0.9,0.2c0.3,0.1,0.5,0.3,0.6,0.5c0.2,0.2,0.3,0.5,0.3,0.7l-0.6,0.1c0-0.3-0.2-0.5-0.4-0.7
			c-0.2-0.2-0.5-0.2-0.8-0.2c-0.3,0-0.6,0-0.8,0.2c-0.1,0.1-0.2,0.3-0.2,0.5c0,0.2,0.1,0.3,0.2,0.4c0.3,0.2,0.6,0.3,0.9,0.3
			c0.4,0.1,0.7,0.2,1.1,0.3c0.2,0.1,0.5,0.3,0.6,0.5c0.1,0.2,0.2,0.4,0.3,0.7c0,0.2,0,0.5-0.2,0.7c-0.1,0.2-0.3,0.4-0.6,0.5
			c-0.3,0.1-0.6,0.2-0.9,0.2c-0.4,0-0.7-0.1-1.1-0.2C169.1,113.3,168.7,112.7,168.7,112.1L168.7,112.1z"/>
		<path class="st7" d="M175.4,113.2c-0.2,0.2-0.4,0.3-0.6,0.4c-0.2,0.1-0.4,0.1-0.6,0.1c-0.3,0-0.6-0.1-0.9-0.3
			c-0.2-0.2-0.3-0.4-0.4-0.7c0-0.2,0-0.3,0.1-0.4c0.1-0.1,0.2-0.2,0.3-0.3c0.1-0.1,0.3-0.1,0.4-0.2c0.2,0,0.3-0.1,0.5-0.1
			c0.3,0,0.7-0.1,1-0.2c0,0,0-0.1,0-0.1c0-0.2-0.1-0.4-0.2-0.5c-0.2-0.1-0.4-0.2-0.7-0.2c-0.2,0-0.4,0-0.6,0.1
			c-0.1,0.1-0.2,0.3-0.3,0.5l-0.6-0.1c0-0.2,0.1-0.4,0.2-0.6c0.1-0.2,0.3-0.3,0.5-0.3c0.5-0.1,1-0.1,1.5,0c0.2,0.1,0.3,0.1,0.4,0.3
			c0.1,0.1,0.2,0.2,0.2,0.4c0,0.2,0.1,0.3,0.1,0.5l0.1,0.8c0,0.3,0.1,0.7,0.1,1c0,0.1,0.1,0.3,0.2,0.4h-0.6
			C175.5,113.5,175.4,113.3,175.4,113.2z M175.3,111.9c-0.3,0.1-0.6,0.2-0.9,0.2c-0.2,0-0.3,0.1-0.5,0.1c-0.1,0-0.2,0.1-0.2,0.2
			c0,0.1-0.1,0.2-0.1,0.3c0,0.2,0.1,0.3,0.2,0.4c0.1,0.1,0.3,0.2,0.5,0.1c0.2,0,0.4,0,0.6-0.1c0.2-0.1,0.3-0.2,0.4-0.4
			c0-0.2,0-0.4,0-0.6L175.3,111.9z"/>
		<path class="st7" d="M178.1,113.1l0.1,0.5c-0.1,0-0.3,0-0.4,0c-0.2,0-0.3,0-0.5-0.1c-0.1-0.1-0.2-0.2-0.3-0.3
			c-0.1-0.2-0.1-0.4-0.1-0.7l-0.1-1.9h-0.4v-0.4h0.4l-0.1-0.8l0.5-0.4l0.1,1.2h0.6v0.4h-0.6l0.1,2c0,0.1,0,0.2,0.1,0.3
			c0,0,0.1,0.1,0.1,0.1c0.1,0,0.1,0,0.2,0C177.9,113.1,178,113.1,178.1,113.1z"/>
	</g>
	<g class="st6">
		<path class="st7" d="M184.9,112.1l0.6-0.1c0,0.2,0.1,0.4,0.2,0.6c0.1,0.2,0.3,0.3,0.5,0.4c0.2,0.1,0.5,0.1,0.7,0.1
			c0.2,0,0.4,0,0.6-0.1c0.2-0.1,0.3-0.1,0.4-0.3c0.1-0.1,0.1-0.3,0.1-0.4c0-0.1-0.1-0.3-0.1-0.4c-0.1-0.1-0.3-0.2-0.4-0.3
			c-0.3-0.1-0.6-0.2-0.9-0.2c-0.3-0.1-0.6-0.2-0.9-0.3c-0.2-0.1-0.4-0.2-0.5-0.4c-0.1-0.2-0.2-0.4-0.2-0.6c0-0.5,0.2-0.9,0.7-1.1
			c0.3-0.1,0.6-0.2,0.8-0.2c0.3,0,0.6,0.1,0.9,0.2c0.5,0.2,0.9,0.7,0.9,1.2l-0.6,0.1c0-0.3-0.2-0.5-0.4-0.7
			c-0.2-0.2-0.5-0.2-0.8-0.2c-0.3,0-0.6,0-0.8,0.2c-0.1,0.1-0.2,0.3-0.2,0.5c0,0.2,0.1,0.3,0.2,0.4c0.3,0.2,0.6,0.3,1,0.3
			c0.3,0.1,0.7,0.2,1,0.3c0.3,0.1,0.5,0.3,0.6,0.5c0.1,0.2,0.2,0.4,0.2,0.7c0,0.2,0,0.5-0.2,0.7c-0.1,0.2-0.3,0.4-0.6,0.5
			c-0.3,0.1-0.6,0.2-0.9,0.2c-0.4,0-0.7-0.1-1.1-0.2C185.3,113.3,185,112.7,184.9,112.1L184.9,112.1z"/>
		<path class="st7" d="M191.7,113.6v-0.5c-0.2,0.4-0.6,0.6-1,0.6c-0.2,0-0.4,0-0.6-0.1c-0.2-0.1-0.3-0.2-0.4-0.3
			c-0.1-0.1-0.2-0.3-0.2-0.4c0-0.2-0.1-0.4-0.1-0.5l-0.1-2.1h0.6l0.1,1.9c0,0.2,0,0.4,0.1,0.6c0,0.1,0.1,0.3,0.3,0.4
			c0.1,0.1,0.3,0.1,0.4,0.1c0.2,0,0.3,0,0.5-0.1c0.1-0.1,0.2-0.2,0.3-0.4c0.1-0.2,0.1-0.4,0.1-0.7l-0.1-1.8h0.6l0.3,3.4L191.7,113.6
			z"/>
		<path class="st7" d="M193.1,113.6l-0.3-3.4h0.6v0.5c0.2-0.4,0.6-0.6,1-0.6c0.2,0,0.4,0,0.6,0.1c0.2,0.1,0.3,0.2,0.4,0.3
			c0.1,0.1,0.2,0.3,0.2,0.4c0,0.2,0.1,0.4,0.1,0.6l0.1,2.1h-0.6l-0.1-2.1c0-0.2,0-0.4-0.1-0.5c-0.1-0.1-0.1-0.2-0.3-0.3
			c-0.1-0.1-0.3-0.1-0.4-0.1c-0.2,0-0.4,0.1-0.6,0.2c-0.2,0.3-0.3,0.6-0.2,0.9l0.1,1.8L193.1,113.6z"/>
	</g>
	<g class="st6">
		<path class="st7" d="M220,113.6l-0.4-4.7h0.9l1.4,3.3c0.1,0.3,0.2,0.5,0.3,0.7c0-0.2,0.1-0.4,0.2-0.8l0.9-3.2h0.8l0.4,4.7h-0.6
			l-0.3-3.9l-1.1,3.9H222l-1.6-4l0.3,4H220z"/>
		<path class="st7" d="M225.1,111.9c-0.1-0.5,0.1-1,0.4-1.4c0.3-0.2,0.6-0.4,1-0.4c0.4,0,0.9,0.2,1.2,0.4c0.3,0.3,0.5,0.8,0.5,1.3
			c0,0.3,0,0.7-0.1,1c-0.1,0.2-0.3,0.4-0.5,0.6c-0.2,0.1-0.5,0.2-0.8,0.2c-0.4,0-0.9-0.2-1.2-0.5
			C225.3,112.8,225.1,112.4,225.1,111.9z M225.7,111.9c0,0.4,0.1,0.7,0.4,1c0.2,0.2,0.5,0.3,0.7,0.3c0.3,0,0.5-0.1,0.7-0.3
			c0.2-0.3,0.3-0.7,0.2-1c0-0.3-0.1-0.7-0.4-0.9c-0.2-0.2-0.5-0.3-0.7-0.3c-0.3,0-0.5,0.1-0.7,0.3
			C225.7,111.2,225.6,111.6,225.7,111.9z"/>
		<path class="st7" d="M229,113.6l-0.3-3.4h0.5v0.5c0.2-0.4,0.6-0.6,1-0.6c0.2,0,0.4,0,0.6,0.1c0.2,0.1,0.3,0.2,0.4,0.3
			c0.1,0.1,0.2,0.3,0.2,0.4c0,0.2,0.1,0.4,0.1,0.6l0.1,2.1h-0.6l-0.1-2.1c0-0.2,0-0.4-0.1-0.5c-0.1-0.1-0.1-0.2-0.3-0.3
			c-0.1-0.1-0.3-0.1-0.4-0.1c-0.2,0-0.5,0.1-0.6,0.2c-0.2,0.3-0.3,0.6-0.2,0.9l0.1,1.8L229,113.6z"/>
	</g>
	<g class="st6">
		<path class="st7" d="M238,113.6l-0.3-4.1h-1.5l0-0.6h3.7v0.6h-1.5l0.3,4.1H238z"/>
		<path class="st7" d="M242.7,113.6v-0.5c-0.2,0.4-0.6,0.6-1,0.6c-0.2,0-0.4,0-0.6-0.1c-0.2-0.1-0.3-0.2-0.4-0.3
			c-0.1-0.1-0.2-0.3-0.2-0.4c0-0.2-0.1-0.4-0.1-0.5l-0.2-2.1h0.6l0.1,1.9c0,0.2,0,0.4,0.1,0.6c0,0.1,0.1,0.3,0.3,0.4
			c0.1,0.1,0.3,0.1,0.4,0.1c0.2,0,0.3,0,0.5-0.1c0.1-0.1,0.2-0.2,0.3-0.4c0.1-0.2,0.1-0.4,0-0.7l-0.1-1.8h0.6l0.3,3.4L242.7,113.6z"
			/>
		<path class="st7" d="M246.3,112.5l0.6,0.1c-0.1,0.3-0.2,0.6-0.5,0.8c-0.3,0.2-0.6,0.3-0.9,0.3c-0.4,0-0.9-0.1-1.2-0.5
			c-0.3-0.3-0.5-0.8-0.5-1.3c-0.1-0.5,0-0.9,0.3-1.3c0.3-0.3,0.7-0.5,1.1-0.5c0.4,0,0.8,0.2,1.1,0.5c0.3,0.4,0.5,0.8,0.5,1.3
			c0,0,0,0.1,0,0.1h-2.5c0,0.3,0.2,0.6,0.4,0.9c0.2,0.2,0.5,0.3,0.7,0.3c0.2,0,0.4-0.1,0.5-0.2C246.2,112.9,246.3,112.7,246.3,112.5
			z M244.3,111.6h1.9c0-0.2-0.1-0.5-0.3-0.6c-0.2-0.2-0.5-0.3-0.7-0.3c-0.2,0-0.5,0.1-0.6,0.3C244.4,111.1,244.3,111.3,244.3,111.6z
			"/>
	</g>
	<g class="st6">
		<path class="st7" d="M252.8,113.6l-1.6-4.7h0.6l0.9,3.1c0.1,0.3,0.2,0.6,0.3,1c0.1-0.5,0.1-0.8,0.1-0.9l0.6-3.1h0.8l0.8,2.4
			c0.2,0.5,0.4,1.1,0.5,1.6c0-0.3,0.1-0.6,0.2-1l0.5-3h0.6l-0.9,4.7h-0.6l-1.3-3.6c-0.1-0.3-0.2-0.5-0.2-0.6c0,0.2-0.1,0.4-0.1,0.6
			l-0.7,3.6L252.8,113.6z"/>
		<path class="st7" d="M260.2,112.5l0.6,0.1c-0.1,0.3-0.2,0.6-0.5,0.8c-0.3,0.2-0.6,0.3-1,0.3c-0.4,0-0.9-0.1-1.2-0.5
			c-0.3-0.3-0.5-0.8-0.5-1.3c-0.1-0.5,0.1-0.9,0.3-1.3c0.3-0.3,0.7-0.5,1.1-0.5c0.4,0,0.8,0.2,1.1,0.5c0.3,0.4,0.5,0.8,0.5,1.3
			c0,0,0,0.1,0,0.1h-2.5c0,0.3,0.2,0.6,0.4,0.9c0.2,0.2,0.5,0.3,0.7,0.3c0.2,0,0.4-0.1,0.5-0.2C260.1,112.9,260.2,112.7,260.2,112.5
			z M258.3,111.6h1.9c0-0.2-0.1-0.5-0.3-0.6c-0.2-0.2-0.5-0.3-0.7-0.3c-0.2,0-0.5,0.1-0.6,0.3C258.3,111.1,258.3,111.3,258.3,111.6z
			"/>
		<path class="st7" d="M263.8,113.6v-0.4c-0.2,0.3-0.5,0.5-0.9,0.5c-0.3,0-0.5-0.1-0.8-0.2c-0.2-0.2-0.4-0.4-0.6-0.6
			c-0.1-0.3-0.2-0.6-0.3-0.9c0-0.3,0-0.6,0.1-0.9c0.1-0.3,0.2-0.5,0.5-0.6c0.2-0.1,0.5-0.2,0.7-0.2c0.2,0,0.4,0,0.6,0.1
			c0.2,0.1,0.3,0.2,0.4,0.3l-0.1-1.7h0.6l0.4,4.7H263.8z M261.9,111.9c0,0.4,0.1,0.7,0.3,1c0.2,0.2,0.4,0.3,0.7,0.3
			c0.2,0,0.5-0.1,0.6-0.3c0.2-0.3,0.2-0.6,0.2-0.9c0-0.4-0.1-0.7-0.3-1c-0.2-0.2-0.4-0.3-0.7-0.3c-0.2,0-0.5,0.1-0.6,0.3
			C261.9,111.3,261.8,111.6,261.9,111.9L261.9,111.9z"/>
	</g>
	<g class="st6">
		<path class="st7" d="M270.8,113.6l-0.3-4.1H269v-0.6h3.7v0.6h-1.5l0.3,4.1H270.8z"/>
		<path class="st7" d="M273.5,113.6l-0.4-4.7h0.6l0.1,1.7c0.2-0.3,0.6-0.5,1-0.5c0.2,0,0.5,0,0.7,0.1c0.2,0.1,0.3,0.2,0.4,0.4
			c0.1,0.2,0.2,0.5,0.2,0.8l0.2,2.1h-0.6l-0.2-2.1c0-0.2-0.1-0.4-0.2-0.6c-0.1-0.1-0.3-0.2-0.5-0.2c-0.2,0-0.3,0-0.5,0.1
			c-0.1,0.1-0.2,0.2-0.3,0.4c-0.1,0.2-0.1,0.4,0,0.6l0.1,1.9L273.5,113.6z"/>
		<path class="st7" d="M279.4,113.6v-0.5c-0.2,0.4-0.6,0.6-1,0.6c-0.2,0-0.4,0-0.6-0.1c-0.2-0.1-0.3-0.2-0.4-0.3
			c-0.1-0.1-0.2-0.3-0.2-0.4c0-0.2-0.1-0.4-0.1-0.5l-0.2-2.1h0.6l0.1,1.9c0,0.2,0,0.4,0.1,0.6c0,0.1,0.1,0.3,0.3,0.4
			c0.1,0.1,0.3,0.1,0.5,0.1c0.2,0,0.3,0,0.5-0.1c0.1-0.1,0.2-0.2,0.3-0.4c0-0.2,0-0.4,0-0.7l-0.1-1.8h0.6l0.3,3.4L279.4,113.6z"/>
	</g>
	<g class="st6">
		<path class="st7" d="M287.6,113.6l-0.4-4.7h3.2v0.6h-2.5l0.1,1.4h2.2v0.6H288l0.2,2.1H287.6z"/>
		<path class="st7" d="M291.5,113.6l-0.3-3.4h0.5v0.5c0.1-0.2,0.2-0.3,0.3-0.5c0.1-0.1,0.2-0.1,0.4-0.2c0.2,0,0.4,0.1,0.6,0.2
			l-0.1,0.5c-0.1-0.1-0.3-0.1-0.4-0.1c-0.3,0-0.5,0.2-0.5,0.4c-0.1,0.2-0.1,0.4,0,0.7l0.1,1.8L291.5,113.6z"/>
		<path class="st7" d="M293.3,109.6l0-0.7h0.6l0,0.7H293.3z M293.6,113.6l-0.3-3.4h0.6l0.3,3.4H293.6z"/>
	</g>
	<g class="st6">
		<path class="st7" d="M301.9,112.1l0.6-0.1c0,0.2,0.1,0.4,0.2,0.6c0.1,0.2,0.3,0.3,0.5,0.4c0.2,0.1,0.5,0.1,0.7,0.1
			c0.2,0,0.4,0,0.6-0.1c0.2-0.1,0.3-0.1,0.4-0.3c0.1-0.1,0.1-0.3,0.1-0.4c0-0.1-0.1-0.3-0.2-0.4c-0.1-0.1-0.3-0.2-0.4-0.3
			c-0.3-0.1-0.6-0.2-0.9-0.2c-0.3-0.1-0.6-0.2-0.9-0.3c-0.2-0.1-0.4-0.2-0.5-0.4c-0.1-0.2-0.2-0.4-0.2-0.6c0-0.5,0.2-0.9,0.7-1.1
			c0.3-0.1,0.6-0.2,0.9-0.2c0.3,0,0.6,0.1,0.9,0.2c0.3,0.1,0.5,0.3,0.6,0.5c0.2,0.2,0.3,0.5,0.3,0.7l-0.6,0.1c0-0.3-0.2-0.5-0.4-0.7
			c-0.2-0.2-0.5-0.2-0.8-0.2c-0.3,0-0.6,0-0.8,0.2c-0.1,0.1-0.2,0.3-0.2,0.5c0,0.2,0.1,0.3,0.2,0.4c0.3,0.2,0.6,0.3,1,0.3
			c0.4,0.1,0.7,0.2,1.1,0.3c0.2,0.1,0.5,0.3,0.6,0.5c0.1,0.2,0.2,0.4,0.3,0.7c0,0.2,0,0.5-0.2,0.7c-0.1,0.2-0.3,0.4-0.6,0.5
			c-0.3,0.1-0.6,0.2-0.9,0.2c-0.4,0-0.7-0.1-1.1-0.2C302.4,113.3,302,112.7,301.9,112.1L301.9,112.1z"/>
		<path class="st7" d="M308.7,113.2c-0.2,0.2-0.4,0.3-0.6,0.4c-0.2,0.1-0.4,0.1-0.6,0.1c-0.3,0-0.6-0.1-0.9-0.3
			c-0.2-0.2-0.3-0.4-0.4-0.7c0-0.2,0-0.3,0.1-0.4c0.1-0.1,0.2-0.2,0.3-0.3c0.1-0.1,0.3-0.1,0.4-0.2c0.2,0,0.3-0.1,0.5-0.1
			c0.3,0,0.7-0.1,1-0.2c0-0.1,0-0.1,0-0.1c0-0.2-0.1-0.4-0.2-0.5c-0.2-0.1-0.4-0.2-0.7-0.2c-0.2,0-0.4,0-0.6,0.1
			c-0.1,0.1-0.2,0.3-0.3,0.5l-0.6-0.1c0-0.2,0.1-0.4,0.2-0.6c0.1-0.2,0.3-0.3,0.5-0.3c0.5-0.1,1-0.1,1.5,0c0.2,0.1,0.3,0.1,0.4,0.3
			c0.1,0.1,0.2,0.2,0.2,0.4c0,0.2,0.1,0.3,0.1,0.5l0.1,0.8c0,0.3,0,0.7,0.1,1c0,0.1,0.1,0.3,0.2,0.4h-0.6
			C308.7,113.5,308.7,113.3,308.7,113.2z M308.5,111.9c-0.3,0.1-0.6,0.2-0.9,0.2c-0.2,0-0.3,0.1-0.5,0.1c-0.1,0-0.2,0.1-0.2,0.2
			c0,0.1-0.1,0.2-0.1,0.3c0,0.2,0.1,0.3,0.2,0.4c0.1,0.1,0.3,0.2,0.5,0.1c0.2,0,0.4,0,0.6-0.1c0.2-0.1,0.3-0.2,0.4-0.4
			c0.1-0.2,0.1-0.4,0-0.6L308.5,111.9z"/>
		<path class="st7" d="M311.3,113.1l0.1,0.5c-0.1,0-0.3,0-0.4,0c-0.2,0-0.3,0-0.5-0.1c-0.1-0.1-0.2-0.1-0.3-0.3
			c-0.1-0.2-0.1-0.4-0.1-0.7l-0.1-1.9h-0.4v-0.4h0.4l-0.1-0.8l0.5-0.4l0.1,1.2h0.6v0.4h-0.6l0.1,2c0,0.1,0,0.2,0.1,0.3
			c0,0,0.1,0.1,0.1,0.1c0.1,0,0.1,0,0.2,0C311.2,113.1,311.2,113.1,311.3,113.1z"/>
	</g>
	<g class="st6">
		<path class="st7" d="M318.1,112.1l0.6-0.1c0,0.2,0.1,0.4,0.2,0.6c0.1,0.2,0.3,0.3,0.5,0.4c0.2,0.1,0.5,0.1,0.7,0.1
			c0.2,0,0.4,0,0.6-0.1c0.2-0.1,0.3-0.1,0.4-0.3c0.1-0.1,0.1-0.3,0.1-0.4c0-0.1-0.1-0.3-0.1-0.4c-0.1-0.1-0.3-0.2-0.4-0.3
			c-0.3-0.1-0.6-0.2-0.9-0.2c-0.3-0.1-0.6-0.2-0.9-0.3c-0.2-0.1-0.4-0.2-0.5-0.4c-0.1-0.2-0.2-0.4-0.2-0.6c0-0.5,0.2-0.9,0.7-1.1
			c0.3-0.1,0.6-0.2,0.8-0.2c0.3,0,0.6,0.1,0.9,0.2c0.5,0.2,0.9,0.7,0.9,1.2l-0.6,0.1c0-0.3-0.2-0.5-0.4-0.7
			c-0.2-0.2-0.5-0.2-0.8-0.2c-0.3,0-0.6,0-0.8,0.2c-0.1,0.1-0.2,0.3-0.2,0.5c0,0.2,0.1,0.3,0.2,0.4c0.3,0.2,0.6,0.3,1,0.3
			c0.4,0.1,0.7,0.2,1,0.3c0.3,0.1,0.5,0.3,0.6,0.5c0.1,0.2,0.2,0.4,0.2,0.7c0,0.2,0,0.5-0.2,0.7c-0.1,0.2-0.3,0.4-0.6,0.5
			c-0.3,0.1-0.6,0.2-0.9,0.2c-0.4,0-0.7-0.1-1.1-0.2C318.6,113.3,318.3,112.7,318.1,112.1L318.1,112.1z"/>
		<path class="st7" d="M324.9,113.6v-0.5c-0.2,0.4-0.6,0.6-1,0.6c-0.2,0-0.4,0-0.6-0.1c-0.2-0.1-0.3-0.2-0.4-0.3
			c-0.1-0.1-0.2-0.3-0.2-0.4c0-0.2-0.1-0.4-0.1-0.5l-0.1-2.1h0.6l0.1,1.9c0,0.2,0,0.4,0.1,0.6c0,0.1,0.1,0.3,0.3,0.4
			c0.1,0.1,0.3,0.1,0.4,0.1c0.2,0,0.3,0,0.5-0.1c0.1-0.1,0.2-0.2,0.3-0.4c0.1-0.2,0.1-0.4,0-0.7l-0.1-1.8h0.6l0.3,3.4L324.9,113.6z"
			/>
		<path class="st7" d="M326.3,113.6l-0.3-3.4h0.5v0.5c0.2-0.4,0.6-0.6,1-0.6c0.2,0,0.4,0,0.6,0.1c0.2,0.1,0.3,0.2,0.4,0.3
			c0.1,0.1,0.2,0.3,0.2,0.4c0,0.2,0.1,0.4,0.1,0.6l0.1,2.1h-0.6l-0.1-2.1c0-0.2,0-0.4-0.1-0.5c-0.1-0.1-0.1-0.2-0.3-0.3
			c-0.1-0.1-0.3-0.1-0.4-0.1c-0.2,0-0.4,0.1-0.6,0.2c-0.2,0.2-0.3,0.6-0.2,0.9l0.1,1.8L326.3,113.6z"/>
	</g>
	<path class="st7" d="M122.4,85h1.5l0.4,4.8c0.1,0.5,0,1-0.1,1.4c-0.1,0.4-0.4,0.8-0.7,1c-1,0.6-2.3,0.5-3.3-0.2
		c-0.5-0.5-0.7-1.2-0.7-1.8l1.4-0.2c0,0.3,0.1,0.6,0.3,0.9c0.2,0.3,0.5,0.4,0.8,0.4c0.3,0,0.5-0.1,0.7-0.3c0.2-0.4,0.2-0.8,0.1-1.2
		L122.4,85z"/>
	<path class="st7" d="M126.9,88.7l-1.3-0.2c0.1-0.5,0.3-0.9,0.7-1.2c0.5-0.3,1-0.4,1.6-0.4c0.5,0,1,0,1.4,0.2
		c0.3,0.1,0.5,0.3,0.7,0.6c0.2,0.4,0.3,0.8,0.3,1.3l0.1,1.7c0,0.4,0.1,0.7,0.1,1.1c0.1,0.3,0.2,0.5,0.3,0.7h-1.4
		c-0.1-0.1-0.1-0.3-0.2-0.4l-0.1-0.2c-0.2,0.2-0.5,0.4-0.8,0.5c-0.3,0.1-0.6,0.2-0.9,0.2c-0.5,0-1-0.1-1.4-0.5
		c-0.3-0.3-0.5-0.7-0.6-1.2c0-0.3,0-0.6,0.2-0.8c0.1-0.2,0.3-0.4,0.6-0.6c0.4-0.2,0.7-0.3,1.1-0.3c0.5-0.1,0.9-0.2,1.4-0.4v-0.1
		c0-0.2-0.1-0.4-0.3-0.6c-0.2-0.1-0.5-0.2-0.8-0.2c-0.2,0-0.4,0-0.6,0.2C127,88.3,126.9,88.5,126.9,88.7z M128.9,89.9
		c-0.2,0.1-0.5,0.1-0.9,0.2c-0.3,0-0.5,0.1-0.8,0.3c-0.2,0.1-0.3,0.3-0.2,0.5c0,0.2,0.1,0.4,0.3,0.5c0.2,0.1,0.4,0.2,0.6,0.2
		c0.3,0,0.5-0.1,0.7-0.3c0.2-0.1,0.3-0.3,0.3-0.5c0-0.2,0-0.5,0-0.7L128.9,89.9z"/>
	<path class="st7" d="M136.9,92.5h-1.5l-0.2-2.8c0-0.4-0.1-0.8-0.2-1.2c-0.1-0.2-0.2-0.3-0.3-0.4c-0.2-0.1-0.3-0.1-0.5-0.1
		c-0.2,0-0.5,0.1-0.6,0.2c-0.2,0.1-0.3,0.3-0.4,0.6c-0.1,0.4-0.1,0.8,0,1.3l0.2,2.5h-1.4l-0.4-5.4h1.3l0.1,0.8
		c0.4-0.6,1-0.9,1.7-0.9c0.3,0,0.6,0.1,0.9,0.2c0.2,0.1,0.5,0.2,0.6,0.4c0.1,0.2,0.3,0.4,0.3,0.6c0.1,0.3,0.1,0.7,0.1,1L136.9,92.5z
		"/>
	<path class="st7" d="M141.9,92.5l-0.1-0.8c-0.2,0.3-0.4,0.5-0.7,0.7c-0.3,0.2-0.7,0.2-1,0.3c-0.3,0-0.7-0.1-1-0.2
		c-0.3-0.2-0.5-0.4-0.7-0.7c-0.2-0.4-0.3-0.8-0.3-1.2l-0.3-3.4h1.4l0.2,2.5c0,0.5,0.1,0.9,0.2,1.4c0.1,0.2,0.2,0.3,0.3,0.4
		c0.2,0.1,0.4,0.2,0.6,0.2c0.2,0,0.5-0.1,0.6-0.2c0.2-0.1,0.3-0.3,0.4-0.5c0.1-0.5,0.1-1,0-1.5l-0.2-2.3h1.4l0.4,5.4L141.9,92.5z"/>
	<path class="st7" d="M145.5,88.7l-1.3-0.2c0.1-0.5,0.3-0.9,0.7-1.2c0.5-0.3,1-0.4,1.6-0.4c0.5,0,1,0,1.4,0.2
		c0.3,0.1,0.5,0.3,0.7,0.6c0.2,0.4,0.3,0.8,0.3,1.3l0.1,1.7c0,0.4,0.1,0.7,0.1,1.1c0.1,0.3,0.2,0.5,0.3,0.7h-1.4
		c-0.1-0.1-0.1-0.3-0.2-0.4c0-0.1,0-0.1-0.1-0.2c-0.2,0.2-0.5,0.4-0.8,0.5c-0.3,0.1-0.6,0.2-0.9,0.2c-0.5,0-1-0.1-1.4-0.5
		c-0.3-0.3-0.5-0.7-0.6-1.2c0-0.3,0-0.6,0.2-0.8c0.1-0.2,0.3-0.4,0.6-0.6c0.4-0.2,0.7-0.3,1.1-0.3c0.5-0.1,0.9-0.2,1.4-0.4v-0.1
		c0-0.2-0.1-0.4-0.3-0.6c-0.2-0.1-0.5-0.2-0.8-0.2c-0.2,0-0.4,0-0.6,0.2C145.7,88.3,145.6,88.5,145.5,88.7z M147.5,89.9
		c-0.2,0.1-0.5,0.1-0.9,0.2c-0.3,0-0.5,0.1-0.8,0.3c-0.2,0.1-0.3,0.3-0.2,0.5c0,0.2,0.1,0.4,0.3,0.5c0.2,0.1,0.4,0.2,0.6,0.2
		c0.3,0,0.5-0.1,0.7-0.3c0.2-0.1,0.3-0.3,0.3-0.5c0-0.2,0-0.5,0-0.7L147.5,89.9z"/>
	<path class="st7" d="M152,92.5h-1.4l-0.4-5.4h1.3l0.1,0.8c0.1-0.3,0.3-0.5,0.6-0.7c0.2-0.1,0.4-0.2,0.6-0.2c0.4,0,0.7,0.1,1,0.3
		l-0.4,1.3c-0.2-0.1-0.5-0.2-0.7-0.2c-0.2,0-0.4,0.1-0.5,0.2c-0.2,0.2-0.3,0.4-0.3,0.6c-0.1,0.6-0.1,1.2,0,1.8L152,92.5z"/>
	<path class="st7" d="M153.6,87h1.5l1.6,3.9l1-3.9h1.5l-1.5,5.2l-0.3,0.9c-0.1,0.3-0.2,0.5-0.3,0.7c-0.1,0.2-0.2,0.3-0.4,0.4
		c-0.2,0.1-0.3,0.2-0.5,0.3c-0.2,0.1-0.5,0.1-0.7,0.1c-0.3,0-0.5,0-0.8-0.1l-0.2-1.1c0.2,0,0.4,0.1,0.6,0.1c0.3,0,0.5-0.1,0.7-0.3
		c0.2-0.2,0.3-0.5,0.3-0.8L153.6,87z"/>
	<path class="st7" d="M251.8,92.5l-0.6-7.5h5.1l0.1,1.3h-3.6l0.1,1.8h3.1l0.1,1.3H253l0.2,3.2L251.8,92.5z"/>
	<path class="st7" d="M261.2,90.8l1.5,0.2c-0.1,0.5-0.4,0.9-0.8,1.2c-0.4,0.3-0.9,0.4-1.5,0.4c-0.8,0.1-1.6-0.3-2.2-0.9
		c-0.4-0.5-0.6-1.2-0.7-1.9c-0.1-0.8,0.1-1.5,0.5-2.1c0.4-0.5,1.1-0.8,1.7-0.8c0.8,0,1.5,0.3,2,0.8c0.6,0.7,0.9,1.6,0.9,2.5h-3.6
		c0,0.4,0.2,0.7,0.4,1c0.2,0.2,0.5,0.4,0.9,0.4c0.2,0,0.4-0.1,0.5-0.2C261,91.2,261.1,91,261.2,90.8z M261.2,89.3
		c0-0.4-0.1-0.7-0.4-1c-0.2-0.2-0.5-0.3-0.8-0.3c-0.3,0-0.6,0.1-0.8,0.3c-0.2,0.3-0.3,0.6-0.2,0.9L261.2,89.3z"/>
	<path class="st7" d="M263.9,92.5l-0.6-7.5h1.4l0.2,2.7c0.4-0.5,0.9-0.8,1.5-0.8c0.6,0,1.3,0.3,1.7,0.7c0.5,0.6,0.8,1.3,0.8,2.1
		c0.1,0.8-0.1,1.5-0.5,2.1c-0.4,0.5-0.9,0.8-1.6,0.8c-0.3,0-0.6-0.1-0.9-0.2c-0.3-0.2-0.6-0.4-0.8-0.7l0.1,0.8H263.9z M265.1,89.6
		c0,0.4,0.1,0.9,0.4,1.3c0.2,0.3,0.6,0.6,1,0.6c0.3,0,0.6-0.2,0.8-0.4c0.2-0.4,0.3-0.8,0.2-1.3c0-0.5-0.2-1-0.4-1.3
		c-0.2-0.3-0.6-0.4-0.9-0.4c-0.3,0-0.6,0.1-0.8,0.4C265.1,88.8,265.1,89.2,265.1,89.6z"/>
	<path class="st7" d="M271.8,92.5h-1.4l-0.4-5.4h1.3l0.1,0.8c0.1-0.3,0.3-0.5,0.6-0.7c0.2-0.1,0.4-0.2,0.6-0.2c0.4,0,0.7,0.1,1,0.3
		l-0.4,1.3c-0.2-0.1-0.4-0.2-0.7-0.2c-0.2,0-0.4,0.1-0.5,0.2c-0.2,0.2-0.3,0.4-0.3,0.6c-0.1,0.6-0.1,1.2,0,1.8L271.8,92.5z"/>
	<path class="st7" d="M278.1,92.5l-0.1-0.8c-0.2,0.3-0.4,0.5-0.7,0.7c-0.3,0.2-0.7,0.2-1,0.3c-0.3,0-0.7-0.1-1-0.2
		c-0.3-0.2-0.5-0.4-0.7-0.7c-0.2-0.4-0.3-0.8-0.3-1.2L274,87h1.4l0.2,2.5c0,0.5,0.1,0.9,0.2,1.4c0.1,0.2,0.2,0.3,0.3,0.4
		c0.2,0.1,0.4,0.2,0.5,0.2c0.2,0,0.5-0.1,0.6-0.2c0.2-0.1,0.3-0.3,0.4-0.5c0.1-0.5,0.1-1,0-1.5l-0.2-2.3h1.4l0.4,5.4L278.1,92.5z"/>
	<path class="st7" d="M281.7,88.7l-1.3-0.2c0.1-0.5,0.3-0.9,0.7-1.2c0.5-0.3,1-0.4,1.6-0.4c0.5,0,1,0,1.5,0.2
		c0.3,0.1,0.5,0.3,0.7,0.6c0.2,0.4,0.3,0.8,0.3,1.3l0.1,1.7c0,0.4,0.1,0.7,0.1,1.1c0.1,0.3,0.2,0.5,0.3,0.7h-1.4
		c-0.1-0.1-0.1-0.3-0.2-0.4c0-0.1,0-0.1-0.1-0.2c-0.2,0.2-0.5,0.4-0.7,0.5c-0.3,0.1-0.6,0.2-0.9,0.2c-0.5,0-1-0.1-1.4-0.5
		c-0.3-0.3-0.5-0.7-0.6-1.2c0-0.3,0-0.6,0.2-0.8c0.1-0.2,0.3-0.4,0.6-0.6c0.4-0.2,0.7-0.3,1.1-0.3c0.5-0.1,0.9-0.2,1.4-0.4v-0.1
		c0-0.2-0.1-0.4-0.3-0.6c-0.2-0.1-0.5-0.2-0.8-0.2c-0.2,0-0.4,0-0.6,0.2C281.9,88.3,281.7,88.5,281.7,88.7z M283.7,89.9
		c-0.2,0.1-0.5,0.1-0.9,0.2c-0.3,0-0.5,0.1-0.8,0.3c-0.2,0.1-0.3,0.3-0.3,0.5c0,0.2,0.1,0.4,0.3,0.5c0.2,0.1,0.4,0.2,0.6,0.2
		c0.3,0,0.5-0.1,0.7-0.3c0.2-0.1,0.3-0.3,0.3-0.5c0-0.2,0-0.5,0-0.7L283.7,89.9z"/>
	<path class="st7" d="M288.1,92.5h-1.4l-0.4-5.4h1.3l0.1,0.8c0.1-0.3,0.3-0.5,0.6-0.7c0.2-0.1,0.4-0.2,0.6-0.2c0.4,0,0.7,0.1,1,0.3
		l-0.4,1.3c-0.2-0.1-0.5-0.2-0.7-0.2c-0.2,0-0.4,0.1-0.5,0.2c-0.2,0.2-0.3,0.4-0.3,0.6c-0.1,0.6-0.1,1.2,0,1.8L288.1,92.5z"/>
	<path class="st7" d="M289.7,87h1.5l1.6,3.9l1-3.9h1.5l-1.5,5.2l-0.3,0.9c-0.1,0.3-0.2,0.5-0.3,0.7c-0.1,0.2-0.2,0.3-0.4,0.4
		c-0.2,0.1-0.3,0.2-0.5,0.3c-0.2,0.1-0.5,0.1-0.7,0.1c-0.3,0-0.5,0-0.8-0.1l-0.2-1.1c0.2,0,0.4,0.1,0.6,0.1c0.3,0,0.5-0.1,0.7-0.3
		c0.2-0.2,0.3-0.5,0.3-0.8L289.7,87z"/>
</g>
<g id="freepik--character-2--inject-39">
	<path class="st8" d="M378.8,135.2c2,3.1,3.6,6.1,5.3,9.2s3.2,6.3,4.6,9.6c1.5,3.3,2.8,6.8,3.9,10.3c0.6,1.9,1.1,3.8,1.5,5.7
		c0.5,2.3,0.6,4.7,0.5,7v0.5c-0.2,2.7-1.9,5.1-4.5,5.9c-2.5,0.8-5.1,1.2-7.6,1.2c-2.2,0-4.4-0.1-6.6-0.4c-2.1-0.3-4.2-0.7-6.3-1.2
		c-2.1-0.5-4.1-1.1-6.1-1.8c-2.1-0.7-3.3-2.9-2.6-5c0.5-1.6,1.9-2.7,3.5-2.8h0.3c1.8-0.2,3.8-0.4,5.6-0.6s3.7-0.4,5.5-0.6
		s3.5-0.6,5.1-0.9c1.3-0.3,2.6-0.7,3.8-1.3l-4.5,6.4c-0.1-1.1-0.3-2.1-0.6-3.1c-0.4-1.3-0.8-2.7-1.4-4s-1.1-2.8-1.8-4.3
		s-1.3-2.9-2-4.3c-1.4-2.9-2.9-5.8-4.5-8.6s-3.2-5.8-4.7-8.5l-0.1-0.1c-2.2-3.8-0.8-8.7,3-10.9c3.7-2.1,8.4-0.9,10.7,2.7
		L378.8,135.2z"/>
	<path class="st0" d="M371.3,127.4c6.9,2.1,10.7,7.7,20.4,28.3c-1.8,5.9-21.1,12.6-21.1,12.6s-9.5-18.9-10.2-27.7
		S363.1,124.9,371.3,127.4z"/>
	<path class="st9" d="M362.9,172.7l-6.5-0.3l2.7,11.4c1.9-0.2,3.8-0.6,5.5-1.3c2.6-1.1,3.8-4,2.7-6.6l0,0
		C366.6,174,364.9,172.8,362.9,172.7z"/>
	<path class="st9" d="M348.8,179l1.6,3.8c0.6,1.5,2.3,2.4,3.9,2l4.7-1.1l-2.7-11.4l-5.7,2.3C349,175.3,348.1,177.2,348.8,179
		C348.8,179,348.8,179,348.8,179z"/>
	<path class="st9" d="M278.4,150.8l-4.4-8.7l-8.5,8c0,0,4.9,7.4,9.3,5.4L278.4,150.8z"/>
	<path class="st9" d="M264.4,138.9l-2.5,3.3c-1,1.3-0.9,3.2,0.2,4.4l3.3,3.5l8.5-8l-4.8-3.8C267.7,137.1,265.6,137.4,264.4,138.9
		C264.4,138.9,264.4,138.9,264.4,138.9z"/>
	<path class="st9" d="M368,354c1.2,6.6,2.6,19.4,2.7,21.6c2.5,1.5,5.6,1.6,8.3,0.4c0,0,0.3-18.1,0-22C372.1,353.9,368,354,368,354z"
		/>
	<path class="st7" d="M357.3,381.1c0,0,12-3.1,12.5-7.7l9.9,1.1l0.9,8.8h-3.5l-0.6-1.1l-1.2,1.1c-11.9,0-16.3-0.1-18.5-0.9
		C356.7,382,356.9,381.5,357.3,381.1z"/>
	<path class="st7" d="M374.3,282c-0.7-37.1-0.8-66.4-4.7-80.6l-32.9-5.3c0,0,7.7,62.8,15.6,88.8s15,77.1,15,77.1h13.6
		C380.9,362.1,383.4,312.8,374.3,282z"/>
	<polygon class="st0" points="381.5,362.5 366.4,362.8 364.5,353.4 382,354.9 	"/>
	<path class="st10" d="M349.2,227.2l-5.7,15.8c2.3,13.9,5,28,7.8,38.2C353.4,262.7,350.7,232.4,349.2,227.2z"/>
	<path class="st9" d="M309.6,346.2c-0.5,6.7-2.4,19.3-2.9,21.5c2.1,2,5.1,2.9,8,2.3c0,0,4.9-17.5,5.6-21.3
		C313.7,347.1,309.6,346.2,309.6,346.2z"/>
	<path class="st7" d="M290.3,369.6c0,0,14.4,0.2,16.2-4.1l9.3,3.3l-1.4,8.8l-3.4-0.8l-0.3-1.2l-1.4,0.8c-11.6-2.7-17.9-4.3-19.8-5.5
		C289.5,370.3,289.8,369.8,290.3,369.6z"/>
	<path class="st7" d="M336.8,284.2c11-27.1,18.3-55.5,21.7-84.5l-35.8-5.9c0,0-5.3,64.8-7.6,91.4c-2.4,27.7-7.7,67.7-7.7,67.7
		l12.2,3.7C319.6,356.7,335.6,318.7,336.8,284.2z"/>
	<polygon class="st0" points="320.6,357.5 305.9,354.3 306.4,344.8 323,350.3 	"/>
	<path class="st9" d="M363.4,103.7c-1.6,7-2.2,16.8,0.2,22.2c-3.8,3-9.8,6.6-17.4,6s-5.8-5.7-3.6-8.2c5.6-2.4,6.1-5.1,4.9-7.6
		L363.4,103.7z"/>
	<path class="st7" d="M370.6,128.1c0,0-4.3-4.4-6.2-5.5s-16.6-1.9-20-1.5s-8,5.2-8,5.2L370.6,128.1z"/>
	<path class="st7" d="M341.8,98.7c-0.1,0.7-0.6,1.2-1,1.1s-0.7-0.7-0.6-1.4s0.6-1.2,1-1.1S341.9,98,341.8,98.7z"/>
	<path class="st11" d="M341.7,99.6c-1.1,2-2.6,3.8-4.2,5.4c1.1,1.4,3.2,1.2,3.2,1.2L341.7,99.6z"/>
	<path class="st7" d="M341,94.1c0.1,0.1,0.2,0.2,0.4,0.2c1.1-0.1,2.1,0.4,2.8,1.2c0.1,0.2,0.4,0.2,0.6,0.1c0.2-0.1,0.2-0.4,0.1-0.6
		c-0.8-1-2.1-1.6-3.5-1.5c-0.2,0-0.4,0.2-0.4,0.4c0,0,0,0,0,0C340.9,94,341,94,341,94.1z"/>
	<path class="st9" d="M365.6,100.4c-1.8,8.5-2.4,13.6-7.4,17.3c-7.5,5.6-17.5,0-18.3-8.9c-0.7-8,2.4-20.5,11.3-22.6
		c6.5-1.5,12.9,2.6,14.4,9C366,96.9,366,98.6,365.6,100.4z"/>
	<path class="st7" d="M371.3,97c4-2.9,3.5-10.5-3.9-13.6c0.5,0.9,0.8,2,0.8,3c0,0-6.8-8.6-17.8-7.3c1.5,0.4,2.8,1.3,3.9,2.4
		c0,0-10.5-0.9-15.1,4.3c2.6,0.5,4.4,0.7,4.4,0.7s-3.3,5-6,5.4c3.1,1,6.2,1.6,9.5,1.6c-4,1.9-5.9,7.5,1.3,11.7
		c2.3,6.3,7.3,11.9,16.9,11.2c0-0.6,0.2-2.4-0.3-3.2c0.9,0.4,2,0.7,3,0.7c0,0,1.8-5.1-0.1-8.1c0.3,0.6,3,1.2,3,1.2
		c-0.3-1.7,0.1-3.5,1-5C373.2,99.9,373.4,97.7,371.3,97z"/>
	<path class="st7" d="M369.5,96.7c2.9,0.3,5.5-1.7,6-4.6C377.7,95.5,374.3,99.1,369.5,96.7z"/>
	<path class="st9" d="M350.2,102.7c-0.6,1.8-1.8,3.2-3.4,4.1c-2.1,1.1-3.4-0.9-3-3.4c0.3-2.2,1.8-5.4,4-5.4S350.9,100.5,350.2,102.7
		z"/>
	<path class="st0" d="M370.2,127.1c-11.7-2.3-28.4-3.4-39.6-2.3c-5.7,0.6-10.3,5-11.1,10.7c-2.6,16.8-0.4,46.9,0.7,77
		c32.9,8.2,53.3,1.7,53.3,1.7c1-6-2.1-24.1-3.4-34.7c2.3-10.7,7-22.9,10.1-37.1c1.5-6.8-2.8-13.6-9.6-15.1
		C370.4,127.2,370.3,127.1,370.2,127.1z"/>
	<path class="st8" d="M334.5,140.3c-2.1,3-4.2,5.7-6.4,8.4s-4.5,5.4-7,8c-2.5,2.7-5.2,5.2-8,7.6c-1.5,1.3-3.1,2.5-4.8,3.6
		c-2,1.4-4.2,2.4-6.5,3.2l-0.3,0.1l-0.5,0.1c-3.5,0.5-7.1,0.1-10.4-1.2c-2.6-1-5.1-2.4-7.4-4.1c-2.1-1.5-4.1-3.2-6-5
		c-1.8-1.8-3.5-3.7-5.1-5.8c-1.3-1.7-1-4.3,0.7-5.6c1.3-1,3.1-1.1,4.5-0.3l0.3,0.2c1.8,1.1,3.8,2.3,5.7,3.3c1.9,1,3.8,1.9,5.8,2.8
		c1,0.4,1.9,0.8,2.8,1s1.8,0.5,2.6,0.7c1.1,0.3,2.3,0.2,3.5-0.1l-0.7,0.2c0.9-0.5,1.7-1,2.4-1.6c1-0.8,2.1-1.8,3.2-2.8
		c2.1-2.1,4.3-4.4,6.4-6.8s4.2-4.9,6.2-7.5s4.1-5.2,6-7.7l0.1-0.1c2.6-3.6,7.6-4.3,11.2-1.7S337.1,136.7,334.5,140.3L334.5,140.3z"
		/>
	<path class="st0" d="M330.5,124.8c-7.2,0.5-9.3,3.2-23.3,21.1c0.4,6.2,14.6,18.9,14.6,18.9s16.6-18.2,19.3-26.6
		S339.1,124.2,330.5,124.8z"/>
</g>
<g id="freepik--character-1--inject-39">
	<path class="st12" d="M88.4,134.9c1,5.2,2,14.7-1.6,18.1c6.7,1.6,12.8,5,17.8,9.8c3.6-6.8-1.7-9.8-1.7-9.8
		c-5.8-1.4-5.6-5.7-4.6-9.7L88.4,134.9z"/>
	<path class="st0" d="M104.1,158.8c-1.3-5.2,2.6-5.9-3.8-8.4c-5-2-14.6-2.1-16.9-0.5c-1.3,0.9,0.4,4.1,0.4,4.1L104.1,158.8z"/>
	<path class="st12" d="M83.8,162.2c-0.6,0.8-1.3,1.8-1.9,2.6s-1.3,1.8-1.9,2.8c-1.2,1.9-2.5,3.8-3.6,5.7C74,177,71.9,181,70,185
		c-0.5,1-0.9,2-1.3,3c-0.2,0.5-0.4,0.9-0.5,1.3l-0.5,1.5c-0.7,2.1-1.2,4.3-1.8,6.5c-1.1,4.4-2.2,9-3.4,13.5l0,0
		c-0.4,1.3-1.7,2.1-3.1,1.7c-1.1-0.3-1.8-1.3-1.8-2.4c-0.1-4.8,0.2-9.5,0.7-14.3c0.2-2.4,0.6-4.8,1-7.3c0.1-0.6,0.3-1.3,0.4-1.9
		s0.4-1.4,0.6-2c0.4-1.1,0.8-2.3,1.3-3.5c1.8-4.6,3.9-9,6.4-13.2c1.2-2.1,2.5-4.2,3.8-6.2c0.7-1,1.4-2,2.1-3c0.7-1,1.4-1.9,2.3-3
		c1.7-2.2,4.9-2.5,7-0.8c2.1,1.7,2.5,4.7,0.9,6.9L83.8,162.2z"/>
	<path class="st12" d="M150.3,154.4l-4.3,4.4l2.9,3.1c3.7,0.1,6.3-2.9,6.3-2.9L150.3,154.4z"/>
	<path class="st12" d="M150.3,154.4l1.7-1.3c1.5-1.2,3.7-0.9,4.8,0.6c0,0,0.1,0.1,0.1,0.1l0.4,0.5c0.6,0.9,0.5,2-0.2,2.8
		c-0.6,0.6-1.2,1.2-1.9,1.8L150.3,154.4z"/>
	<path class="st12" d="M62.3,215.2l0.4-6.1l-4.2-0.4c-2.9,2.3-2.9,6.3-2.9,6.3L62.3,215.2z"/>
	<path class="st12" d="M62.3,215.2l-0.7,3.4c-0.3,1.2-1.4,2-2.6,1.7c0,0-0.1,0-0.1,0l-1.8-0.5c-1-0.3-1.7-1.2-1.7-2.2
		c0-0.9,0.1-1.7,0.3-2.6L62.3,215.2z"/>
	<path class="st7" d="M79.5,152.8c-4.6,1.6-8.8,6-13.3,15.1c0.8,3.9,12,11,12,11S94.9,149.1,79.5,152.8z"/>
	<path class="st7" d="M117.4,165.3c-0.1,3.5,5.4,11.6-1.4,16.2c-0.8,7.1-1.8,14-3.7,25.5H76.8c3.8-12.8,1.1-21.4-3.6-43.9
		c-1-4.9,2.1-9.6,7-10.6c0.3-0.1,0.6-0.1,0.9-0.1c1.4-0.1,2.9-0.3,4.4-0.3c5.4-0.4,10.7-0.4,16.1,0c1.7,0.2,3.5,0.4,5.3,0.6
		C113.1,153.6,117.7,159,117.4,165.3z"/>
	<path class="st7" d="M107.4,126.1c0.1,0.7,0.5,1.2,1,1.2s0.8-0.7,0.7-1.4s-0.5-1.2-1-1.2S107.3,125.4,107.4,126.1z"/>
	<path class="st7" d="M107.9,124.8l1.6-0.7C109.5,124.1,108.8,125.5,107.9,124.8z"/>
	<path class="st13" d="M107.7,126.8c0.8,1.5,1.8,2.9,3,4.2c-0.7,0.6-1.5,0.9-2.4,0.8L107.7,126.8z"/>
	<path class="st7" d="M108.5,122.1c0.1,0,0.2-0.1,0.2-0.2c0.1-0.2,0-0.5-0.2-0.6c-1.2-0.7-2.6-0.7-3.8-0.2c-0.2,0.1-0.3,0.4-0.2,0.6
		c0,0,0,0,0,0c0.1,0.2,0.4,0.3,0.6,0.2c0,0,0,0,0,0c1-0.4,2.1-0.4,3,0.2C108.3,122.1,108.4,122.1,108.5,122.1z"/>
	<path class="st12" d="M84,126.6c1.6,8.5,2,12.2,6.8,16.1c7.2,5.9,17.1,2.1,18.1-6.7c0.9-7.9-1.8-20.5-10.5-22.9
		S82.4,118.1,84,126.6z"/>
	<path class="st7" d="M102.4,129.9c-1.1,3.6-0.6,7.5,1.4,10.7c1.4,2.2,0.8,5-1.4,6.4c-0.5,0.3-1.1,0.6-1.8,0.7
		c-8.4,1.2-18.2,0.5-24.5-4.9c-9.2-7.9,2.2-29.2,6.8-29.2c-3-6.1,17.7-5.9,21.8,0.7C113.5,118,102.4,129.9,102.4,129.9z"/>
	<path class="st12" d="M99.4,129.5c0.6,2.2,0.8,3.1,2,4c1.1,0.9,2.7,0.8,3.6-0.3c0.4-0.5,0.6-1.1,0.6-1.8c0-2.1-0.9-5.3-3.1-5.8
		S98.8,127.4,99.4,129.5z"/>
	<path class="st3" d="M105.3,133.8c0.1,0.6-0.1,1.1-0.5,1.1s-0.8-0.5-1-1.1s0.1-1.1,0.5-1.1S105.2,133.1,105.3,133.8z"/>
	<path class="st12" d="M112.3,207c0,0,0.1,46.5-3.5,76c-0.6,27.7-3.7,92.4-3.7,92.4h-7c0,0-10.8-55.1-7.4-87.9
		c-14.2-46.9-4.9-80.4-4.9-80.4L112.3,207z"/>
	<path class="st7" d="M105.1,373.2c0.4-0.1,0.7,0,1,0.2c2.5,3.2,6.1,5.6,10.1,6.6c4.4,1.3,2.6,3.5-4,2.7c-7.8-1-9.8,0.2-12.4,0.2
		s-4-2.4-2.5-7.5c0.1-0.4,0.4-0.6,0.8-0.7C100.5,374.5,102.9,373.9,105.1,373.2z"/>
	<path class="st12" d="M103,207c0,0-14.5,54.2-22.7,79.4c-8.6,26.5-31.1,81.6-32,83.4l-5.5-2.7c0,0,9-66.5,19.4-80.8
		c3-64.8,14.6-79.4,14.6-79.4L103,207z"/>
	<path class="st7" d="M49.4,367.9c0.4,0,0.7,0.3,0.7,0.6c0.5,2.5,0.2,6.1,5,9.5c3.3,2.4-0.4,3.5-5.8,1c-6.4-3-7.2-4-9.4-5
		s-2-3.6,1.9-7.4c0.3-0.3,0.6-0.4,1-0.3C45,367.2,47.2,367.7,49.4,367.9z"/>
	<path class="st0" d="M112.3,207c0,0,0.8,36.4-1.9,91.3c-27,1-52.7-13.1-52.7-13.1c7.3-32.4,3.1-64.1,19.2-78.2
		C86,204.5,112.1,206.2,112.3,207z"/>
	<g class="st6">
		<path class="st3" d="M112.3,207c0,0,0.8,36.4-1.9,91.3c-27,1-52.7-13.1-52.7-13.1c7.3-32.4,3.1-64.1,19.2-78.2
			C86,204.5,112.1,206.2,112.3,207z"/>
	</g>
	<path class="st12" d="M111.6,157.1c0.9,0.6,1.9,1.4,2.8,2.1s2,1.4,2.9,2c2,1.3,4,2.6,6.1,3.9s4.1,2.4,6.2,3.4
		c2.1,1.1,4.2,2,6.4,2.9l-4.4,0.9c1.3-1.1,2.7-2.2,4-3.4s2.6-2.4,3.9-3.6s2.6-2.5,3.9-3.7s2.6-2.6,3.8-3.8l0.1-0.1c1-1,2.6-1,3.5,0
		c0.7,0.8,0.9,1.9,0.5,2.9c-0.9,1.8-1.9,3.4-2.9,5s-2.1,3.2-3.2,4.7c-2.3,3.1-4.8,6-7.6,8.8c-1.1,1.1-2.7,1.5-4.1,1l-0.3-0.1
		c-2.6-0.8-5.1-1.7-7.5-2.8c-2.4-1.1-4.8-2.2-7.1-3.5s-4.5-2.6-6.7-4.1c-1.1-0.7-2.1-1.5-3.2-2.2s-2.1-1.5-3.2-2.4
		c-2.2-1.7-2.5-4.9-0.8-7c1.7-2.1,4.8-2.5,6.9-0.9L111.6,157.1z"/>
	<path class="st7" d="M102.3,152.7c4.8-0.8,10.7,0.1,17.5,7c1.2,3.8-5.1,15.8-5.1,15.8S87,156.9,102.3,152.7z"/>
	<path class="st4" d="M76.7,233c3.7,3.5,15.9,8.3,15.9,8.3S80.9,240.5,76.7,233z"/>
</g>
</svg>
