<?xml version="1.0" encoding="utf-8"?>
<!-- Generator: Adobe Illustrator 24.2.3, SVG Export Plug-In . SVG Version: 6.00 Build 0)  -->
<svg version="1.1" id="Calque_1" xmlns="http://www.w3.org/2000/svg" xmlns:xlink="http://www.w3.org/1999/xlink" x="0px" y="0px"
	 viewBox="0 0 500 500" style="enable-background:new 0 0 500 500;" xml:space="preserve">
<style type="text/css">
	.st0{fill:#67B7AA;}
	.st1{opacity:0.8;}
	.st2{fill:#FFFFFF;}
	.st3{opacity:0.4;}
	.st4{opacity:0.5;}
	.st5{fill:#FAFAFA;}
	.st6{fill:#37474F;}
</style>
<g>
	<path class="st0" d="M339.9,138l-90.7-33.4l-89.8,33c-11.5,5.5-21.5,8.9-21.5,19.8V212c-0.2,38.2,10,75.8,29.6,108.6
		c16.8,27.9,42.7,56.6,82.7,74.9c36.7-12.2,64.1-44.8,80.9-72.7c19.6-32.8,29.8-70.4,29.6-108.6V165
		C360.6,149.4,352.5,141.7,339.9,138z"/>
	<g class="st1">
		<path class="st2" d="M339.9,138l-90.7-33.4l-89.8,33c-11.5,5.5-21.5,8.9-21.5,19.8V212c-0.2,38.2,10,75.8,29.6,108.6
			c16.8,27.9,42.7,56.6,82.7,74.9c36.7-12.2,64.1-44.8,80.9-72.7c19.6-32.8,29.8-70.4,29.6-108.6V165
			C360.6,149.4,352.5,141.7,339.9,138z"/>
	</g>
	<path class="st0" d="M304.6,276.1h-16.7v-90.7c0-21.4-17.3-38.7-38.7-38.7s-38.7,17.3-38.7,38.7v90.7h-16.7v-90.7
		c-0.5-30.6,23.9-55.8,54.5-56.3c30.6-0.5,55.8,23.9,56.3,54.5c0,0.6,0,1.1,0,1.7V276.1z"/>
	<g class="st3">
		<path d="M304.6,276.1h-16.7v-90.7c0-21.4-17.3-38.7-38.7-38.7s-38.7,17.3-38.7,38.7v90.7h-16.7v-90.7
			c-0.5-30.6,23.9-55.8,54.5-56.3c30.6-0.5,55.8,23.9,56.3,54.5c0,0.6,0,1.1,0,1.7V276.1z"/>
	</g>
	<path class="st0" d="M182.3,235.7h133.8c4.3,0,7.7,3.5,7.7,7.7v80.3c0,4.3-3.5,7.7-7.7,7.7H182.3c-4.3,0-7.7-3.5-7.7-7.7v-80.3
		C174.6,239.2,178,235.7,182.3,235.7z"/>
	<g class="st4">
		<path d="M261.7,271.2c0-6.9-5.6-12.5-12.5-12.5c-6.9,0-12.5,5.6-12.5,12.5c0,5.6,3.7,10.5,9.1,12v18.7h6.8v-18.7
			C258,281.7,261.7,276.7,261.7,271.2z"/>
	</g>
	<path class="st5" d="M182.5,322.4c-0.3,0-0.6-16-0.6-35.7s0.3-35.7,0.6-35.7c0.3,0,0.6,16,0.6,35.7S182.9,322.4,182.5,322.4z"/>
	<path class="st5" d="M239.4,287.2c0,0-0.6-0.2-1.5-0.8c-1.2-0.9-2.3-2-3.2-3.3c-5.8-7.7-4.3-18.7,3.4-24.5c0.9-0.7,1.8-1.3,2.8-1.8
		c1.4-0.7,2.9-1.2,4.4-1.5c0.5-0.1,1.1-0.2,1.7-0.1c0,0.2-2.4,0.5-5.6,2.3c-8.4,4.6-11.4,15.2-6.8,23.6c0.3,0.5,0.6,1,0.9,1.4
		C236.7,284.2,238,285.7,239.4,287.2z"/>
	<path class="st0" d="M361.4,374.2c0,0,0.4-0.5,1.1-1.5l0.6-0.8c0.2-0.3,0.4-0.7,0.6-1.1c0.5-0.9,1-1.8,1.3-2.7
		c0.2-0.5,0.5-1.1,0.7-1.7c0.2-0.6,0.4-1.3,0.5-2c0.2-0.7,0.4-1.5,0.5-2.2c0.2-0.8,0.3-1.6,0.3-2.4c0.3-3.9,0.1-7.8-0.5-11.7
		c-1.3-8.8-5.1-19.1-10.7-30.3c-6.6-12.6-14.3-24.6-23.1-35.9c-10.5-13.7-22-26.6-34.4-38.7c-14.1-13.9-29.2-26.8-45.2-38.6
		c-8.4-6.2-17.3-12.2-26.7-17.9c-9.5-5.8-19.5-11-29.7-15.6c-10.5-4.8-21.6-8.3-33-10.3c-5.8-1-11.7-1.2-17.6-0.4
		c-2.9,0.4-5.8,1.3-8.5,2.5c-5.5,2.5-9.7,7.1-11.6,12.9c-0.9,2.8-1.4,5.8-1.5,8.7c-0.1,5.9,0.7,11.8,2.4,17.4
		c3.3,11.1,8.1,21.7,14,31.6c5.7,9.6,12,18.9,18.8,27.7c6.7,8.7,13.7,16.8,20.8,24.5c13.5,14.5,28,28,43.5,40.5
		c13.4,10.9,27.5,20.9,42.3,29.8c12.2,7.4,25,13.7,38.3,18.8c11.8,4.4,22.4,6.9,31.3,7.2c3.9,0.2,7.8,0,11.7-0.8
		c0.8-0.2,1.6-0.4,2.4-0.6c0.7-0.2,1.4-0.4,2.1-0.7l1.9-0.8c0.6-0.3,1.1-0.6,1.6-0.9c0.9-0.5,1.8-1,2.6-1.7c0.3-0.3,0.7-0.5,1-0.7
		l0.7-0.7L361.4,374.2l-1.3,1.3l-0.7,0.7c-0.3,0.2-0.6,0.5-1,0.7c-0.8,0.6-1.7,1.2-2.6,1.7c-0.5,0.3-1,0.6-1.6,0.9l-1.9,0.8
		c-0.7,0.3-1.4,0.5-2.1,0.7c-0.8,0.3-1.6,0.5-2.4,0.6c-3.9,0.8-7.8,1.1-11.7,0.9c-8.9-0.3-19.6-2.8-31.4-7.1
		c-13.3-5.1-26.2-11.4-38.4-18.8c-14.8-8.9-29-18.8-42.4-29.8c-15.5-12.5-30-26-43.6-40.5c-7.1-7.7-14.1-15.8-20.8-24.5
		c-6.9-8.8-13.2-18.1-18.9-27.8c-6-10-10.7-20.6-14.1-31.8c-1.7-5.7-2.5-11.7-2.4-17.7c0.1-3,0.6-6,1.5-8.9
		c1.9-5.9,6.2-10.8,11.9-13.3c2.8-1.2,5.7-2.1,8.7-2.5c5.9-0.8,11.9-0.6,17.8,0.4c11.4,2.1,22.6,5.6,33.2,10.4
		c10.2,4.6,20.1,9.8,29.6,15.6c9.3,5.7,18.3,11.7,26.7,17.9c16,11.8,31.1,24.7,45.2,38.7c12.4,12.1,23.8,25,34.4,38.8
		c8.8,11.3,16.5,23.3,23,36c5.7,11.2,9.3,21.6,10.7,30.4c0.7,3.9,0.8,7.8,0.5,11.8c-0.1,0.8-0.2,1.6-0.3,2.4
		c-0.1,0.7-0.3,1.5-0.5,2.2c-0.2,0.7-0.4,1.3-0.6,2c-0.2,0.7-0.5,1.2-0.7,1.7c-0.4,1-0.9,1.9-1.4,2.7c-0.2,0.4-0.4,0.7-0.6,1.1
		l-0.6,0.8C361.7,373.8,361.4,374.2,361.4,374.2z"/>
	<path class="st0" d="M404.1,271.2c0,0-0.1-0.6-0.2-1.8c0-0.3,0-0.6-0.1-1c0-0.4-0.2-0.8-0.2-1.2c-0.2-1-0.4-2-0.8-3
		c-0.2-0.5-0.4-1.1-0.6-1.7c-0.2-0.6-0.6-1.2-0.9-1.8c-0.3-0.7-0.7-1.4-1.2-2c-0.4-0.6-0.8-1.3-1.3-2c-2.4-3.1-5.1-5.9-8.2-8.4
		c-6.8-5.6-16.5-10.9-28.2-15.4c-13.3-5-27.1-8.9-41.1-11.4c-17-3.2-34.1-5.2-51.4-5.9c-19.8-1-39.6-0.5-59.4,1.3
		c-10.4,1-21.1,2.4-31.8,4.4c-11,2-21.8,4.7-32.5,8.1c-11.1,3.4-21.7,8.2-31.5,14.2c-5,3.1-9.5,6.9-13.3,11.4
		c-1.9,2.3-3.5,4.8-4.7,7.5c-2.5,5.5-2.5,11.8,0,17.3c1.2,2.7,2.8,5.2,4.7,7.5c3.9,4.4,8.3,8.2,13.3,11.3c9.9,6,20.5,10.8,31.5,14.3
		c10.6,3.4,21.5,6.1,32.5,8.1c10.8,2,21.4,3.5,31.8,4.4c19.7,1.8,39.6,2.3,59.4,1.3c17.3-0.8,34.4-2.7,51.4-5.9
		c14-2.6,27.8-6.4,41.1-11.4c11.7-4.6,21.3-9.8,28.2-15.4c3.1-2.4,5.8-5.2,8.2-8.4c0.5-0.7,0.9-1.3,1.3-2c0.4-0.6,0.8-1.3,1.1-1.9
		l0.9-1.8c0.2-0.6,0.4-1.2,0.6-1.7c0.4-1,0.6-2,0.8-3c0.1-0.4,0.2-0.8,0.2-1.2c0.1-0.4,0-0.7,0.1-1C404,271.8,404,271.2,404.1,271.2
		c-0.1,0-0.1,0.6-0.2,1.8c0,0.3,0,0.6,0,1c0,0.4-0.1,0.8-0.2,1.2c-0.2,1-0.4,2-0.8,3c-0.2,0.6-0.4,1.1-0.6,1.8l-0.9,1.9
		c-0.3,0.7-0.7,1.3-1.1,2c-0.4,0.7-0.8,1.4-1.3,2.1c-2.4,3.2-5.1,6-8.2,8.5c-6.8,5.7-16.5,11-28.2,15.6
		c-13.3,5.1-27.1,8.9-41.2,11.5c-17,3.2-34.2,5.2-51.5,6c-19.8,1-39.7,0.6-59.5-1.2c-10.4-1-21.1-2.4-31.9-4.4
		c-11-2-21.9-4.7-32.6-8.1c-11.1-3.4-21.8-8.2-31.7-14.3c-5.1-3.1-9.7-7-13.6-11.5c-1.9-2.3-3.6-4.9-4.8-7.7
		c-2.5-5.7-2.5-12.2,0-17.8c1.2-2.8,2.9-5.3,4.8-7.7c3.9-4.5,8.5-8.4,13.6-11.5c9.9-6.1,20.6-10.9,31.7-14.3
		c10.7-3.4,21.5-6.1,32.6-8.1c10.8-2,21.4-3.4,31.9-4.4c19.8-1.8,39.6-2.2,59.5-1.2c17.3,0.8,34.5,2.8,51.5,6.1
		c14,2.6,27.8,6.5,41.1,11.5c11.7,4.6,21.3,9.9,28.2,15.6c3.1,2.5,5.8,5.3,8.2,8.5c0.5,0.7,0.9,1.3,1.3,2.1c0.4,0.6,0.8,1.3,1.1,2
		l0.9,1.9c0.3,0.6,0.4,1.2,0.6,1.7c0.4,1,0.6,2,0.8,3c0.1,0.4,0.2,0.8,0.2,1.2c0.1,0.4,0,0.7,0,1
		C404.1,270.6,404.1,271.2,404.1,271.2z"/>
	<path class="st0" d="M347.5,142.9c0,0-0.5-0.3-1.5-1l-0.8-0.5c-0.3-0.2-0.7-0.3-1.1-0.5c-0.9-0.5-1.9-0.9-2.8-1.2
		c-0.6-0.2-1.1-0.4-1.8-0.6l-2-0.5c-0.7-0.2-1.5-0.3-2.2-0.3c-0.8,0-1.6-0.2-2.4-0.2c-3.9,0-7.8,0.4-11.6,1.3
		c-8.6,1.9-18.7,6.4-29.4,12.8c-12.2,7.4-23.6,16-34.2,25.5c-12.9,11.5-25,23.8-36.2,37c-12.9,15.1-24.7,31-35.4,47.7
		c-5.6,8.8-11,18.1-16,27.9c-5.1,9.9-9.6,20.2-13.5,30.7c-4.1,10.8-6.7,22.1-8,33.6c-0.6,5.9-0.4,11.8,0.8,17.6
		c0.6,2.9,1.7,5.7,3,8.3c2.8,5.3,7.8,9.2,13.7,10.6c2.9,0.7,5.8,1,8.8,0.9c5.9-0.3,11.7-1.5,17.2-3.6c10.8-4.1,21.1-9.5,30.6-16.2
		c9.2-6.3,18-13.2,26.3-20.7c8.2-7.3,15.8-14.8,23-22.4c13.5-14.5,26-29.9,37.3-46.1c10-14.1,18.9-28.9,26.8-44.2
		c6.6-12.6,12-25.9,16.2-39.5c3.5-12,5.3-22.8,5.1-31.7c0-3.9-0.6-7.8-1.6-11.6c-0.2-0.8-0.5-1.6-0.8-2.3c-0.2-0.7-0.5-1.4-0.8-2.1
		c-0.3-0.6-0.6-1.3-0.9-1.8c-0.3-0.5-0.7-1.1-1-1.6c-0.5-0.9-1.2-1.7-1.9-2.5c-0.3-0.3-0.5-0.7-0.8-0.9l-0.7-0.7
		C347.9,143.3,347.5,142.9,347.5,142.9l1.3,1.2l0.7,0.7c0.3,0.3,0.5,0.6,0.8,0.9c0.7,0.7,1.3,1.6,1.9,2.4c0.3,0.5,0.7,1,1,1.6
		l0.9,1.8c0.4,0.7,0.6,1.4,0.9,2.1c0.2,0.7,0.6,1.5,0.8,2.3c1.1,3.8,1.6,7.7,1.7,11.6c0.3,8.9-1.4,19.7-5,31.8
		c-4.2,13.7-9.5,26.9-16.1,39.6c-7.9,15.4-16.8,30.2-26.8,44.4c-11.3,16.3-23.8,31.7-37.3,46.2c-7.2,7.7-14.8,15.2-23,22.5
		c-8.3,7.5-17.2,14.4-26.4,20.8c-9.5,6.7-19.8,12.1-30.7,16.3c-5.6,2.1-11.5,3.4-17.5,3.7c-3,0.1-6.1-0.2-9-0.9
		c-6-1.5-11.2-5.4-14.1-10.9c-1.4-2.7-2.5-5.5-3.1-8.5c-1.2-5.9-1.4-11.9-0.8-17.8c1.3-11.6,4-22.9,8.1-33.8
		c3.8-10.5,8.4-20.8,13.5-30.7c5-9.8,10.4-19.1,16-27.9c10.7-16.7,22.5-32.7,35.5-47.7c11.2-13.2,23.3-25.5,36.3-37
		c10.7-9.6,22.2-18.1,34.4-25.6c10.8-6.4,20.9-10.8,29.6-12.7c3.8-0.9,7.8-1.4,11.7-1.3c0.8,0,1.6,0.1,2.5,0.2
		c0.8,0,1.5,0.2,2.2,0.3l2,0.4c0.6,0.2,1.2,0.4,1.8,0.6c1,0.3,1.9,0.7,2.8,1.2c0.4,0.2,0.8,0.4,1.1,0.6l0.8,0.6
		C347,142.5,347.5,142.9,347.5,142.9z"/>
	<circle class="st0" cx="88.6" cy="339.1" r="5.7"/>
	<path class="st0" d="M417.1,156.9c0,3.2-2.6,5.7-5.8,5.7c-3.2,0-5.7-2.6-5.7-5.8c0-3.2,2.6-5.7,5.7-5.7
		C414.6,151.1,417.1,153.7,417.1,156.9C417.1,156.9,417.1,156.9,417.1,156.9z"/>
	<path class="st0" d="M129,354c0,0.8-0.7,1.5-1.5,1.5c-0.8,0-1.5-0.7-1.5-1.5c0-0.8,0.7-1.5,1.5-1.5c0,0,0,0,0,0
		C128.3,352.5,129,353.2,129,354z"/>
	<path class="st0" d="M160.2,192.9c0,0.8-0.7,1.5-1.5,1.5c-0.8,0-1.5-0.7-1.5-1.5c0-0.8,0.7-1.5,1.5-1.5
		C159.5,191.4,160.2,192,160.2,192.9L160.2,192.9z"/>
	<path class="st0" d="M388.2,271.2c0,0.8-0.7,1.5-1.5,1.5s-1.5-0.7-1.5-1.5c0-0.8,0.7-1.5,1.5-1.5c0,0,0,0,0,0
		C387.6,269.7,388.2,270.4,388.2,271.2C388.2,271.2,388.2,271.2,388.2,271.2z"/>
	<path class="st0" d="M408.6,203c0,0.8-0.6,1.5-1.5,1.5c-0.8,0-1.5-0.6-1.5-1.5c0-0.8,0.6-1.5,1.5-1.5c0,0,0,0,0,0
		C407.9,201.6,408.6,202.2,408.6,203z"/>
	<g>
		<path class="st6" d="M347.9,340.3l-3.8-2.5c10.4-15.6,6.2-36.6-9.4-47c-11.6-7.7-26.8-7.6-38.2,0.4l-2.8-3.6
			c17.4-12.2,41.3-8.1,53.6,9.3C356.5,309.8,356.7,327.1,347.9,340.3z"/>
		<path class="st6" d="M342.7,338l0.6-0.9c10.1-15.1,6-35.5-9.1-45.6c-11.2-7.5-25.9-7.3-37,0.4l-0.8,0.6l-4-5.2l0.9-0.6
			c17.8-12.6,42.5-8.3,55,9.5c9.4,13.4,9.6,31.2,0.5,44.8l-0.6,0.9L342.7,338z M337,290.9c14.5,10.9,18.2,31.1,8.6,46.5l2,1.4
			c11-17.5,5.8-40.5-11.6-51.6c-12.5-7.9-28.4-7.7-40.7,0.5l1.5,1.9C309.1,281.6,325.2,282.1,337,290.9z"/>
		<polygon class="st6" points="340.7,332.6 343.3,332 345,340 352.9,337.8 353.4,340.3 342.9,343.3 		"/>
		<path class="st6" d="M342.1,344.6l-2.6-12.7l4.6-1.1l1.7,8l7.8-2.2l1,4.6L342.1,344.6z M342,333.3l1.7,8.6l8.5-2.4l-0.1-0.5
			l-7.8,2.2l-1.7-8.1L342,333.3z"/>
		<path class="st6" d="M283.3,298.2l3.8,2.5c-10.4,15.6-6.3,36.6,9.3,47c11.6,7.8,26.8,7.6,38.3-0.4l2.8,3.6
			c-17.4,12.2-41.3,8.1-53.6-9.3C274.7,328.7,274.5,311.4,283.3,298.2z"/>
		<path class="st6" d="M291.5,351.1c-16.8-12.6-20.7-36.1-9.1-53.5l0.6-0.9l5.5,3.7l-0.6,0.9c-10.1,15.1-6.1,35.5,9,45.6
			c11.3,7.6,26,7.4,37.1-0.3l0.8-0.6l4,5.2l-0.9,0.6C324,361.8,305.2,361.5,291.5,351.1z M283.6,299.7
			c-10.9,17.5-5.6,40.6,11.9,51.5c12.4,7.8,28.3,7.6,40.5-0.5l-1.5-2c-16.1,10.6-37.8,6.1-48.4-10c-7.5-11.4-7.6-26.2-0.4-37.8
			L283.6,299.7z"/>
		<polygon class="st6" points="290.5,305.9 287.9,306.5 286.2,298.5 278.4,300.7 277.9,298.1 288.3,295.2 		"/>
		<path class="st6" d="M277.6,302l-0.9-4.5l12.5-3.5l2.6,12.7l-4.6,1.1l-1.7-8L277.6,302z M279,298.9l0.1,0.5l7.8-2.2l1.7,8.1
			l0.6-0.1l-1.7-8.6L279,298.9z"/>
	</g>
</g>
</svg>
