<?xml version="1.0" encoding="utf-8"?>
<!-- Generator: Adobe Illustrator 24.2.3, SVG Export Plug-In . SVG Version: 6.00 Build 0)  -->
<svg version="1.1" id="Calque_1" xmlns="http://www.w3.org/2000/svg" xmlns:xlink="http://www.w3.org/1999/xlink" x="0px" y="0px"
	 viewBox="0 0 500 500" style="enable-background:new 0 0 500 500;" xml:space="preserve">
<style type="text/css">
	.st0{fill:#FAFAFA;}
	.st1{fill:#67B7AA;}
	.st2{opacity:0.65;}
	.st3{fill:#FFFFFF;}
	.st4{opacity:0.3;}
	.st5{fill:#E0E0E0;}
	.st6{fill:#EBEBEB;}
	.st7{fill:#F0F0F0;}
	.st8{opacity:0.1;enable-background:new    ;}
	.st9{fill:#37474F;}
	.st10{fill:#455A64;}
	.st11{enable-background:new    ;}
	.st12{clip-path:url(#SVGID_2_);}
	.st13{fill:#529288;}
	.st14{opacity:0.3;fill:#FFFFFF;enable-background:new    ;}
	.st15{opacity:0.6;fill:#FFFFFF;enable-background:new    ;}
	.st16{fill:#263238;}
	.st17{opacity:0.2;}
	.st18{fill:#FFA8A7;}
	.st19{opacity:0.15;enable-background:new    ;}
	.st20{fill:#F28F8F;}
	.st21{opacity:0.6;enable-background:new    ;}
	.st22{fill:#F5F5F5;}
	.st23{opacity:0.5;enable-background:new    ;}
	.st24{opacity:0.35;enable-background:new    ;}
	.st25{opacity:0.45;enable-background:new    ;}
	.st26{opacity:0.4;enable-background:new    ;}
	.st27{opacity:0.25;enable-background:new    ;}
	.st28{opacity:0.4;}
	.st29{fill:#C8856A;}
	.st30{opacity:0.3;enable-background:new    ;}
	.st31{fill:#AF6152;}
	.st32{opacity:0.15;fill:#FFFFFF;enable-background:new    ;}
	.st33{fill:#E6E6E6;}
	.st34{opacity:0.5;}
	.st35{opacity:0.7;}
	.st36{opacity:0.7;fill:#FFFFFF;enable-background:new    ;}
	.st37{opacity:0.2;fill:#67B7AA;enable-background:new    ;}
</style>
<g id="freepik--Floor--inject-15">
	<path id="freepik--floor--inject-15" class="st0" d="M77.7,250.7c-95.2,55-95.2,144,0,199s249.5,55,344.7,0s95.2-144,0-199
		S172.8,195.8,77.7,250.7z"/>
</g>
<g id="freepik--Plant--inject-15">
	<g id="freepik--Plants--inject-15">
		<path class="st1" d="M429.6,296.2l-10.5-6.1c0,0-6.3-26-3.8-49.3c3.5-32.9,25.1-45.2,33.4-42.4s10.6,12.4-3,32
			C437.7,242,427.8,266,429.6,296.2z"/>
		<g class="st2">
			<path class="st3" d="M429.6,296.2l-10.5-6.1c0,0-6.3-26-3.8-49.3c3.5-32.9,25.1-45.2,33.4-42.4s10.6,12.4-3,32
				C437.7,242,427.8,266,429.6,296.2z"/>
		</g>
		<path class="st3" d="M425.3,283.5h0.1c0.4-0.1,0.7-0.5,0.6-0.9c-5.8-30.3,4.8-64.4,17.9-78.5c0.3-0.3,0.3-0.7,0-1s-0.7-0.3-1,0
			c-13.4,14.4-24.1,49-18.3,79.8C424.6,283.2,424.9,283.5,425.3,283.5z"/>
		<path class="st1" d="M456,311.5c1.6,0.8,5.7-2.8,6.9-3.6c2-1.5,3.6-3.5,4.6-5.8c1.1-2.6,1.4-5.5,0.8-8.3c-0.3-1.5-0.7-2.9-1.3-4.3
			c-0.5-1.4-1-2.8-1.4-4.2c-0.6-1.3-0.8-2.8-0.8-4.2c0.2-2.9,2.7-5.1,4.9-6.9c2.5-2.1,5-4.8,4.9-8.2c-0.1-2.7-1.7-5.1-3.4-7.1
			s-3.8-3.8-5.5-5.9c-1.3-1.5-2-3.4-2-5.3c0.1-1.2,0.4-2.4,1-3.4c1.1-2.3,2.6-4.5,3.4-7s0.5-5.5-1.5-7.1c-1.6-1.4-4-1.4-6.1-1.2
			c-2,0.3-3.8,1.1-5.5,2.2c-5.4,3.4-8.2,10.1-13.9,12.7c-2.2,1-4.7,1.4-7,2.1s-4.7,2.1-5.6,4.3c-1.9,4.4,2.3,9.5,1,14.1
			c-1.1,4.1-5,5.9-7,9.6c-0.8,1.7-1.1,3.5-0.8,5.3c0.3,3.1,1.3,6.1,2.7,8.8c1.6,2.8,3.4,5.5,5.3,8.1
			C429.6,296.2,455.8,311.4,456,311.5z"/>
		<g class="st4">
			<path class="st3" d="M456,311.5c1.6,0.8,5.7-2.8,6.9-3.6c2-1.5,3.6-3.5,4.6-5.8c1.1-2.6,1.4-5.5,0.8-8.3
				c-0.3-1.5-0.7-2.9-1.3-4.3c-0.5-1.4-1-2.8-1.4-4.2c-0.6-1.3-0.8-2.8-0.8-4.2c0.2-2.9,2.7-5.1,4.9-6.9c2.5-2.1,5-4.8,4.9-8.2
				c-0.1-2.7-1.7-5.1-3.4-7.1s-3.8-3.8-5.5-5.9c-1.3-1.5-2-3.4-2-5.3c0.1-1.2,0.4-2.4,1-3.4c1.1-2.3,2.6-4.5,3.4-7s0.5-5.5-1.5-7.1
				c-1.6-1.4-4-1.4-6.1-1.2c-2,0.3-3.8,1.1-5.5,2.2c-5.4,3.4-8.2,10.1-13.9,12.7c-2.2,1-4.7,1.4-7,2.1s-4.7,2.1-5.6,4.3
				c-1.9,4.4,2.3,9.5,1,14.1c-1.1,4.1-5,5.9-7,9.6c-0.8,1.7-1.1,3.5-0.8,5.3c0.3,3.1,1.3,6.1,2.7,8.8c1.6,2.8,3.4,5.5,5.3,8.1
				C429.6,296.2,455.8,311.4,456,311.5z"/>
		</g>
		<path class="st3" d="M440.8,303.6L440.8,303.6c0.4,0,0.7-0.4,0.6-0.7l0,0c-2.5-27.3,8.8-58.1,17.8-67.3c0.3-0.3,0.3-0.7,0-1l0,0
			c-0.3-0.3-0.7-0.3-1,0l0,0c-9.1,9.4-20.7,40.7-18.1,68.4C440.1,303.3,440.4,303.6,440.8,303.6L440.8,303.6z"/>
		<path class="st3" d="M443.5,270c0.1,0,0.1,0,0.2,0c8.6-3.2,19.5-4.2,19.7-4.2c0.4,0,0.6-0.4,0.6-0.8l0,0c0-0.4-0.3-0.6-0.7-0.6
			l0,0c-0.1,0-11.2,1.1-20,4.3c-0.4,0.1-0.5,0.5-0.4,0.9C442.9,269.8,443.2,270,443.5,270z"/>
	</g>
</g>
<g id="freepik--Shadows--inject-15">
	<path id="freepik--Shadow--inject-15" class="st5" d="M191.1,458.9c2.1,0,4.2-0.5,6.1-1.5l4.6-2.6c2.6-1.1,3.9-4.1,2.8-6.7
		c-0.5-1.3-1.5-2.3-2.8-2.8l-58.4-33.6c5.4-6,7.8-12.7,6.9-19.5c-1.1-8.7-7.5-16.9-18-23c-11.4-6.6-26.6-10.2-42.7-10.2
		s-31.2,3.6-42.7,10.2C35.2,376,28.7,385,28.7,394.8s6.5,18.9,18.2,25.6c11.4,6.6,26.6,10.2,42.6,10.2l0,0c15.5,0,30.1-3.4,41.4-9.5
		l53.4,35.9C186.3,458.3,188.7,459,191.1,458.9z"/>
	<path id="freepik--shadow--inject-15" class="st5" d="M298.6,453c1.7,4.6,6.6,7.5,14.8,8.5l139.8-81.7l15.2-15.4
		c0.5-0.5,0.4-1.2,0-1.7c-0.3-0.3-0.8-0.4-1.2-0.3l-27.9,9.2L298.6,453z"/>
	<path id="freepik--shadow--inject-15_1_" class="st5" d="M253.3,441.2l-134.6-77.6c-5.3-3.1-5.3-8,0-11.1L313,240.1
		c5.3-3.1,13.9-3.1,19.3,0l134.6,77.6c5.3,3.1,5.3,8,0,11.1L272.6,441.2C267.2,444.3,258.6,444.3,253.3,441.2z"/>
</g>
<g id="freepik--light-bulb--inject-15">
	<g id="freepik--Bulb--inject-15">
		<path class="st6" d="M447.5,168.1l-11.9-4.6c-0.4-0.3-0.5-1-0.2-1.4c0.2-0.3,0.5-0.4,0.9-0.4l11.9,4.6c0.5,0.1,1,0.5,0.9,1.1
			c-0.1,0.5-0.5,1-1.1,0.9C447.8,168.2,447.7,168.2,447.5,168.1z"/>
		<path class="st6" d="M438,175.1c-3.8-1.5-5.7-5.7-4.2-9.5c0.2-0.5,0.7-0.7,1.2-0.5l11.9,4.6c0.5,0.2,0.7,0.7,0.6,1.2l0,0
			C446,174.6,441.8,176.5,438,175.1z"/>
		<path class="st6" d="M469.5,148.5c3.9-10.2-1.1-21.6-11.3-25.6c-0.3-0.1-0.6-0.2-0.9-0.3c-9.9-3.2-20.5,1.8-24.5,11.3
			c-2.7,6.6-1.6,14.1,2.8,19.7c1.2,1.5,1.5,3.4,0.8,5.2c-0.1,0.2-0.1,0.4,0,0.6c0.1,0.2,0.3,0.4,0.5,0.5l1.2,0.4l1.2,0.5
			c0.2-0.6,0.6-1.5,0.7-1.9c1.3-3.4,2.7-6.8,3-10.7c0-0.9,0-1.7-0.1-2.6c-0.5-0.1-1-0.3-1.5-0.4c-0.7-0.2-1.3-0.6-1.8-1.1
			c-0.2-0.2-0.4-0.4-0.6-0.7c-0.6-0.7-0.6-1.8,0-2.5c0.7-0.9,1.8-1.2,2.8-0.7c0.4,0.1,0.7,0.3,1,0.6c0.9,0.8,1.5,1.9,1.7,3
			c1,0,2-0.1,3-0.4c0.5-0.1,1-0.3,1.5-0.6c-0.6-1.8-0.3-3.8,0.7-5.4c0.7-0.9,1.9-1.2,3-0.8c0.3,0.1,0.6,0.3,0.8,0.5
			c0.6,0.5,0.9,1.3,0.9,2.1c-0.3,1.9-1.4,3.5-3.1,4.4c0.2,0.5,0.5,1,0.8,1.4c0.5,0.8,1.1,1.6,1.8,2.2l0.2,0.1c1.3-1,2.9-1.3,4.5-0.9
			c0.3,0.1,0.6,0.3,0.8,0.5c0.6,0.5,0.9,1.2,0.8,2c-0.1,0.9-0.8,1.7-1.7,1.9c-1,0.2-2.1,0.1-3-0.3c-0.5-0.2-0.9-0.4-1.4-0.7
			c-0.6,0.6-1.2,1.2-1.8,1.9c-2.5,3-3.8,6.6-5,10c-0.1,0.4-0.5,1.3-0.7,1.9l1.2,0.5l1.1,0.4c0.4,0.2,0.9,0,1.1-0.5
			c0.7-1.7,2.2-3,4.1-3.3C461.2,159.8,466.9,155,469.5,148.5z M442.8,143.5c-0.2-0.8-0.8-1.5-1.5-1.9c-0.4-0.2-0.9-0.1-1.1,0.3
			c-0.1,0.2-0.1,0.5,0.1,0.7c0.5,0.6,1.1,1,1.8,1.2l0.4,0.2l0.7,0.2L442.8,143.5z M445.5,161.1c1.3-3.4,2.7-7.2,5.4-10.5
			c0.5-0.7,1.1-1.3,1.7-1.8c-1.2-1.1-2.2-2.5-2.9-4c-0.5,0.2-1.1,0.4-1.6,0.6c-1,0.3-2.1,0.5-3.2,0.5c0.1,0.8,0.1,1.7,0,2.5
			c-0.3,4.3-1.9,8.3-3.1,11.4c-0.1,0.3-0.5,1.2-0.7,1.8l3.8,1.4L445.5,161.1z M453,139.3c0-0.7-0.5-1.2-1.2-1.2
			c-0.4,0-0.7,0.1-0.9,0.4c-0.6,1.1-0.8,2.4-0.5,3.6l0.1,0.6l0.5-0.4C452,141.6,452.7,140.5,453,139.3z M458.7,149.1
			c0-0.4-0.2-0.9-0.7-1c-0.8-0.2-1.7-0.1-2.4,0.4l-0.7,0.3l0.7,0.3l0.4,0.2c0.7,0.3,1.4,0.4,2.1,0.3
			C458.4,149.5,458.7,149.4,458.7,149.1L458.7,149.1z"/>
	</g>
</g>
<g id="freepik--Text--inject-15">
	<path id="freepik--text--inject-15" class="st6" d="M399.2,57.7l5.3,14.2l1.7-0.7l-1.7-4.5c-0.9-2.4,1-5.3,4.2-6.5l8-3L427,84.6
		c1.1,2.8-0.3,5.9-3.1,7c0,0,0,0-0.1,0l-5,1.9l0.6,1.5l27.3-10.2l-0.6-1.6l-5,1.9c-2.8,1.1-5.9-0.3-7-3.1l-10.2-27.4l8-3
		c3.2-1.2,6.6-0.2,7.5,2.2l1.7,4.5l1.7-0.6l-5.3-14.2L399.2,57.7z"/>
</g>
<g id="freepik--Gears--inject-15">
	<g id="freepik--gears--inject-15">
		<path id="freepik--Gear--inject-15" class="st7" d="M126.1,44.6l-3.5-1.2c-0.4-0.2-0.7-0.6-0.8-1.1c-0.1-0.7-0.2-1.3-0.3-2
			c0-0.6,0.3-1.2,0.8-1.5l2.2-1.6c0.6-0.4,0.8-1,0.6-1.4l-2.2-3.5c-0.2-0.3-0.9-0.4-1.5-0.1l-2.6,1.2c-0.5,0.3-1.1,0.3-1.6,0
			c-0.6-0.5-1.1-0.9-1.8-1.3c-0.4-0.3-0.6-0.8-0.5-1.3l0.4-3.3c0.1-0.5-0.2-0.9-0.7-1.1l-3.9-0.9c-0.5-0.1-1,0.3-1.2,0.8l-1.1,2.9
			c-0.2,0.5-0.7,0.9-1.3,1c-0.6,0.1-1.1,0.1-1.7,0.3c-0.5,0.1-1.1,0-1.5-0.3l-2.3-2.9c-0.3-0.3-0.9-0.3-1.5,0.1L97.5,29
			c-0.6,0.4-0.9,0.9-0.7,1.3l1.6,3.3c0.1,0.6-0.1,1.2-0.5,1.6c-0.3,0.3-0.5,0.7-0.8,1c-0.3,0.5-0.9,0.9-1.5,0.9l-3.5-0.4
			c-0.5,0-1,0.3-1.1,0.8L90.1,41c-0.1,0.5,0.1,1,0.5,1.2l3.4,1.2c0.4,0.2,0.7,0.6,0.8,1.1c0.1,0.7,0.2,1.3,0.3,2
			c0,0.6-0.3,1.2-0.8,1.5l-2.2,1.6c-0.6,0.4-0.8,1-0.6,1.4l2.2,3.5c0.2,0.3,0.9,0.4,1.5,0.1l2.6-1.2c0.5-0.3,1.1-0.3,1.6,0
			c0.6,0.5,1.1,0.9,1.8,1.3c0.4,0.3,0.6,0.8,0.5,1.3l-0.4,3.3c-0.1,0.5,0.2,0.9,0.7,1.1l3.9,0.9c0.5,0.1,1-0.3,1.2-0.8l1.1-2.9
			c0.2-0.5,0.7-0.9,1.3-1c0.6,0,1.1-0.1,1.7-0.3c0.5-0.2,1.1,0,1.5,0.3l2.4,2.8c0.3,0.3,0.9,0.3,1.5-0.1l2.8-1.7
			c0.6-0.3,0.9-0.9,0.7-1.3l-1.6-3.3c-0.1-0.6,0.1-1.2,0.5-1.6c0.3-0.3,0.5-0.7,0.8-1c0.3-0.5,0.9-0.9,1.5-0.9l3.5,0.4
			c0.5,0,1-0.3,1.1-0.8l0.9-3.5C126.8,45.3,126.6,44.8,126.1,44.6z M116.1,45.2c-1.1,4.2-5.4,6.8-9.6,5.7c-4.1-0.9-6.7-4.9-5.9-9
			c0-0.1,0-0.2,0.1-0.2c1.1-4.2,5.4-6.7,9.6-5.7c4.1,0.9,6.7,5,5.9,9.1C116.1,45.1,116.1,45.1,116.1,45.2z"/>
		<path id="freepik--gear--inject-15" class="st7" d="M85.9,59.2l-6-0.5c-0.8-0.1-1.4-0.7-1.7-1.4c-0.3-1-0.8-2-1.3-3
			c-0.2-1,0-2,0.7-2.7l2.8-3.5c0.7-0.9,0.9-2,0.5-2.4L76.1,41c-0.5-0.5-1.5-0.3-2.4,0.4L70,44.3c-0.7,0.6-1.7,0.9-2.6,0.7
			c-1.1-0.5-2.2-1-3.3-1.3c-0.7-0.3-1.3-1-1.3-1.8l-0.6-5.4c-0.1-0.8-0.7-1.4-1.5-1.5l-6.6,0.1c-0.9,0.1-1.5,0.8-1.6,1.7l-0.6,5
			c-0.1,1-0.8,1.8-1.7,2.2c-0.9,0.3-1.7,0.6-2.5,1s-1.7,0.5-2.5,0.1l-4.8-3.7c-0.5-0.4-1.6-0.1-2.4,0.7l-3.8,3.7
			c-0.8,0.8-1.1,1.8-0.7,2.3l3.8,4.6c0.4,0.5,0.3,1.7-0.2,2.7c-0.3,0.6-0.6,1.3-0.8,1.9c-0.3,1-1,1.7-2,2L28.6,60
			c-0.8,0.2-1.4,0.9-1.4,1.8v5.9c-0.1,0.8,0.5,1.5,1.3,1.7l6,0.6c0.8,0.1,1.4,0.7,1.7,1.4c0.3,1,0.8,2,1.3,3c0.2,1,0,2-0.7,2.7
			L34,80.6c-0.7,0.9-0.9,2-0.5,2.4l4.8,4.7c0.5,0.5,1.5,0.3,2.4-0.4l3.7-3c0.7-0.6,1.6-0.8,2.5-0.6c1.1,0.5,2.2,1,3.3,1.3
			c0.7,0.3,1.3,1,1.3,1.8l0.6,5.4c0.1,0.8,0.7,1.4,1.5,1.5l6.6-0.1c0.9-0.1,1.5-0.8,1.6-1.7l0.6-5c0.1-1,0.8-1.8,1.7-2.2
			c0.9-0.3,1.7-0.6,2.5-1s1.7-0.5,2.5-0.1l4.8,3.7c0.5,0.4,1.6,0.1,2.4-0.7l3.7-3.7c0.8-0.8,1.1-1.8,0.7-2.3L77,75.9
			c-0.4-0.5-0.3-1.7,0.2-2.7c0.3-0.6,0.6-1.2,0.8-1.9c0.3-1,1-1.7,2-2l5.7-0.7c0.8-0.2,1.4-0.9,1.4-1.8v-5.9
			C87.2,60.1,86.7,59.4,85.9,59.2z M70.2,64.2C70,71.3,64.3,77,57.2,77c-6.9,0.2-12.6-5.2-12.8-12.1c0-0.1,0-0.3,0-0.4
			c0.2-7.1,5.9-12.8,13-12.9c6.9-0.2,12.6,5.2,12.8,12.1C70.2,63.9,70.2,64,70.2,64.2z"/>
	</g>
</g>
<g id="freepik--Thesis--inject-15">
	<g id="freepik--thesis--inject-15">
		<path class="st5" d="M66.6,136.5v228.8c-1.1,0-2.3-0.3-3.3-0.8h-0.1l-0.1-0.1l-20.9-12.1l0,0V122.5l21,12.1L66.6,136.5L66.6,136.5
			L66.6,136.5z"/>
		<polygon class="st6" points="188.4,38 42.2,122.4 66.6,136.5 212.8,52.1 		"/>
		<path class="st0" d="M213.1,281.8L78.7,359.3l-8.7,5c-1.1,0.6-2.2,0.9-3.5,0.9V136.5l0,0l2.8-1.6l0.6-0.4l0,0H70l8.7-5L212.8,52
			L213.1,281.8z"/>
		<polygon class="st5" points="66.6,136.5 66.6,136.5 66.6,136.5 139.5,94.1 212.6,51.8 213.1,51.5 213.1,52.1 213.4,166.9 
			213.5,281.8 213.5,282 213.3,282.1 141.7,323.3 70,364.4 141.4,322.8 212.9,281.5 212.7,281.8 212.4,166.9 212.4,52.1 213,52.4 
			139.8,94.5 66.6,136.5 		"/>
		<polygon class="st8" points="58,244.9 60.2,132.9 122.8,93.8 57.3,131.1 		"/>
		<polygon class="st8" points="51.4,273.8 51.5,127.9 174.4,57.8 48.7,126.2 		"/>
		<path class="st8" d="M199,55c0.3,0.5,0.4,0.9,0.4,0.9l-40,23.1l31.8-29.2C195.1,50.5,197.6,52.4,199,55z"/>
		<polygon class="st0" points="159.4,78.9 199.4,55.8 199.6,49.5 		"/>
		<path class="st5" d="M192.4,165.2l-92,53.1c-1.2,0.7-2.1,0-2.1-1.6l0,0c0-1.6,0.8-3.1,2.1-4l92-53.1c1.2-0.7,2.1,0,2.1,1.6l0,0
			C194.5,162.8,193.7,164.3,192.4,165.2z"/>
		<path class="st5" d="M176.2,188.6L116.6,223c-1.2,0.7-2.1,0-2.1-1.6l0,0c0-1.6,0.8-3.1,2.1-4l59.6-34.4c1.2-0.7,2.1,0,2.1,1.6l0,0
			C178.3,186.2,177.5,187.7,176.2,188.6z"/>
		<path class="st5" d="M192.4,254.6l-92,53.1c-1.2,0.7-2.1,0-2.1-1.6l0,0c0-1.6,0.8-3.1,2.1-4l92-53.1c1.2-0.7,2.1,0,2.1,1.6l0,0
			C194.5,252.2,193.7,253.7,192.4,254.6z"/>
		<path class="st5" d="M176.2,278l-59.6,34.4c-1.2,0.7-2.1,0-2.1-1.6l0,0c0-1.6,0.8-3.1,2.1-4l59.6-34.4c1.2-0.7,2.1,0,2.1,1.6l0,0
			C178.3,275.6,177.5,277.1,176.2,278z"/>
		<path class="st5" d="M176.2,160.3l-59.6,34.4c-1.2,0.7-2.1,0-2.1-1.6l0,0c0-1.6,0.8-3.1,2.1-4l59.6-34.4c1.2-0.7,2.1,0,2.1,1.6
			l0,0C178.3,157.9,177.5,159.4,176.2,160.3z"/>
		<path class="st9" d="M66.6,357v8.3c-1.1,0-2.3-0.3-3.3-0.8h-0.1l-0.1-0.1l-20.9-12.1l0,0V122.5l20.9,12.1c0.1,0,0.1,0.1,0.2,0.1
			c1,0.6,2.2,0.9,3.3,0.9L66.6,357L66.6,357z"/>
		<path class="st10" d="M78.7,129.5v229.8l-8.7,5c-1.1,0.6-2.2,0.9-3.5,0.9V135.4c1.2,0,2.4-0.3,3.4-0.9l0,0H70L78.7,129.5z"/>
		<g>
			<g>
				<g class="st11">
					<g>
						<defs>
							<polygon id="SVGID_1_" points="97.2,169.9 97.2,152.3 194.3,96.3 194.3,113.9 							"/>
						</defs>
						<clipPath id="SVGID_2_">
							<use xlink:href="#SVGID_1_"  style="overflow:visible;"/>
						</clipPath>
						<g class="st12">
							<g>
								<g>
									<g>
										<polyline class="st13" points="114.2,142.5 111.3,144.2 105.8,158.2 100.1,150.7 97.2,152.3 97.2,169.7 100.5,167.8 
											100.5,157.6 105,163.4 106.5,162.5 111,151.3 111,161.8 114.3,159.9 114.2,142.5 										"/>
										<path class="st13" d="M120.2,149.8c0-2.3,1.3-4.5,3-5.4c1.7-1,3-0.3,3,2s-1.3,4.4-3,5.4
											C121.5,152.7,120.2,152.1,120.2,149.8 M123.2,141.2c-3.7,2.1-6.4,6.6-6.4,10.6s2.7,5.3,6.4,3.2c3.7-2.1,6.4-6.5,6.4-10.6
											C129.6,140.3,126.9,139,123.2,141.2"/>
										<path class="st13" d="M138.9,132.1c-1.6,0.9-2.9,2.3-3.8,4v-1.6l-3.2,1.9v13.4l3.4-1.9v-6.6c0-2.5,1.2-4.3,2.8-5.2
											c1.5-0.9,2.4-0.4,2.4,1.8v7.1l3.4-1.9v-7.7C143.7,131.2,141.6,130.5,138.9,132.1"/>
										<path class="st13" d="M156.6,121.3l2.9-1.6c2.1-1.2,3.2-0.7,3.2,1.2c0,1.9-1.1,3.6-3.2,4.9l-2.9,1.6V121.3 M159.7,116.3
											l-6.6,3.8v17.4l3.5-2v-4.8l3.1-1.8c4-2.3,6.6-6.2,6.6-10.1C166.2,114.9,163.7,113.9,159.7,116.3"/>
										<polyline class="st13" points="180.2,104.4 168.7,111 168.8,128.4 172.3,126.4 172.3,120.1 179.3,116 179.3,112.8 
											172.3,116.8 172.2,112.2 180.2,107.7 180.2,104.4 										"/>
										<polyline class="st13" points="194,96.4 182.6,103 182.6,120.5 194.3,113.7 194.3,110.4 186.1,115.2 186.1,111.2 
											193.1,107.1 193.1,104 186.1,108 186.1,104.3 194,99.7 194,96.4 										"/>
									</g>
								</g>
							</g>
						</g>
					</g>
				</g>
			</g>
		</g>
	</g>
</g>
<g id="freepik--magnifying-glass--inject-15_1_">
	<g id="freepik--magnifying-glass--inject-15">
		<path class="st1" d="M32.9,377.5v15.3c0,8.3,5.5,16.5,16.4,22.9c21.9,12.6,57.3,12.6,79.2,0c10.9-6.3,16.4-14.6,16.4-22.9v-15.3
			l0,0c0-8.3-5.5-16.6-16.4-22.9c-21.9-12.6-57.3-12.6-79.2,0C38.3,361,32.9,369.3,32.9,377.5z M139.5,377.5
			c0,6.6-4.9,13.1-13.7,18.2c-9.8,5.6-22.9,8.8-36.9,8.8s-27.1-3.1-36.9-8.8c-8.8-5.1-13.7-11.6-13.7-18.2s4.9-13.1,13.7-18.2
			c9.8-5.6,22.9-8.8,36.9-8.8s27.1,3.1,36.9,8.8C134.6,364.5,139.5,370.9,139.5,377.5L139.5,377.5z"/>
		<path class="st14" d="M128.5,354.7c-21.9-12.6-57.3-12.6-79.2,0s-21.9,33.1,0,45.7s57.3,12.6,79.2,0S150.4,367.3,128.5,354.7z
			 M125.8,395.7c-9.8,5.6-22.9,8.8-36.9,8.8s-27.1-3.1-36.9-8.8c-8.8-5.1-13.7-11.6-13.7-18.2s4.9-13.1,13.7-18.2
			c9.8-5.6,22.9-8.8,36.9-8.8s27.1,3.1,36.9,8.8c8.8,5.1,13.7,11.6,13.7,18.2S134.6,390.6,125.8,395.7L125.8,395.7z"/>
		<path class="st1" d="M139.5,377.5c0,2.7-0.8,5.3-2.2,7.6c-2.2-3.9-6.1-7.5-11.5-10.6c-9.8-5.6-22.9-8.8-36.9-8.8
			S61.8,369,52,374.6c-5.4,3.1-9.3,6.7-11.5,10.6c-1.4-2.3-2.1-4.9-2.2-7.6c0-6.6,4.9-13.1,13.7-18.2c9.8-5.6,22.9-8.7,36.9-8.7
			s27.1,3.1,36.9,8.7C134.6,364.5,139.5,370.9,139.5,377.5z"/>
		<path class="st8" d="M139.5,377.5c0,2.7-0.8,5.3-2.2,7.6c-2.2-3.9-6.1-7.5-11.5-10.6c-9.8-5.6-22.9-8.8-36.9-8.8
			S61.8,369,52,374.6c-5.4,3.1-9.3,6.7-11.5,10.6c-1.4-2.3-2.1-4.9-2.2-7.6c0-6.6,4.9-13.1,13.7-18.2c9.8-5.6,22.9-8.7,36.9-8.7
			s27.1,3.1,36.9,8.7C134.6,364.5,139.5,370.9,139.5,377.5z"/>
		<path class="st15" d="M125.8,366.3c-9.8-5.6-22.9-8.7-36.9-8.7s-27.1,3.1-36.9,8.7c-7.3,4.2-11.9,9.3-13.3,14.7
			c1.4,5.4,6,10.5,13.3,14.7c9.8,5.6,22.9,8.8,36.9,8.8s27.1-3.1,36.9-8.8c7.3-4.2,11.9-9.3,13.3-14.7
			C137.7,375.6,133.1,370.5,125.8,366.3z"/>
		<path class="st8" d="M102.1,409v15.2c9.3-1.1,18.2-4,26.4-8.6c10.9-6.3,16.4-14.6,16.4-22.9v-15.3c0-1.7-0.2-3.4-0.7-5l0,0
			c2.6,9.9-2.6,20.3-15.7,27.9C120.9,404.8,111.8,407.6,102.1,409z"/>
		<path class="st9" d="M126.8,410.1c0.1-2.8,1.6-5.3,3.9-6.8c0.8-0.6,1.9-0.7,2.8-0.3l0,0l18.9,10.8l0,0c0.8,0.6,1.3,1.5,1.1,2.5
			c-0.1,2.8-1.6,5.3-3.9,6.8c-0.8,0.6-1.9,0.7-2.8,0.3l0,0L128,412.6l0,0C127.2,412.1,126.7,411.1,126.8,410.1z"/>
		<path class="st16" d="M128,412.6c-0.8-0.6-1.3-1.5-1.2-2.5c0-1,0.2-2,0.7-2.9l24.3,13.9c-0.6,0.8-1.3,1.5-2.2,2
			c-0.8,0.6-1.9,0.7-2.8,0.3L128,412.6z"/>
		<path class="st1" d="M146.4,423.1c0.2-3.6,2.1-6.9,5.1-8.9c1-0.7,2.4-0.9,3.6-0.4l0,0l0,0l0,0l47.7,24.5l-9.3,16.5L148,426.4
			C146.9,425.6,146.3,424.4,146.4,423.1z"/>
		<path class="st8" d="M193.5,454.8L148,426.4c-1.1-0.7-1.6-2-1.5-3.3c0.1-1.9,0.7-3.8,1.7-5.4l50.2,28.6L193.5,454.8z"/>
		<path class="st1" d="M198.2,454.3c3.9-2.6,6.4-6.9,6.6-11.6c0-4.3-3-6-6.7-3.8c-3.9,2.6-6.4,6.9-6.6,11.6
			C191.5,454.7,194.5,456.4,198.2,454.3z"/>
		<g class="st17">
			<path d="M198.2,454.3c3.9-2.6,6.4-6.9,6.6-11.6c0-4.3-3-6-6.7-3.8c-3.9,2.6-6.4,6.9-6.6,11.6
				C191.5,454.7,194.5,456.4,198.2,454.3z"/>
		</g>
	</g>
</g>
<g id="freepik--Pencil--inject-15">
	<g id="freepik--pencil--inject-15">
		<path class="st18" d="M440.4,361.4l24.8-4.9c0.4-0.1,0.8,0.2,0.9,0.6c0,0.2,0,0.5-0.2,0.7L449,376.9L440.4,361.4z"/>
		<path class="st16" d="M465.9,357.8c0.3-0.3,0.2-0.8-0.1-1.1c-0.2-0.2-0.4-0.2-0.7-0.2l-4.9,1l0,0c1.4,0.8,2.1,2.4,2,4v0.4
			L465.9,357.8z"/>
		<path class="st10" d="M333.2,443.4l2-1.2l2.5-1.4l111.4-64c0.8-2.7,0.6-5.7-0.7-8.2c-1.8-3.9-5.2-7.1-8-7.2l-111.3,64l-4.7,2.6
			C327.5,426.5,336.4,441.8,333.2,443.4z"/>
		<path class="st6" d="M341,439l4.5-2.6c1.3-0.7,0.6-4-1-7.4c-2.1-4.5-6.1-8.9-7.9-8l-3.4,1.9l-1.2,0.7c1.8-0.9,5.9,3.4,7.9,8
			c1.5,3.3,2.3,6.4,1.1,7.3l0,0C341.1,439,341,439,341,439z"/>
		<path class="st6" d="M333.2,443.4l4.5-2.6c3.1-1.6-5.4-16.5-8.6-15.5c-0.1,0-0.1,0-0.2,0.1l-4.5,2.6
			C327.5,426.5,336.4,441.8,333.2,443.4z"/>
		<path class="st19" d="M466,356.9l-0.8-0.4l-18,9.9l-116.4,66.9c-0.2-0.3-0.3-0.3-0.4-0.1c2.6,4.1,4.6,9.3,2.9,10.2l2-1.2l2.5-1.4
			l111.4-64l0,0l16.9-19.1C466.1,357.5,466.2,357.2,466,356.9z"/>
		<path class="st20" d="M314.2,454.3l19-10.9c1.3-0.7,0.6-4-0.9-7.3c-2.1-4.5-6.1-9-7.9-8l0,0l-19.1,11c-3.8,2.2-0.3,10.4,3.9,14.1
			C310.8,454.5,312.5,455.1,314.2,454.3z"/>
		<path class="st8" d="M315.3,448.4c-1.1-4.3-4.6-8.5-7.8-9.4c-1-0.3-2-0.2-2.9,0.4c-2.9,2.7,0.5,10.2,4.5,13.7
			c1.5,1.4,3.3,2,4.9,1.3C315.5,453.5,316.1,451.3,315.3,448.4z"/>
	</g>
</g>
<g id="freepik--Character--inject-15">
	<g id="freepik--Books--inject-15">
		<g id="freepik--Book--inject-15">
			<polygon class="st1" points="146.4,358.2 265.8,425.6 449.2,320.4 329.8,252.9 			"/>
			<polygon class="st21" points="146.4,358.2 265.8,425.6 449.2,320.4 329.8,252.9 			"/>
			<path class="st22" d="M267.1,420.7l-115.4-65.6c2.9-8.1,2.6-10.6-0.6-21.4l114.7,64.9C265.8,398.6,267.9,398.4,267.1,420.7z"/>
			<path class="st1" d="M260.2,389.7c5.8,3.3,10.5,11.5,10.5,18.1V422c0,6.7-4.7,9.4-10.5,6l-113.8-64.6v-5.3l112.4,63.4
				c3.5,2,6.3,0.4,6.3-3.6l-0.1-12.6c-0.3-4.4-2.6-8.5-6.3-10.9L146.4,331v-6L260.2,389.7z"/>
			<path class="st23" d="M260.2,389.7c5.8,3.3,10.5,11.5,10.5,18.1V422c0,6.7-4.7,9.4-10.5,6l-113.8-64.6v-5.3l112.4,63.4
				c3.5,2,6.3,0.4,6.3-3.6l-0.1-12.6c-0.3-4.4-2.6-8.5-6.3-10.9L146.4,331v-6L260.2,389.7z"/>
			<path class="st1" d="M146.4,325l183.4-105.2l113.8,64.6c5.8,3.3,10.5,11.5,10.5,18.1v14.2c0,3.3-1.2,5.7-3.1,6.8L267.7,428.8
				c1.9-1.1,3.1-3.5,3.1-6.8v-14.2c0-6.7-4.7-14.8-10.5-18.1L146.4,325z"/>
			<path class="st24" d="M146.4,325l183.4-105.2l113.8,64.6c5.8,3.3,10.5,11.5,10.5,18.1v14.2c0,3.3-1.2,5.7-3.1,6.8L267.7,428.8
				c1.9-1.1,3.1-3.5,3.1-6.8v-14.2c0-6.7-4.7-14.8-10.5-18.1L146.4,325z"/>
			<path class="st1" d="M267.7,397.5c1.9,3.1,3,6.7,3.1,10.3V422c0,3.3-1.2,5.7-3.1,6.8l183.4-105.2c1.9-1.1,3.1-3.5,3.1-6.8v-14.2
				c-0.1-3.6-1.2-7.2-3.1-10.3L267.7,397.5z"/>
			<path class="st25" d="M267.7,397.5c1.9,3.1,3,6.7,3.1,10.3V422c0,3.3-1.2,5.7-3.1,6.8l183.4-105.2c1.9-1.1,3.1-3.5,3.1-6.8v-14.2
				c-0.1-3.6-1.2-7.2-3.1-10.3L267.7,397.5z"/>
			<path class="st1" d="M426.3,306.3c3.4,14.8,3.4,20.6,0,31.5l-8.7,5c3.4-10.9,3.4-16.7,0-31.5L426.3,306.3z"/>
			<path class="st1" d="M306,375.5c3.4,14.8,3.4,20.5,0,31.3l-8.7,5c3.4-10.9,3.4-16.5,0-31.3L306,375.5z"/>
		</g>
		<g id="freepik--book--inject-15">
			<polygon class="st1" points="122.3,323.3 241.7,390.7 425.1,285.5 305.7,218 			"/>
			<polygon class="st26" points="122.3,323.3 241.7,390.7 425.1,285.5 305.7,218 			"/>
			<path class="st22" d="M243,385.8l-115.3-65.6c2.9-8.1,2.7-11.8-0.6-22.6l114.7,64.9C241.7,362.5,243.8,363.5,243,385.8z"/>
			<path class="st1" d="M236.1,353.6c5.8,3.3,10.5,11.5,10.5,18.1v15.4c0,6.7-4.7,9.4-10.6,6l-113.8-64.6v-5.3l112.4,63.4
				c3.5,2,6.3,0.4,6.3-3.6l-0.1-13.8c-0.3-4.4-2.6-8.5-6.3-10.9l-112.2-63.4v-6L236.1,353.6z"/>
			<path class="st27" d="M236.1,353.6c5.8,3.3,10.5,11.5,10.5,18.1v15.4c0,6.7-4.7,9.4-10.6,6l-113.8-64.6v-5.3l112.4,63.4
				c3.5,2,6.3,0.4,6.3-3.6l-0.1-13.8c-0.3-4.4-2.6-8.5-6.3-10.9l-112.2-63.4v-6L236.1,353.6z"/>
			<path class="st1" d="M122.3,289l183.4-105.3l113.8,64.6c5.8,3.3,10.5,11.5,10.5,18.1v15.4c0,3.3-1.2,5.7-3.1,6.8L243.6,393.9
				c1.9-1.1,3.1-3.5,3.1-6.8v-15.4c0-6.7-4.7-14.8-10.5-18.1L122.3,289z"/>
			<path class="st1" d="M243.6,361.4c1.9,3.1,3,6.7,3.1,10.3v15.4c0,3.3-1.2,5.7-3.1,6.8L427,288.7c1.9-1.1,3.1-3.5,3.1-6.8v-15.4
				c-0.1-3.6-1.2-7.2-3.1-10.3L243.6,361.4z"/>
			<path class="st19" d="M243.6,361.4c1.9,3.1,3,6.7,3.1,10.3v15.4c0,3.3-1.2,5.7-3.1,6.8L427,288.7c1.9-1.1,3.1-3.5,3.1-6.8v-15.4
				c-0.1-3.6-1.2-7.2-3.1-10.3L243.6,361.4z"/>
			<path class="st1" d="M402.2,270.3c3.4,14.8,3.4,21.8,0,32.7l-8.7,5c3.4-10.9,3.4-17.9,0-32.7L402.2,270.3z"/>
			<path class="st1" d="M281.9,339.5c3.4,14.8,3.4,21.6,0,32.5l-8.7,5c3.4-10.9,3.4-17.6,0-32.5L281.9,339.5z"/>
			<g class="st28">
				<path class="st3" d="M402.2,270.3c3.4,14.8,3.4,21.8,0,32.7l-8.7,5c3.4-10.9,3.4-17.9,0-32.7L402.2,270.3z"/>
				<path class="st3" d="M281.9,339.5c3.4,14.8,3.4,21.6,0,32.5l-8.7,5c3.4-10.9,3.4-17.6,0-32.5L281.9,339.5z"/>
			</g>
		</g>
	</g>
	<g id="freepik--character--inject-15">
		<g id="freepik--Bottom--inject-15">
			<path class="st29" d="M307.2,255.8l-8.5-16.8l-17.1,10l21.1,25c0,0,10.5-1,12.2-6.4S310.1,257.6,307.2,255.8z"/>
			<path class="st16" d="M319.3,262.4c1,0.7,1.8,1.6,2.4,2.6c0.7,1,0.5,6,1.1,8.3s1.2,2.9,2.3,5.8c1.2,3.2,3.5,6.1,0.9,14.4
				s-6.6,12.1-10.1,14.2c-1.3,0.7-2.7,1-4.2,1c0,0-4.5-1.7-3.8-4.4S319.3,262.4,319.3,262.4z"/>
			<path class="st10" d="M299.5,271.4c0.1,0.9,1.3,2.1,1.8,2.9c1.6,2.3,2.4,5.5,2.9,8.2c2.7,13-2.5,19.6,4.5,24.5
				c2,1.3,6.3,0.9,12.6-7.3c3.3-4.2,5.1-12.8,3.9-16.7s-3-6.4-3.9-9.5s-0.4-8.6-2-11.2c-1.1-1.5-2.5-2.7-4.1-3.5
				c-1.3-0.8-4-1.8-5.2-2.5s-2-1.5-2.8-0.6l1.5,1.8c2.3,3.2,1.6,3.6,1.6,5.3c0.1,1.8,0.4,3.6,0.9,5.4c-1.6-2-2.3-3.8-4.1-3.5
				s-2,0.2-4.5,2.6S299.4,270.7,299.5,271.4z"/>
			<path class="st9" d="M321.3,299.8c3.3-4.2,5.1-12.8,3.9-16.7c-0.4-1.3-0.9-2.5-1.5-3.8c0.1,0.3,0.1,0.5,0.2,0.8
				c0.1,0.5,0.1,1,0.2,1.5c0.3,2,0.1,4-0.6,5.9c-0.7,1.6-2.4,5.7-4.6,5.8c-1.2,0-2.3-1.2-2.8-2.5c-0.2-0.6-0.5-2.2-0.5-2.2
				c-2,0.5-3.9,1.3-5.7,2.3c-3.2,2.1-3.1,2.6-3.1,2.6c0.2,0.9,0.2,1.9,0.1,2.8c-0.2,1-0.6,2-1.2,2.8c-0.2,0.2-0.5,0.5-0.8,0.6
				c0.1,3,0.9,5.4,3.9,7.4C310.7,308.3,314.9,308,321.3,299.8z"/>
			<path class="st9" d="M304.2,282.5c0.7,3.4,1,6.9,0.8,10.4c1.2,3.3,2.2,3.2,2.4,1.5s-2.2-8.9-3.9-14.8
				C303.8,280.6,304,281.6,304.2,282.5z"/>
			<path class="st9" d="M312.1,261.6c0.1-1.7-0.3-3.4-1.3-4.8c-0.3-0.1-0.6-0.3-0.8-0.4c-1.4-0.8-2-1.5-2.8-0.6l1.5,1.8
				c2.3,3.2,1.6,3.6,1.6,5.3c0.1,1.8,0.4,3.6,0.9,5.4c1.3,5.7,2.5,7.5,3.2,12.9s-0.5,8.9,0.3,9.2s2.3-0.3,2.5-4.6
				s-1.6-11.5-2.9-14.9S311.9,263.9,312.1,261.6z"/>
			<path class="st6" d="M315.9,288.9c-0.1,0.1-0.2,0.1-0.3,0.1c-3.4,0.5-6.5,2.3-8.5,5c-0.2,0.2-0.5,0.2-0.8,0.1
				c-0.2-0.2-0.2-0.5-0.1-0.8c2.2-2.9,5.5-4.9,9.1-5.4c0.3-0.1,0.6,0.1,0.6,0.4C316,288.6,316,288.8,315.9,288.9z"/>
			<path class="st6" d="M315.2,284.4c-0.1,0.1-0.2,0.1-0.3,0.1c-3.6,0.6-6.8,2.6-9,5.5c-0.2,0.2-0.5,0.3-0.7,0.1l0,0
				c-0.2-0.2-0.3-0.5-0.1-0.8c2.4-3.1,5.8-5.2,9.6-5.8c0.3-0.1,0.6,0.1,0.6,0.4C315.4,284.1,315.3,284.3,315.2,284.4z"/>
			<path class="st6" d="M315.3,279.5c-0.1,0.1-0.2,0.1-0.3,0.2c-4,0.7-7.6,2.9-10.1,6.1c-0.2,0.3-0.6,0.3-0.9,0.1s-0.3-0.6-0.1-0.9
				l0,0c2.6-3.4,6.4-5.8,10.7-6.5c0.3-0.1,0.6,0.1,0.7,0.5C315.5,279.1,315.4,279.4,315.3,279.5z"/>
			<path class="st6" d="M314.6,275.3c-0.1,0.1-0.2,0.1-0.3,0.2c-3.9,0.7-7.4,2.8-9.8,6c-0.2,0.2-0.6,0.3-0.8,0.1
				c-0.2-0.2-0.3-0.6-0.1-0.8c2.6-3.4,6.3-5.6,10.4-6.4c0.3-0.1,0.6,0.1,0.7,0.4C314.8,275,314.7,275.2,314.6,275.3L314.6,275.3z"/>
			<path class="st6" d="M313,271.3c-0.1,0.1-0.2,0.1-0.3,0.2c-3.9,0.7-7.4,2.8-9.8,6c-0.2,0.2-0.6,0.3-0.8,0.1
				c-0.2-0.2-0.3-0.6-0.1-0.8c2.6-3.4,6.3-5.6,10.5-6.4c0.3-0.1,0.6,0.1,0.7,0.4l0,0C313.2,270.9,313.1,271.1,313,271.3z"/>
			<path class="st10" d="M329.1,197.3c0,0-44.3-7.5-61.6-7.4c-17.6,0.1-19.3,13.4-14.9,21.5c8.5,15.5,37.9,48.5,37.9,48.5
				s9.9-4.5,12.9-13.1l-6.7-15.4l21.1,6.8l10.8-7.2l0.9-5.5L329.1,197.3z"/>
			<polygon class="st29" points="299.1,247.8 286.6,254.9 279.8,257.7 284.6,272.3 306.1,266.1 			"/>
			<path class="st16" d="M253.5,260.5c-5,1.1-8.2,2.4-10.9,4.9s-3.8,5.2-2.3,9s4.6,8.4,9.1,8.9s7.5-0.2,12-1.7L253.5,260.5z"/>
			<path class="st10" d="M290.3,270.7c-0.2,1.4-6.6,3.2-13.2,5.1c-7.1,2-9.1,3.8-14.9,5.5c-6.7,2-9,1.8-13.6-0.4s-9.3-10-4.1-15.5
				c4.2-4.6,8.8-5.2,15.6-5.9c5.4-0.4,10.9-1.2,16.2-2.4c5.1-1,9.5-3.7,10.3-2.4c-0.7,0.2-6.2,2.4-5.4,3.4c0.2,0.5,0.9,0.5,2.2,0.2
				c0.6-0.2,1.2-0.1,1.7,0.2c0.5,0.4,0.8,1,1,1.7c0.4,1.3,0.6,2.7,0.9,4c0.2,0.9,0.2,0.4,0.4,1.3s0.7,2.7,0.5,3.5
				c-0.1,0.5-0.6,0.6-1,0.8s-1.1,0.4-1.5,0.6c-0.2,0.1-0.5,0.5-0.5,0.7s1,0.4,1.4,0.3s1-0.1,1.5-0.2S289.1,271,290.3,270.7z"/>
			<path class="st9" d="M264.4,280.7c-1,0.3-7,2-8.5,0.1c-1.6-2,3.3-3.9,3.3-3.9s1.4-4.1-2.6-11.1c-1,0.5-4.7-0.1-4.3-2.3
				s7-3.8,7.1-3.8c-6.6,0.6-11,1.4-15.1,5.8c-5.1,5.6-0.4,13.4,4.1,15.5s6.9,2.4,13.6,0.4C262.8,281.2,263.9,281,264.4,280.7z"/>
			<path class="st9" d="M258.8,276.4c-2.5,0.4-1.2,2.8,2.3,2.7c5.3-0.2,10-2.4,16-3.2c6.6-1.9,13.4-3.6,13.2-5.2
				c-1.2,0.2-3.7,0.8-3.7,0.8c-0.5,0.1-1.8,0.4-1.8,0.4c-5,1.2-10.7,3.6-16,4.1C264.2,276.4,261.2,276,258.8,276.4z"/>
			<path class="st9" d="M256.8,266.6c2.3-0.9,2.9-1.9,7.4-3.1s12.3-4.1,17.1-5.9c1.8-0.8,3.6-1.7,5.3-2.7c-0.6-0.9-3.4-0.6-6.3,0.6
				c-2.9,1.2-4.7,2-7.6,3c-5.6,2.2-11.8,3.3-15.1,4.7S254.5,267.5,256.8,266.6z"/>
			<path class="st7" d="M256.6,266c0,0.1,0,0.1,0.1,0.2c1.8,3.4,2.6,7.2,2.3,11c0,0.3,0.2,0.6,0.5,0.7c0.3,0,0.5-0.2,0.6-0.5
				c0,0,0,0,0-0.1c0.4-4.1-0.4-8.2-2.5-11.8c-0.1-0.2-0.5-0.3-0.7-0.2c0,0,0,0-0.1,0C256.6,265.5,256.6,265.8,256.6,266z"/>
			<path class="st7" d="M261.3,263.7c0,0.1,0,0.1,0.1,0.2c2.1,4,3.1,8.5,2.9,13c0,0.3,0.2,0.6,0.5,0.7c0.3,0,0.5-0.2,0.5-0.5
				c0,0,0,0,0-0.1c0.2-4.8-0.8-9.5-3.1-13.8c-0.1-0.2-0.4-0.3-0.7-0.2c0,0,0,0-0.1,0C261.3,263.2,261.2,263.4,261.3,263.7z"/>
			<path class="st7" d="M268.4,277.1c0.1,0.2,0.2,0.4,0.4,0.5c0.3,0.1,0.5-0.1,0.6-0.4v-0.1c1-7.5-2.6-15.3-2.8-15.6
				c-0.1-0.2-0.4-0.3-0.7-0.2c0,0,0,0-0.1,0c-0.2,0.2-0.3,0.6-0.1,0.8c0,0.1,3.5,7.7,2.6,14.7C268.3,276.9,268.3,277,268.4,277.1z"
				/>
			<path class="st7" d="M272.6,275.3c0,0.2,0.2,0.4,0.4,0.5c0.3,0.1,0.5-0.1,0.6-0.4c0,0,0,0,0-0.1c0.7-5.2-0.4-10.5-3.2-14.9
				c-0.1-0.2-0.4-0.3-0.7-0.1c0,0-0.1,0-0.1,0.1c-0.2,0.2-0.2,0.6,0,0.8c2.5,4.2,3.6,9.1,3,13.9
				C272.6,275.1,272.6,275.2,272.6,275.3z"/>
			<path class="st6" d="M277.9,274.1c0.1,0.2,0.2,0.4,0.4,0.5c0.3,0.1,0.5-0.1,0.6-0.4c0,0,0,0,0-0.1c1.3-7.8-3.2-14.7-3.4-15
				c-0.1-0.2-0.5-0.3-0.7-0.2c0,0,0,0-0.1,0c-0.2,0.2-0.3,0.6-0.1,0.8c0,0.1,4.3,6.8,3.1,14C277.9,273.9,277.9,274,277.9,274.1z"/>
			<path class="st10" d="M329,197.3l60.2,11.9c0,0,6.1,18.2-2.3,32.2c-6.1,10-16.8,16.2-28.5,16.5c-7.1,0.1-14.2-0.3-21.2-1
				c-3.7,2.2-7.7,3.9-11.8,5.1c-5.8,1.5-31.3,8.5-31.3,8.5s-6-6.6-3.8-18.5l17.7-14.6c4.3-3.6,8.5-7.2,12.7-10.9
				c2.9-2.5,4.5-3.6,6.6-4.4C325.3,203.7,325.9,203.2,329,197.3z"/>
			<g class="st4">
				<path d="M293.2,218.4c3.3,4.8,6.2,9.7,8.9,14.8l-5.4-1.7c-6.1-14.5-7.3-18.7-17-25.5C279.7,206,286.6,208.6,293.2,218.4z"/>
				<path d="M343.2,249.5c0,0-4.3,4.8-16.8,8.3c-7,2-28.6,7.4-35.1,8.1c0.6,1.7,1.5,3.2,2.6,4.6c0,0,25.5-7,31.3-8.5
					c1.3-0.3,2.5-0.7,3.7-1.2c0.5-0.2,1.1-0.4,1.6-0.6c1.3-0.6,2.5-1.1,3.6-1.6s1.8-1,2.3-1.2l0.5-0.3h0.1
					C342.9,253.1,343.2,249.5,343.2,249.5z"/>
				<path d="M320.1,227c-2.7,2.4-10.1,8.7-10.1,8.7l-2.3-0.7c0,0,12-11.6,16.3-14.5c0.7-0.6,1.6-1,2.4-1.4
					c-1.3-5.3-0.1-13.6-0.1-13.6c0.1,4.5,1.3,8.9,3.5,12.8c3.3-0.3,6.6,0.1,9.6,1.1c6.6,2,25.6,7.8,25.6,7.8s-18.4-4.1-28.1-5.7
					S322.8,224.6,320.1,227z"/>
			</g>
		</g>
		<g id="freepik--Top--inject-15">
			<g id="freepik--Arm--inject-15">
				<path id="freepik--arm--inject-15" class="st29" d="M335.6,130c-10.9,0.8-14.1,7.4-14.6,13.4c-0.6,6.9-0.6,23.6-0.6,23.6
					l-14.7,13.7l10.4,12c0,0,11.6-7.1,16.1-10.3c5.6-3.9,5.2-6.3,5.1-15.8S336.5,135.3,335.6,130z"/>
			</g>
			<path class="st1" d="M391.1,217.5c-0.4-2.6-1.2-27.3-5-47.5c-1.2-6.5-6-33.2-8-37.9l-8.4-1.9c0,0-16.1-0.9-30-0.4l-4.1,0.2
				c-0.8,1-14.1,15.6-17.2,26.9c-1.9,8,1.3,16.4,8.2,20.9c0,0,1.9,10.9,1.9,11s-2.4,5.2-3.4,7.7c2.5,10.7,12,22.7,30.8,25.3
				C378.3,224.9,389.8,218.4,391.1,217.5z"/>
			<path class="st30" d="M391.1,217.5c-0.4-2.6-1.2-27.3-5-47.5c-1.2-6.5-6-33.2-8-37.9l-8.4-1.9c0,0-16.1-0.9-30-0.4l-4.1,0.2
				c-0.8,1-14.1,15.6-17.2,26.9c-1.9,8,1.3,16.4,8.2,20.9c0,0,1.9,10.9,1.9,11s-2.4,5.2-3.4,7.7c2.5,10.7,12,22.7,30.8,25.3
				C378.3,224.9,389.8,218.4,391.1,217.5z"/>
			<path class="st30" d="M341.3,180.2c0,0,5.7,6,16.1,4c6.2-1.1,11.4-5.1,14.1-10.8c0,0-0.7,11.3-13.4,13.7
				C351.6,188.7,344.8,185.9,341.3,180.2z"/>
			<g id="freepik--Head--inject-15">
				<path class="st16" d="M318.4,83.3c0-0.5,0.1-1,0.2-1.5c0.5-1.7,1.4-3.2,2.8-4.3c2-1.7,4.6-2.3,7.1-3c1.3-0.3,2.5-0.8,3.6-1.4
					c0.8-0.7,1.4-1.5,1.9-2.5c1.9-2.8,5.1-4.4,8.5-4.2c5.4,0.5,4.6,2.8,9.2,3.6c4.1,0.7,6.8,0.6,10.9,3.4c2.9,1.9,3.8,4.8,7.5,5.5
					c3.3,0.6,6.6,3.1,6.9,6.4c0.1,1.5-0.3,3.1,0.4,4.4c0.4,0.7,0.9,1.2,1.5,1.7c1.3,1.2,2.2,2.6,2.6,4.3c0.5,1.7,0.3,3.4-0.6,4.9
					c-0.4,0.6-0.9,1.2-1.3,1.8c-0.9,1.6-0.6,3.6-0.6,5.5s-0.5,4-2.1,4.9c-1.3,0.7-2.9,0.4-4.1,1.1c-2,1.1-2,4.1-3.6,5.7
					c-1.2,0.9-2.7,1.3-4.2,1c-1.5-0.1-2.9-0.6-4.4-0.6c-1.5,0.1-3,0.3-4.4,0.6c-1.2,0.1-2.3,0.1-3.5,0c-1.1,0-2.2-0.1-3.3-0.3
					c-1.2-0.2-2.4-0.6-3.5-1.1c-1-0.6-2-1.1-3.1-1.6c-1.4-0.3-2.9-0.4-4.4-0.1c-1.5,0.1-2.9,0.3-4.3,0.7c-2.5,0.7-5.2,0.3-7.5-1
					c-2.2-1.2-3.8-3.4-4.1-5.9c-0.2-1.4,0.1-2.9-0.3-4.3c-0.5-2-2.4-3.2-3.2-5.1c-0.6-1.8-0.6-3.7,0.2-5.4c-1.7,1.4-2.6,3.4-2.6,5.5
					c-0.9-1.5-1.2-3.4-0.7-5.1s1.4-3.3,2.5-4.6c0.4-0.5,0.8-1.1,1-1.7c0.2-0.9,0.2-1.8,0-2.7C318.8,86.3,318.6,84.8,318.4,83.3z"/>
				<path class="st29" d="M364.3,124.4c-0.2-2.2-1.2-14.8-1.2-14.8c0.2,0.8,4,2.8,7-1.8s2.4-9.2-0.1-11.7c-2.7-2.8-8-1.4-9.5,3.9
					c-1.6-0.1-3.7,1.7-3.9-6.4c-0.3-2-2.5-3.5-4.2-4.3c-1.6-0.7-3.3-1.3-5-1.7c-2.5-0.6-4.9-1.5-7.1-2.5c-2.3-1.2-5.8-3.3-7.1-5.5
					c-3.3,2-4.9,4.6-6.1,8.4c-1.1,3.5-1.2,7.3-0.1,10.8c0.3,1-1,3.3-0.5,8.6c1.1,11.6,4.7,14.6,8.4,16.5c2.2,1.1,6.4,1.3,9.4,0.7
					l0.3,2.8c0.3,1-0.3,2-1.3,2.3c-0.1,0-0.2,0-0.3,0c-1.5,0.1-1.8,0.1-1.8,0.1c1.8,6,21.8,5.3,28.5,0.4c-0.9-0.2-1.8-0.5-2.7-0.9
					C365.3,128.6,364.6,127.3,364.3,124.4z"/>
				<path class="st1" d="M367.6,106.4c0.2,1-0.5,2-1.5,2.2s-2-0.5-2.2-1.5s0.5-2,1.5-2.2l0,0C366.4,104.7,367.4,105.4,367.6,106.4z"
					/>
				<path class="st31" d="M346.9,110.2l-5.8,2.7c0.6,1.6,2.5,2.4,4.1,1.7h0.1C346.9,113.7,347.6,111.8,346.9,110.2z"/>
				<path class="st18" d="M346.7,111.6c-1.7,0.2-3,1.5-3.1,3.1c0.6,0.1,1.2,0,1.8-0.2c1.1-0.5,1.8-1.7,1.9-2.9
					C347,111.6,346.9,111.6,346.7,111.6z"/>
				<path class="st16" d="M329,91.4l4.4-2c-0.5-1.2-1.8-1.8-3-1.3c0,0-0.1,0-0.1,0.1C329.1,88.8,328.5,90.2,329,91.4z"/>
				<path class="st16" d="M350,92l-4.5-2c0.5-1.2,1.8-1.8,3.1-1.4c0,0,0.1,0,0.1,0.1C349.9,89.2,350.5,90.7,350,92z"/>
				<path class="st16" d="M343.2,99.5c0.2,1,1.1,1.7,2.1,1.5s1.7-1.1,1.5-2.1c-0.2-0.9-1-1.6-2-1.5
					C343.8,97.6,343.1,98.5,343.2,99.5z"/>
				<path class="st16" d="M329.4,99.3c0.2,1,1.2,1.6,2.1,1.4s1.6-1.2,1.4-2.1c-0.2-1-1.1-1.7-2.1-1.5l0,0
					C329.8,97.3,329.1,98.3,329.4,99.3z"/>
				<path class="st31" d="M344.2,124.5c7.6-1.7,13.1-3.1,16-9.6c-0.3,2.9-1.9,5.5-4.3,7.1c-3.4,2.5-7.3,4.1-11.5,4.8L344.2,124.5z"
					/>
				<path class="st9" d="M330.9,105h-0.2c-3.6,0-6.6-3-6.5-6.7c0-3.6,3-6.6,6.7-6.5c3.6,0,6.6,3,6.5,6.7
					C337.4,102.1,334.5,105,330.9,105z M329.8,93.3c-3,0.3-5.1,2.9-4.9,5.8c0.3,3,2.9,5.1,5.8,4.9c2.9-0.3,5.1-2.8,4.9-5.7l0,0
					C335.4,95.3,332.8,93.1,329.8,93.3L329.8,93.3C329.9,93.3,329.8,93.3,329.8,93.3z"/>
				<polygon class="st31" points="332.7,105.9 339.5,108.2 339.6,95 				"/>
				<path class="st9" d="M347,105.3h-0.2c-3.5,0.2-6.5-2.4-6.7-5.9s2.4-6.5,5.9-6.7s6.5,2.4,6.7,5.9
					C353,101.9,350.5,104.9,347,105.3L347,105.3z M346,93.6c-2.9,0.3-5.1,2.8-4.9,5.7c0.2,3,2.8,5.2,5.7,5s5.2-2.8,5-5.7h0.5h-0.5
					c-0.2-3-2.8-5.2-5.7-5H346z"/>
				<path class="st9" d="M340.2,99.3c-0.2-0.8-0.9-1.3-1.7-1.3c-0.8,0-1.6,0.5-1.9,1.3l-0.9-0.4c0.4-1.2,1.6-1.9,2.8-1.9
					c1.2,0.1,2.2,0.9,2.5,2L340.2,99.3z"/>
				<path class="st9" d="M360.7,98.8h-0.1l-8.4-0.5c-0.3,0-0.5-0.2-0.5-0.5l0,0c0-0.3,0.2-0.5,0.5-0.5l0,0l8.4,0.5
					c0.3,0,0.5,0.2,0.5,0.4S361,98.8,360.7,98.8L360.7,98.8z"/>
			</g>
			<path class="st10" d="M362.6,97.5l6.2-0.6c0,0,0.7-6.3,0.8-10.1c0-0.7,0-2.3,0-2.5c-0.1-3.9-1.3-8.3-4.3-10.4
				c-2.1-1.4-4.4-2.3-6.9-2.7c2.6,1,4.5,3.1,5.4,5.7c0.5,1.6,0.8,3.2,0.6,4.8c0,0.7,0,1.5-0.1,2.4C364.1,89.5,362.6,97.5,362.6,97.5
				z"/>
			<path class="st9" d="M360.6,108.6c-1.7-4.4-1.2-9.4,1.4-13.4c0.6-0.9,1.5-1.6,2.4-2.1c0.6-0.3,1.3-0.4,2-0.3l2.2,0.2
				c1.5,0.2,2.9,1.4,3.8,3.4c1.7,4.4,1.2,9.4-1.4,13.4c-0.6,0.9-1.5,1.7-2.5,2.1c-0.6,0.3-1.3,0.4-2,0.3l-2.2-0.2
				C362.9,111.8,361.5,110.6,360.6,108.6z"/>
			<path class="st16" d="M368.5,111.9c1-0.5,1.8-1.2,2.5-2.1c2.5-4,3.1-8.9,1.4-13.4c-1.3-2.8-3.5-4-5.7-3.1c-1,0.5-1.8,1.2-2.5,2.1
				c-2.5,4-3.1,8.9-1.4,13.4C364.1,111.7,366.3,112.9,368.5,111.9z"/>
			<path class="st7" d="M363.3,108.7c-1.6-4.3-1.1-9,1.3-12.9c1.2-1.7,2.6-2.4,4-2.3l1.1,0.1c1.3,0.2,2.6,1.2,3.4,3.1
				c1.6,4.3,1.1,9-1.3,12.9c-1.2,1.7-2.6,2.4-4,2.3l-1.1-0.1C365.3,111.6,364.1,110.6,363.3,108.7z"/>
			<path class="st5" d="M365.7,95.9c-2.4,3.8-2.9,8.6-1.3,12.9c1.7,3.8,5,4.2,7.4,0.8c2.5-3.8,2.9-8.6,1.3-12.9
				C371.4,92.9,368.1,92.6,365.7,95.9z"/>
			<path class="st1" d="M364.4,108.8c-1.6-4.3-1.1-9,1.3-12.9c1.2-1.7,2.6-2.4,4-2.3c0.4,0.1,1.1,0.2,1.4,0.2
				c1.3,0.2,2.6,1.2,3.4,3.1c1.6,4.3,1.1,9-1.3,12.9c-1.2,1.7-2.6,2.4-4,2.3c-0.4,0-1.1-0.2-1.4-0.2
				C366.4,111.7,365.2,110.7,364.4,108.8z"/>
			<path class="st32" d="M367.1,96.1c-2.4,3.9-2.9,8.6-1.3,12.9c1.7,3.8,5,4.2,7.4,0.8c2.4-3.8,2.9-8.6,1.3-12.9
				C372.8,93.1,369.5,92.8,367.1,96.1z"/>
			<path class="st16" d="M369.4,99.6c-1.3,2-1.5,4.5-0.7,6.8c0.9,2,2.6,2.2,3.9,0.4c1.3-2,1.5-4.5,0.7-6.8
				C372.4,98,370.6,97.8,369.4,99.6z"/>
			<path class="st10" d="M368.5,102.2l2.6,1l0.5-4.8c-0.9,0-1.6,0.4-2.1,1.2C369,100.3,368.7,101.2,368.5,102.2z"/>
			<path class="st9" d="M368.8,106.4c0.3,0.8,0.9,1.4,1.8,1.6l0.5-4.8l-2.6-1C368.2,103.6,368.3,105,368.8,106.4z"/>
			<path class="st10" d="M370.6,108c0.9,0,1.7-0.4,2.1-1.2c0.5-0.8,0.9-1.7,1-2.6l-2.6-1L370.6,108z"/>
			<path class="st9" d="M371.1,103.2l2.6,1c0.3-1.4,0.2-2.9-0.3-4.2c-0.3-0.8-0.9-1.4-1.8-1.6L371.1,103.2z"/>
			<g id="freepik--Laptop--inject-15">
				<path class="st6" d="M356,232.5v1.2c0,1.2-0.7,2.4-1.7,3L321.1,256c-1.1,0.6-2.4,0.6-3.5,0l-61.2-35c-1.1-0.6-1.8-1.8-1.8-3
					v-0.9l64.7,37L356,232.5z"/>
				<path class="st0" d="M254.7,217.3l36.1-21.1c0.6-0.4,1.4-0.4,2.1,0l62.9,36c0.2,0.1,0.3,0.4,0.2,0.6c0,0.1-0.1,0.1-0.2,0.2
					l-36.4,21.3L254.7,217.3z"/>
				<polygon class="st5" points="319.7,251.2 339.1,239.8 281.9,207.1 262.4,218.4 				"/>
				<polygon class="st5" points="329.1,219.8 328.8,220 319.2,225.6 302.2,215.8 301.8,215.6 311.7,209.8 				"/>
				<polygon class="st33" points="328.8,220 319.2,225.6 302.2,215.8 311.7,210.3 				"/>
				<path class="st6" d="M319.4,254.2v2.3c-0.6,0-1.2-0.2-1.8-0.5l-61.2-35c-1.1-0.6-1.8-1.8-1.8-3v-0.9L319.4,254.2z"/>
				<g class="st34">
					<path class="st5" d="M319.4,254.2v2.3c-0.6,0-1.2-0.2-1.8-0.5l-61.2-35c-1.1-0.6-1.8-1.8-1.8-3v-0.9L319.4,254.2z"/>
				</g>
				<path class="st29" d="M270.8,208.9c1.7-2.9,3.9-5.5,5.4-8.5c1.6-1.9,3.3-3.7,5.2-5.4c5.4-4.6,6.9-4.6,14-7.6
					c3.8-1.6,7.3-3.8,10.2-6.7l10.4,12c-1,0.7-2,1.4-3,2.1c-1.5,1.1-3.4,5-7,6.7c-4.8,2.3-10.6,1.5-11.1,3c0.1,0.9,0,1.8-0.1,2.7
					c0.9-0.5,1.8-0.8,2.8-1c0.9-0.1,2.3,0.9,2.1,1.5s-0.8,0.9-1.4,1.5c-0.4,0.4-1.8,1.8-2,1.9c-1.4,0.8-3,1.2-4.5,1.1
					c-0.7-0.1-1.3-0.5-1.6-1.2c-0.3,0.2-0.7,0.3-1,0.5c-0.6,0.3-1.4,0.3-2,0c-0.3-0.2-0.6-0.5-0.7-0.9c-0.8,0-1.7-0.1-2.5-0.3
					c-1.1-0.5-1.3-1.9-1.6-2.9c-0.4-1.3-0.5-2.7-0.5-4.1c-3.1,2.3-5.4,6.3-9.3,7.3C271.3,211,269.4,210.6,270.8,208.9z"/>
				<g id="freepik--arm--inject-15_1_">
					<path class="st29" d="M402.8,187c-2.8-15.8-5.5-30-8.8-41.4c-1.8-6.3-6.8-12.9-16-13.5c-8.5,6.1-4.7,24.4-3.5,28.9l6.9,27.6
						c0,0-5.2,4.7-13,10.4c-6.5,4.8-10.8,8.7-18.5,9.6S339,209.2,335,211c-2.1,0.9-7,3.1-8.7,4s-4.7,3.9-7.4,5.9
						c-2.6,2.1,0.7,3.2,2.7,2.6c2.1-0.7,4.2-1.7,6.1-3c1.7-0.8,3.4-1.5,5.2-2c-0.6,2-0.9,4-1.1,6.1c0,1.1-0.2,2.5,0.7,3.3
						c0.7,0.4,1.5,0.8,2.3,0.9c0,0.4,0.2,0.8,0.5,1.1c0.6,0.4,1.3,0.6,2,0.5c0.4,0,0.8-0.1,1.1-0.2c0.1,0.7,0.6,1.3,1.3,1.6
						c1.5,0.5,3.2,0.5,4.8,0.1c0.2-0.1,2-1.1,2.5-1.3c0.7-0.2,1.3-0.6,1.8-1.1c0.4-0.6-0.7-1.9-1.6-2c-1-0.1-2,0-3,0.2
						c0.4-0.8,0.7-1.7,0.9-2.6c0.8-1.3,6.8,0,12-0.9c4-0.7,6.9-4.5,8.6-5.3c11.5-5.2,18.1-7.4,29.7-14.5
						C405.8,198,404.3,195.2,402.8,187z"/>
					<path class="st31" d="M331.8,218.9c0.6-1.5,1.5-3.3,2.7-3.7c-0.7,1-1.3,2.2-1.7,3.4C332.5,218.7,332.1,218.8,331.8,218.9z"/>
					<path class="st31" d="M334.8,228.9c-0.2-1.1-0.2-2.2-0.1-3.3s0.2-2.2,0.4-3.3c0.2-1.1,0.5-2.2,0.9-3.2c0.4-1.1,1.1-2,2-2.6
						c-0.4,0.4-0.7,0.8-0.9,1.3c-0.2,0.5-0.4,1-0.6,1.5c-0.3,1-0.6,2.1-0.7,3.1c-0.2,1.1-0.4,2.1-0.6,3.2
						C335,226.7,334.8,227.8,334.8,228.9z"/>
					<path class="st31" d="M338.4,230.3c-0.1-1.1-0.1-2.2,0-3.2c0.1-1.1,0.2-2.1,0.5-3.2c0.2-1.1,0.5-2.1,0.9-3.1
						c0.3-1.1,0.9-2,1.6-2.8c-0.3,0.4-0.6,0.9-0.7,1.4c-0.2,0.5-0.3,1-0.5,1.5c-0.3,1-0.5,2-0.7,3.1
						C339,226.1,338.6,228.2,338.4,230.3z"/>
					<path class="st31" d="M347,227.6c-0.4,0-0.9,0.1-1.3,0.2c-0.4,0.1-0.7,0.3-1.3,0.5l0.2-0.4c0,0.2,0,0.4-0.1,0.6
						c-0.1,0.2-0.2,0.4-0.3,0.5c-0.2,0.3-0.5,0.5-0.9,0.6c0.2-0.3,0.4-0.5,0.5-0.8c0.1-0.1,0.1-0.3,0.1-0.4c0-0.1,0-0.2,0-0.4v-0.3
						l0.3-0.1c0.4-0.2,0.8-0.3,1.3-0.3C346,227.3,346.5,227.3,347,227.6z"/>
				</g>
				<path class="st1" d="M318.4,254.8c-1.2,0.5-2.5,0.4-3.6-0.3l-60.9-34.8c-1.1-0.6-1.8-1.7-2-2.9l-6.9-39.6c0-0.2-0.1-0.5-0.1-0.7
					c0-1.1,0.4-2.2,1.2-3l63.3,36.2c0.8,0.5,1.3,1.2,1.5,2.1L318.4,254.8z"/>
				<g class="st35">
					<path class="st3" d="M318.4,254.8c-1.2,0.5-2.5,0.4-3.6-0.3l-60.9-34.8c-1.1-0.6-1.8-1.7-2-2.9l-6.9-39.6
						c0-0.2-0.1-0.5-0.1-0.7c0-1.1,0.4-2.2,1.2-3l63.3,36.2c0.8,0.5,1.3,1.2,1.5,2.1L318.4,254.8z"/>
				</g>
				<path class="st0" d="M319.4,254.2l-0.4,0.2c-0.2,0.1-0.4,0.2-0.6,0.3l-7.4-42.9c-0.2-0.9-0.7-1.7-1.5-2.1l-63.3-36.2
					c0.3-0.2,0.5-0.5,0.8-0.6l63.4,36.3c0.8,0.4,1.3,1.2,1.5,2.1L319.4,254.2z"/>
				<path class="st1" d="M284,218.3c-0.5-2.7-3.2-6.2-6.2-7.9s-5-0.9-4.5,1.8s3.2,6.2,6.2,7.9S284.4,220.9,284,218.3z"/>
			</g>
		</g>
	</g>
</g>
<g id="freepik--note-2--inject-15">
	<g id="freepik--Note--inject-15">
		<g id="freepik--note--inject-15">
			<polygon class="st27" points="137.5,294.3 201,331 261.6,296 198.1,259.3 			"/>
			<polygon class="st1" points="137.5,290.8 201,327.5 261.6,292.6 198.1,255.9 			"/>
			<polygon class="st36" points="137.5,290.8 201,327.5 261.6,292.6 198.1,255.9 			"/>
			<polygon class="st37" points="198.1,255.9 211.3,263.5 150.7,298.5 137.5,290.8 			"/>
		</g>
		<path class="st9" d="M169.4,299.1c-0.2-0.1-0.4-0.1-0.6-0.2c-0.2,0-0.5,0-0.7,0c-0.1,0-0.3,0-0.4,0.1l-0.1-0.1
			c-0.1,0-0.2-0.1-0.4-0.1H167c-0.1,0-0.2,0-0.3,0c-0.2,0.1-0.4,0.2-0.6,0.4c-0.1,0.1-0.2,0.2-0.3,0.4c-0.1,0.2-0.2,0.5-0.2,0.7
			c0,0.3,0.1,0.5,0.3,0.7c0.3,0.3,0.6,0.4,1,0.5c0.7,0.1,1.5,0.1,2.2-0.2c0.5-0.2,0.9-0.6,1.1-1.1
			C170.4,299.9,170.1,299.4,169.4,299.1z M168.5,299.8L168.5,299.8l0.1,0.1l0,0l0,0l0,0l0,0v0.1v0.1l0,0v0.1l0,0l0,0l0,0l0,0
			l-0.1,0.1l0,0h-0.1l-0.2,0.1l0,0h-0.1H168h-0.1h-0.2h-0.1l0,0l0,0l-0.1-0.1l0,0v-0.1c0-0.1,0-0.1,0-0.2s-0.1-0.2,0-0.3l0,0v-0.1
			c0-0.1,0-0.1,0.1-0.1c0.1-0.1,0.2-0.3,0.3-0.4l0,0c0.1,0.1,0.2,0.1,0.4,0.2l0,0h0.1h0.1l0,0l0.1,0.1L168.5,299.8z"/>
		<path class="st9" d="M168.4,300.6C168.3,300.6,168.4,300.6,168.4,300.6z"/>
		<path class="st9" d="M167.8,300.8L167.8,300.8z"/>
		<path class="st9" d="M168.6,300L168.6,300L168.6,300z"/>
		<path class="st9" d="M182.8,306.9c-0.2-0.1-0.4-0.1-0.6-0.2c-0.2,0-0.5,0-0.7,0c-0.1,0-0.3,0-0.4,0.1l-0.1-0.1
			c-0.1,0-0.2,0-0.4-0.1h-0.2c-0.1,0-0.2,0-0.3,0c-0.2,0.1-0.4,0.2-0.6,0.4c-0.1,0.1-0.2,0.2-0.3,0.4c-0.1,0.2-0.2,0.5-0.2,0.8
			s0.1,0.5,0.3,0.7c0.3,0.3,0.6,0.4,1,0.5c0.7,0.1,1.5,0.1,2.2-0.2c0.5-0.2,0.9-0.6,1.1-1.1C183.8,307.6,183.6,307.2,182.8,306.9z
			 M181.9,307.6L181.9,307.6l0.1,0.1l0,0l0,0l0,0l0,0v0.1v0.1l0,0v0.1c0,0,0,0,0,0.1l0,0l0,0l0,0l-0.1,0.1l0,0h-0.1l-0.2,0.1l0,0
			l-0.1,0.1h-0.1h-0.3H181l0,0l-0.1-0.1l0,0v-0.1c0-0.1,0-0.1,0-0.2s0-0.2,0-0.3l0,0c0,0,0,0,0-0.1s0-0.1,0-0.1
			c0.1-0.1,0.2-0.3,0.3-0.4l0,0c0.1,0.1,0.2,0.1,0.4,0.2l0,0h0.1h0.1l0,0l0.1,0.1L181.9,307.6z"/>
		<path class="st9" d="M195.1,313.9c-0.2-0.1-0.4-0.1-0.6-0.2c-0.2,0-0.5,0-0.7,0c-0.1,0-0.3,0-0.4,0.1l-0.1-0.1
			c-0.1,0-0.2-0.1-0.4-0.1h-0.2c-0.1,0-0.2,0-0.3,0c-0.2,0.1-0.4,0.2-0.6,0.4c-0.1,0.1-0.2,0.2-0.2,0.3c-0.1,0.2-0.2,0.5-0.2,0.8
			s0.1,0.5,0.3,0.7c0.3,0.3,0.6,0.4,1,0.5c0.7,0.1,1.5,0.1,2.2-0.2c0.5-0.2,0.9-0.6,1.1-1.1C196.1,314.7,195.8,314.2,195.1,313.9z
			 M194.1,314.6L194.1,314.6l0.1,0.1l0,0l0,0l0,0l0,0l0,0v0.1l0,0l0,0v0.1l0,0l0,0l0,0l0,0l-0.1,0.1l0,0l0,0H194l-0.2,0.1l0,0
			l-0.1,0.1h-0.1h-0.1h-0.2l0,0h-0.1l0,0l-0.1-0.1l0,0V315c0-0.1,0-0.1,0-0.2s0-0.2,0-0.3l0,0v-0.1v-0.1c0.1-0.1,0.2-0.3,0.3-0.4
			l0,0c0.1,0.1,0.2,0.1,0.4,0.2l0,0h0.1h0.1l0,0l0.1,0.1L194.1,314.6z"/>
		<path class="st9" d="M181.8,308.3C181.8,308.4,181.8,308.3,181.8,308.3z"/>
		<path class="st9" d="M181.2,308.6L181.2,308.6z"/>
		<path class="st9" d="M182.1,307.8L182.1,307.8L182.1,307.8z"/>
		<path class="st9" d="M193,287c-0.4,0.1-0.8,0.1-1.2,0s-1.2,0-0.9,0.4s0.2,0.8-0.4,0.9c-0.4,0.1-0.8-0.1-1.1-0.4
			c-0.1-0.1-0.1-0.2-0.2-0.4c-0.2-0.3-1.4-0.3-1.3,0.1c0,0.2,0.1,0.3,0.2,0.4c0.3,0.5,0.3,1.2,0,1.7c-0.1,0.3-1.6,2-2.6,1.3
			c-0.3-0.2-1.2-0.3-1.2,0.1c0,0.1,0,1.2-0.6,0.9c-0.3-0.1-1.1-0.1-1.1,0.1c0,0.1,0.1,0.3,0.1,0.5c0,0.1,0,0.1,0,0.2
			c0,0.2-0.2,0.3-0.7,0.2c-0.2-0.4-1.4-0.2-1.3,0.1s0,0.9,0,1.4l-0.2-0.1c-0.4-0.2-0.7-0.5-1-0.8c-0.4-0.3-1.5-0.2-1.4,0.2
			c0.4,0.9,0.5,1.9,0.4,2.9c-0.1,0.6-0.6,1.1-1.2,1.2c-0.9,0.1-1.8-0.4-2.2-1.2c-0.5-0.8-1-1.7-1.2-2.6c-0.2-0.8-0.6-1.9,0.1-2.6
			c0.7,0.6,1.2,1.4,1.6,2.2c0.1,0.1,0.7,0.3,0.7,0.1c-0.2-1.1-0.8-2.2-1.7-2.9c-0.3-0.2-0.7-0.3-1.1-0.2c-1.7,0.7-1.3,2.4-1,3.5
			c0.2,0.7,0.5,1.4,0.9,2c0.3,0.8,0.9,1.4,1.6,1.9c1.4,0.8,3.1,0.6,4.4-0.3c0.7-0.7,0.9-1.7,0.6-2.6c0.5,0.2,1,0.3,1.5,0.2
			c0.8-0.2,0.9-0.9,0.8-1.5c0.3,0,0.5,0,0.8,0c0.9-0.2,1-0.6,1-1.1c0.3,0,0.5,0,0.8-0.1c0.4-0.1,0.7-0.4,0.8-0.8
			c1,0.1,2.1-0.2,2.9-0.8c0.7-0.5,1.1-1.2,1.1-2.1c0.4,0.1,0.8,0.1,1.1,0.1c1-0.1,1.7-0.6,1.6-1.2c0.6,0,1.2-0.1,1.7-0.3
			C194.8,287.1,193.5,286.7,193,287z"/>
		<path class="st9" d="M214.4,274.1c0.2,1.3-1.2,2.6-3.8,2.1c-0.3,0-0.7,0-0.8,0.2c-0.2,0.6,0.1,1.3-0.4,1.8
			c-0.2,0.2-0.5,0.3-0.9,0.2c0-0.6-0.1-1.1-0.4-1.6c-0.1-0.2-0.3-0.3-0.6-0.3c-2.3-0.2-1.6,1.3-0.5,2.1c-0.1,0.8-0.7,1.4-1.4,1.6
			c-0.8,0.3-2.2,0.4-2.6,0.9c-0.3,0-0.5,0-0.8,0c-0.9,0.2-0.8,0.8-0.9,1.3c-0.3,0-0.5,0-0.8,0.1c-0.4,0.1-0.7,0.5-0.7,0.9
			c-0.5-0.2-1-0.3-1.6-0.3c-1.5,0-2.2,0.9-1.8,1.7c0.1,0.2,0.9,0.4,0.9,0.1c-0.1-0.4,0.1-0.9,0.5-1.1c0.5-0.3,1.5-0.2,1.7,0.3
			c0.1,0.3,0.9,0.4,1.2,0.2c0.2-0.1,0.3-0.3,0.3-0.5c0-0.1,0-0.2,0-0.3c0,0.1,0.2-0.5,0.3-0.5c0.4,0.2,0.8,0.2,1.2,0
			c0.1-0.2,0.2-0.3,0.2-0.5c0-0.1,0-0.2,0-0.3c-0.1-0.2,0-0.4,0.2-0.5c0.2,0.3,1.3,0.3,1.3,0c-0.1-0.6,1.5-0.6,2.3-0.9
			c0.6-0.2,1.2-0.5,1.6-1c0.2-0.2,0.3-0.4,0.4-0.7c0.6,0.1,1.3,0,1.9-0.3c0.8-0.5,0.8-1.2,0.8-1.9c2.8,0.1,5.3-1,4.5-2.8
			C215.4,273.8,214.3,273.8,214.4,274.1z"/>
		<path class="st9" d="M219.6,273c-0.2,0.1,0.3,0.4,0.5,0.3S219.8,272.9,219.6,273z"/>
		<path class="st9" d="M211.5,291.5c-0.7,0.6-1.4,1.2-2.1,1.8c-0.4,0.3-0.7,0.6-1.1,0.8s-1.1,0.3-1.6,0.5c-0.2,0.1-0.4,0.3-0.5,0.5
			s-0.1,0.3-0.6,0.4c-0.2,0-0.3,0-0.5,0s-0.4,0.1-0.5,0.3c-0.1,0.1-0.1,1.3-0.8,0.9c-0.3-0.1-0.6-0.2-0.8-0.1
			c-0.3,0.2-0.5,0.4-0.6,0.8c-0.1,0.2,0,0.4-0.2,0.5c-0.4,0.4-0.9,0.1-1.3-0.2s-1-0.3-1.1,0c-0.1,0.5-0.1,0.9-0.2,1.3
			s-0.2,1.1-0.8,1.2c-0.3,0-0.5,0-0.8-0.1c0.1-0.1,0.1-0.2,0.2-0.2c0.4-0.5,0.4-1.2,0-1.7s-1.1-0.6-1.7-0.3
			c-0.9,0.5-0.7,1.6,0.2,2.3l-0.2,0.2c-0.2,0.2-0.7,1.1-1.1,1.1c-0.2,0-0.6-0.2-1-0.2s-0.4,0.1-0.4,0.2s0,0.1-0.1,0.2
			c-0.5-0.3-1-0.4-1.5-0.3c-0.4,0.1-0.7,0.5-0.7,0.9c-0.3-0.2-0.7-0.3-1-0.4c-0.4-0.1-0.9,0-0.9,0.2s0,0.6-0.1,0.9
			c-0.1-0.2-0.3-0.4-0.4-0.5c-0.6-0.7-1.5-1.3-2.4-1.5c-0.8-0.2-1.6,0.1-2,0.8c-0.4,0.8-0.2,1.7,0.5,2.3c0.1,0.1,0.7,0.2,0.6,0
			c-0.4-0.5-0.5-1.1-0.4-1.6c0.1-0.3,0.2-0.5,0.4-0.7c0.5-0.5,1.3-0.1,1.7,0.3c1,1,1.8,2.2,2.2,3.5c0.1,0.3,1.3,0.3,1.2,0
			c-0.1-0.9-0.1-1.8-0.1-2.8c0.3,0.1,0.5,0.3,0.8,0.5c0.3,0.3,1.2,0.2,1.2-0.1c0-0.2,0.1-0.5,0.1-0.7c0-0.1,0.1-0.2,0.2-0.3
			c0.2,0.1,0.6,0.3,0.8,0.4s1,0.1,1.1-0.1l0.1-0.4l0.3,0.1c0.3,0.1,0.7,0,1-0.2c0.4-0.3,0.7-0.7,1-1l0.2-0.2c0.1,0,0.3,0.1,0.4,0.1
			c1.2,0.4,2.5-0.3,2.9-1.4c0.1-0.3,0.1-0.7,0.1-1c0.6,0.3,1.2,0.3,1.8,0.1c0.7-0.3,0.6-0.9,0.9-1.3c0.5,0.2,1.2,0.1,1.6-0.2
			c0.4-0.4-0.2-0.9,0.6-1c0.4-0.1,0.7,0,1-0.3c0.1-0.1,0.2-0.2,0.3-0.4c0.2-0.3,0.5-0.3,1-0.5c0.5-0.1,0.9-0.3,1.3-0.6
			c1.1-0.7,2.1-1.5,3-2.4C212.7,291.5,211.7,291.2,211.5,291.5z"/>
		<path class="st9" d="M230.6,280.8c-1.5,1.4-3.8,2.2-5.8,3.3c-1,0.5-1.6,1.4-2.8,1.7c-0.9,0.3-1.2,0.6-1.3,1.2
			c-0.9,0-1.8,0.5-2.2,1.3c-0.8-0.4-1.5-0.9-2.6-0.6c-1,0.2-1.7,1.1-1.7,2.1c0,0.2,0.7,0.4,0.8,0.2c0.3-0.5,0.4-1.4,1.3-1.7
			s1.6,0.5,2.4,0.7c0.2,0,0.7,0,0.7-0.1c0.2-0.8,0.9-1.4,1.8-1.4c0.2,0,0.6,0,0.6-0.2c0-0.6,0.3-0.9,1.2-1.1
			c0.4-0.1,0.8-0.3,1.1-0.6c0.8-0.6,1.6-1.1,2.5-1.6c1.8-0.9,4-1.6,5.1-3C231.9,280.7,230.9,280.5,230.6,280.8z"/>
		<path class="st9" d="M222.1,299.8c-1.2,0.6-2.2,1.3-3.3,1.9c-0.8,0.4-1.6,1-2.3,1.6c-0.7-0.7-1.4-1.4-2.1-2.1
			c-0.2-0.2-1.3-0.3-1,0c0.5,0.6,0.8,1.3,0.8,2.1c0,0.3,0,0.6-0.1,0.9c0,0.2-0.1,0.3-0.2,0.4c0,0-0.6,0.8-0.8,0.5
			c-0.3-0.2-0.6-0.2-0.9-0.1l-0.3,0.2c-0.3-0.1-0.7-0.1-1,0c-0.3,0-0.5,0.2-0.5,0.5c0,0.1,0,0.3,0.1,0.4l0.1,0.2
			c0.2,0.4-0.1,0.5-0.9,0.5c-0.2-0.1-0.9-0.2-0.9,0c0,0.5-0.1,1-0.5,1.4c-0.3-0.2-0.7-0.5-1-0.8c-0.2-0.1-1-0.3-1,0
			c0.1,0.9-0.2,1.9-0.9,2.5c-0.2,0.2,0.6,0.4,0.8,0.2c0.6-0.5,1-1.1,1.1-1.9c0.4,0.3,0.9,0.5,1.4,0.4c0.8-0.1,1-0.9,1-1.4
			c0.4,0.1,0.9,0.1,1.3,0c0.3-0.1,0.5-0.3,0.6-0.5c0-0.1,0-0.2,0-0.3c0-0.1-0.1-0.2-0.1-0.3c-0.1-0.2-0.1-0.4,0.2-0.5
			c0.3,0.2,0.6,0.2,0.9,0.1l0.3-0.2c0.3,0.1,0.6,0.1,0.9,0.1c0.6,0,1.1-0.3,1.3-0.9c0.3-0.5,0.4-1.2,0.3-1.8
			c0.3,0.3,0.6,0.6,0.8,0.9s0.8,0.3,1,0.1c1.4-1.6,4-2.5,5.9-3.8C223.3,299.9,222.4,299.7,222.1,299.8z"/>
		<path class="st9" d="M201.9,305.6c-0.1-0.3-1.1-0.4-1.1-0.1l0,0h-0.1c-0.1,0.6-0.1,1.1,0,1.7c-0.1,0.3-0.2,0.6-0.3,0.9
			c-0.5,0.9-1.2,1.6-2,2.2c-0.3,0.2-1.3,1-1.8,0.5c-0.2-0.2-0.3-0.4-0.3-0.7c-0.1-0.2-0.1-0.4-0.1-0.7c0.1-0.8,0.6-1.5,1.2-1.9
			c0.4,0.3,0.8,0.8,1,1.3c0,0.1,0.4,0.2,0.4,0.1c0-0.8-0.4-1.5-1.1-1.8c-0.2-0.1-0.5-0.2-0.8-0.1c-0.8,0.4-1.5,1.1-1.8,1.9
			c-0.4,0.9,0,1.9,0.9,2.4c1.2,0.4,2.5,0.1,3.4-0.7c0.7-0.5,1.2-1,1.7-1.7c0.1,0.3,0.3,0.7,0.4,1c0.3,0.8,0.6,1.7,0.9,2.5
			c0.1,0.4,0.3,0.8,0.4,1.2c0.1,0.4,0.2,0.8,0.5,1.2c0.1,0.3,1.1,0.4,1.1,0c-0.1-0.5-0.2-1-0.5-1.4l-0.4-1.1l-0.9-2.3
			c-0.3-0.8-0.6-1.5-0.9-2.3C202.1,307.1,202.1,306.3,201.9,305.6z"/>
		<path class="st9" d="M238.2,290.9c-1.5,0.7-2.9,1.4-4.3,2.2c-1.4,0.7-2.8,1.5-4.2,2.2c-0.5,0.3-1,0.7-1.4,1.1
			c-0.1,0.2-0.3,0.4-0.5,0.6c-0.4,0.2-0.8,0.3-1.2,0.3c-1,0.1-1.6,0.5-1.1,1.1c0.1,0.1,0.6,0.2,0.5,0c-0.1-0.3,0.1-0.5,0.3-0.6
			c0.5-0.2,0.8-0.1,1.3-0.1c0.4,0,0.8-0.1,1.1-0.4c0.4-0.4,0.6-0.8,1-1.1c0.6-0.4,1.2-0.8,1.9-1.1l3.7-2c1.2-0.6,2.4-1.2,3.6-2
			C239.1,291,238.4,290.8,238.2,290.9z"/>
		<path class="st9" d="M240.1,289.8c-0.3,0.2,0.5,0.4,0.8,0.3S240.3,289.7,240.1,289.8z"/>
		<g id="freepik--Clip--inject-15">
			<path class="st5" d="M159.9,266.7l-1.3,0.7l-4.6-2.2l0,0c-1.4-0.8-1.2-2-1.1-3.2s0.3-2.2-0.7-2.8c-2.9-1.7-8.8-0.8-12.1,1.2
				s-4.9,5.3-2.1,7c1,0.6,2.9,0.5,4.8,0.4s4.2-0.2,5.6,0.6h0.1l3.7,2.6l-1.2,0.7l-3.8-2.7c-0.8-0.4-2.4-0.4-4.2-0.3
				c-2.1,0.1-4.6,0.2-6.1-0.7c-1.6-0.7-2.4-2.5-1.8-4.2c0.7-1.8,2.1-3.4,3.9-4.3c2.3-1.2,4.8-2,7.4-2.3c2.5-0.4,5,0,7.2,1.1
				c1.6,0.9,1.4,2.3,1.2,3.5c-0.1,1-0.3,1.9,0.5,2.4L159.9,266.7z"/>
			<polygon class="st16" points="176.3,254.8 175,257.9 150.3,272.2 150.3,269.9 			"/>
			<path class="st9" d="M176.3,254.8l-26,15l10.2,13.9l7.6-4.4l0.5,0.7c0,0,1.4,1.2,2.4,0.6l0.6-0.4l6.8-3.9l0.6-0.4
				c0.9-0.5,0.3-2.2,0.3-2.2l-0.5-0.7l7.8-4.5L176.3,254.8z"/>
			<path class="st6" d="M183.7,272l-2.1,1.2c-1.1,0.6-2.7,0.6-3.4-0.3l-16.6-18.5l0,0c-0.8-1.1-0.3-2.6,0.3-4s1-2.6,0.4-3.4
				c-1.7-2.3-6.8-1.9-10.1,0s-5.8,5.9-4.1,8.2c0.6,0.8,2.1,0.9,3.7,1.1s3.4,0.3,4.2,1.4l0,0l12.3,21c0.7,1,0,2.3-1.1,2.9l-2.1,1.2
				l-0.7-1l2.1-1.2c0.5-0.3,0.8-0.8,0.5-1.2l0,0l-12.3-20.9c-0.5-0.6-1.8-0.7-3.2-0.8c-1.7-0.1-3.7-0.3-4.7-1.6s-1-3.2,0-5.2
				c1.1-2,2.7-3.6,4.6-4.7c2-1.2,4.3-1.8,6.7-1.8s4.4,0.7,5.4,2.1s0.3,2.9-0.3,4.4c-0.4,1.2-0.9,2.3-0.4,3l16.6,18.5l0,0
				c0.3,0.4,1,0.3,1.4,0l2.1-1.2L183.7,272z"/>
			<path class="st10" d="M167.8,282c0-0.9-0.5-1.8-1.3-2.3c-0.3-0.2-0.7-0.2-1-0.1l-4.9,2.8l1.9,3.3l4.9-2.9
				C167.7,282.7,167.8,282.3,167.8,282z"/>
			<path class="st16" d="M161.6,285.6c0.7,0.4,1.3,0.1,1.3-0.8c-0.1-0.9-0.6-1.8-1.3-2.3c-0.7-0.4-1.3-0.1-1.3,0.8
				C160.3,284.3,160.8,285.1,161.6,285.6z"/>
			<path class="st5" d="M161.7,284.5c0.2,0.1,0.4,0,0.4-0.3s-0.2-0.6-0.4-0.8c-0.2-0.1-0.4,0-0.4,0.3
				C161.3,284.1,161.4,284.4,161.7,284.5z"/>
			<path class="st10" d="M187.9,270.4c0-0.9-0.5-1.8-1.3-2.3c-0.3-0.2-0.6-0.2-0.9-0.1l-4.9,2.8l1.9,3.3l4.9-2.8
				C187.8,271.1,187.9,270.8,187.9,270.4z"/>
			<path class="st16" d="M181.6,274c0.7,0.4,1.3,0.1,1.3-0.8c-0.1-0.9-0.6-1.8-1.3-2.3c-0.7-0.4-1.3-0.1-1.3,0.8
				C180.4,272.6,180.9,273.5,181.6,274z"/>
			<path class="st5" d="M181.8,273c0.2,0.1,0.4,0,0.4-0.3s-0.2-0.6-0.4-0.8c-0.2-0.1-0.4,0-0.4,0.3
				C181.3,272.6,181.5,272.8,181.8,273z"/>
			<path class="st5" d="M181.4,271.9l-0.6,0.3c-0.2,0.1-0.4,0.2-0.6,0.2l0.1,1.2c0.4-0.1,0.8-0.2,1.2-0.4l0.5-0.3L181.4,271.9z"/>
			<path class="st10" d="M178.6,275.7c0,0.3-0.1,0.6-0.4,0.8l-7.1,4.1c0.3-0.3,0.5-0.7,0.6-1.1c0-0.4,0-0.8,0-1.2
				c0-0.5,0.2-1.1,0.7-1.3l4.5-2.6c0.3-0.2,0.7-0.2,1,0.1C178.3,274.8,178.5,275.2,178.6,275.7z"/>
		</g>
	</g>
</g>
<g id="freepik--note-1--inject-15">
	<g id="freepik--note--inject-15_1_">
		<polygon class="st19" points="24.8,223.7 24.8,298.1 86.4,262.5 86.4,188.1 		"/>
		<path class="st1" d="M101.8,258.4c0,0-3,5.1-13.8,11.3L33.8,301l-6.5-64.7l61.6-35.6l4.1,44.1C93.5,250.9,95.9,257.4,101.8,258.4z
			"/>
		<path class="st14" d="M101.8,258.4c0,0-3,5.1-13.8,11.3L33.8,301l-6.5-64.7l61.6-35.6l4.1,44.1C93.5,250.9,95.9,257.4,101.8,258.4
			z"/>
		<polygon class="st1" points="88.9,200.8 27.3,236.3 27.3,224.9 88.9,189.3 		"/>
		<path class="st0" d="M82.6,230.8c-0.9,0.9-2.5,2.1-3.6,0.8v-0.1c0.8-1.3,1-2.8,0.7-4.3c-0.1-0.4-0.7-1-1.1-0.6
			c-1.2,1.2-1.6,2.9-1.1,4.4c-0.7,1-1.4,2-2.4,2.8c-0.7,0.7-1.8,1.6-2.9,1.5c-1.4-0.1-1.2-2.1-1.2-3.1c0-0.4-0.9-1.3-1.2-0.7
			c-0.8,1.6-1.8,3.1-2.9,4.5c-0.6,0.8-1.3,1.6-2,2.3c-0.2,0.2-0.5,0.4-0.8,0.5l0,0c0-0.1,0-0.2-0.1-0.3c0-0.6-0.8-1.3-1.2-0.6
			c-0.7,1.5-1.8,5.1-3.8,5.5c-0.6,0.1-1.1-0.4-1.7-0.4c-0.5,0-0.9,0.2-1.3,0.6c-0.7,0.9-1.4,1.8-1.9,2.8c-0.2,0.4-0.7,1.1-1.2,1.3
			c-0.6,0.2-0.7-1-0.8-1.5c-0.1-0.4-0.6-0.9-1-0.6c-0.8,0.6-1.5,1.5-1.8,2.5c-0.3-0.5-0.5-1.1-0.6-1.7c0-0.4-0.7-1-1-0.6
			c-1.1,1.6-2.3,3.1-3.7,4.4c-0.9,0.9-3.6,3.4-4.9,1.9c-0.5-0.6-0.7-1.4-0.7-2.1c1.2-0.8,2.3-1.8,3-3.1c1.4-2.1,2.2-4.5,2.5-7
			c0-0.3-0.2-0.7-0.5-0.7c-1.8,0-3,2.4-3.7,3.8c-1.2,2-1.9,4.3-2.2,6.6v0.2c-0.6,0.2-1.2,0.3-1.8,0.2c-0.3,0-0.3,0.6,0,0.6
			c0.6,0.1,1.2,0.1,1.8-0.1c0,1.4,0.8,2.6,2,3.2c1.7,0.6,3.5-0.8,4.7-1.8c1.4-1.2,2.7-2.5,3.8-4c0.2,0.7,0.6,1.3,1.2,1.8
			c0.3,0.2,0.7,0.4,0.9-0.1c0.3-0.8,0.6-1.6,1.2-2.2c0.3,1,0.9,2,2,1.7c1.3-0.4,2.2-2.3,2.8-3.3c0.3-0.5,0.7-1.4,1.5-1.4
			s1.3,0.6,2.2,0.2c1.8-0.8,2.8-2.9,3.6-4.8c0.2,0.2,0.4,0.3,0.7,0.3c0.9,0.1,1.7-0.8,2.3-1.4c1.3-1.4,2.5-2.9,3.5-4.6
			c0.2,0.8,0.7,1.6,1.4,2.1c1.2,0.7,2.6,0.1,3.7-0.6c1.3-0.9,2.4-2,3.3-3.3c1.6,1.8,3.8,0.9,5.3-0.7C84,231.3,83.1,230.3,82.6,230.8
			z M40,245.6c0.5-1.1,1-2.2,1.6-3.2c0.4-0.7,0.9-1.4,1.6-1.8c-0.3,2-1.1,4-2.1,5.8c-0.6,1.1-1.4,2.1-2.3,2.9
			C39.1,248,39.5,246.8,40,245.6z"/>
		<path class="st0" d="M85.7,260.8c-5.8,3.3-12.7,4.4-19.2,4.4s-14-0.9-19.1-5.2c-0.3-0.3-0.3-1.2,0.2-0.9
			c5.9,2.8,12.4,4.3,18.9,4.1c5.4,0,10.8-1,15.8-3.1l-1.3-0.2c-1.1-0.2-2.2-0.4-3.2-0.8c-0.5-0.1-0.9-0.3-1.4-0.5
			c-0.5-0.3-1-0.6-1.4-1c-0.2-0.1-0.3-0.4-0.2-0.7c0.1-0.3,0.3-0.1,0.5-0.1c0.6,0,1.1,0.1,1.6,0.3c0.5,0.1,0.9,0.2,1.4,0.3
			c1,0.2,2,0.4,3,0.5c2.1,0.3,4.2,0.4,6.2,0.5c0.7,0,1,1,0.7,1.6c-1.1,1.9-2.5,3.6-4.2,4.9c-0.8,0.7-1.6,1.3-2.4,1.9
			s-1.6,1.2-2.5,1.7s-1.3-1.2-0.8-1.7c1.4-1.3,3.1-2.3,4.6-3.4c1.1-0.8,2.1-1.8,2.9-2.9h-0.1C85.9,260.7,85.8,260.8,85.7,260.8z"/>
	</g>
</g>
<g id="freepik--speech-bubble--inject-15_2_">
	<g id="freepik--speech-bubble--inject-15_1_">
		<g id="freepik--speech-bubble--inject-15">
			<path class="st1" d="M298,119.5c5.4-25.1-10.5-49.8-35.6-55.3c-25.1-5.4-49.8,10.5-55.3,35.6c-5.4,25.1,10.5,49.8,35.6,55.3
				c6.5,1.4,13.1,1.4,19.6,0c8.4,7.1,21.8,9.9,29.4,5.9c0.3-0.2,0.5-0.5,0.4-0.8c0-0.3-0.3-0.6-0.6-0.7c-5.9-1.5-10.8-5.5-13.5-10.9
				C288.3,142,295.5,131.5,298,119.5z M276.5,147.6c-0.3,0.2-0.5,0.6-0.3,1c2.6,5.4,7.1,9.7,12.7,11.8c-7.3,2.3-18.8-0.6-25.8-6.8
				c-0.2-0.2-0.5-0.2-0.7-0.2c-24.1,5.3-48-9.9-53.3-34s9.9-48,34-53.3s48,9.9,53.3,34C300.4,118.6,292.5,137.6,276.5,147.6z"/>
			<path class="st3" d="M276.5,147.6c-0.3,0.2-0.5,0.6-0.3,1c2.6,5.4,7.1,9.7,12.7,11.8c-7.3,2.3-18.8-0.6-25.8-6.8
				c-0.2-0.2-0.5-0.2-0.7-0.2c-24.1,5.3-48-9.9-53.3-34s9.9-48,34-53.3s48,9.9,53.3,34C300.5,118.6,292.5,137.6,276.5,147.6z"/>
		</g>
		<g id="freepik--graduation-cap--inject-15">
			<path class="st16" d="M228.3,118.9l-0.1-14.3l0,0c-0.1-2.8,2.3-5.6,7.1-7.7c9.5-4.2,25-4.3,34.5-0.1c4.8,2.1,7.2,4.9,7.2,7.6l0,0
				l0.1,14.3c0,2.8-2.3,7-7.1,9.1c-9.5,4.2-25,4.3-34.5,0.1C230.7,125.9,228.3,121.7,228.3,118.9L228.3,118.9L228.3,118.9z"/>
			<polygon class="st10" points="252.6,84.3 288,104.6 252.8,125.2 217.4,104.9 			"/>
			<polygon class="st9" points="288,104.6 288,106.1 252.8,126.6 252.8,125.2 			"/>
			<polygon class="st16" points="217.4,104.9 217.4,106.3 252.8,126.6 252.8,125.2 			"/>
			<polygon class="st8" points="274.2,114.1 252.8,128.8 231.3,114.3 252.8,126.6 			"/>
			<path class="st5" d="M244.3,111.1l15.7-9.3c0.4-0.2,0.8-0.1,1,0.3c0.2,0.3,0.1,0.8-0.2,1l-0.1,0.1l-15.7,9.3"/>
			<path class="st1" d="M242,124.3c0.7,0.4,1.6,0.4,2.4,0l2,9.8c0,2.4-6.2,2.4-6.2,0L242,124.3z"/>
			<path class="st19" d="M241.9,131.6l-0.4,4.1c-0.1,0-0.3-0.1-0.4-0.1L241.9,131.6z"/>
			<path class="st19" d="M244.9,135.7l-0.9-8.5l1.3,8.3C245.1,135.7,245,135.7,244.9,135.7z"/>
			<path class="st19" d="M243.5,136h-0.4l0.2-6.1L243.5,136z"/>
			<path class="st5" d="M243.2,124.2c0.4,0,0.8-0.3,0.8-0.8l-0.1-9c0-0.8,0.4-1.6,1.1-2l-0.8-1.3c-1.2,0.7-1.9,2-1.9,3.3l0.1,9
				C242.4,123.8,242.8,124.2,243.2,124.2L243.2,124.2z"/>
			<path class="st1" d="M244.9,123.4c0-0.9-0.8-1.7-1.7-1.7s-1.7,0.8-1.7,1.7c0,0.9,0.8,1.7,1.7,1.7l0,0
				C244.1,125.1,244.9,124.4,244.9,123.4L244.9,123.4z"/>
			<path class="st19" d="M241.5,123.5c0.3,0.7,1.1,1,1.7,0.7c0.1,0,0.1,0,0.2-0.1c0.7-0.4,0.9-1.3,0.5-1.9c-0.1-0.2-0.3-0.3-0.5-0.5
				c0.9,0.1,1.6,1,1.4,1.9c-0.1,0.9-1,1.6-1.9,1.4C242.2,125,241.6,124.3,241.5,123.5L241.5,123.5z"/>
		</g>
	</g>
</g>
</svg>
