<?xml version="1.0" encoding="utf-8"?>
<!-- Generator: Adobe Illustrator 24.2.3, SVG Export Plug-In . SVG Version: 6.00 Build 0)  -->
<svg version="1.1" id="Calque_1" xmlns="http://www.w3.org/2000/svg" xmlns:xlink="http://www.w3.org/1999/xlink" x="0px" y="0px"
	 viewBox="0 0 500 500" style="enable-background:new 0 0 500 500;" xml:space="preserve">
<style type="text/css">
	.st0{fill:#67B7AA;}
	.st1{opacity:0.7;fill:#FFFFFF;enable-background:new    ;}
	.st2{opacity:0.5;fill:#FFFFFF;enable-background:new    ;}
	.st3{fill:none;stroke:#263238;stroke-linecap:round;stroke-linejoin:round;}
	.st4{fill:#263238;stroke:#263238;stroke-linecap:round;stroke-linejoin:round;}
	.st5{fill:#FFFFFF;stroke:#263238;stroke-linecap:round;stroke-linejoin:round;}
	.st6{fill:#263238;}
	.st7{fill:#FFFFFF;}
	.st8{fill:none;stroke:#FFFFFF;stroke-linecap:round;stroke-linejoin:round;}
	.st9{opacity:0.2;enable-background:new    ;}
	.st10{fill:#67B7AA;stroke:#263238;stroke-miterlimit:10;}
	.st11{fill:#FFFFFF;stroke:#263238;stroke-miterlimit:10;}
	.st12{opacity:0.9;fill:#FFFFFF;enable-background:new    ;}
	.st13{opacity:0.6;fill:#FFFFFF;enable-background:new    ;}
</style>
<g id="freepik--background-simple--inject-3">
	<path class="st0" d="M350.8,52.1c-12.7-3-26-3.9-38.9-1.6c-34.1,6.1-60,32.8-88.9,51.8c-19,12.4-39.9,21.7-61.9,27.6
		c-23,6.1-48,8.7-67.3,22.7c-17,12.3-27.2,32.1-32.4,52.5c-6.3,24.8-5.7,51.9,5.1,75c11.5,24.9,33.6,43.4,57,57.7
		c39.3,23.9,86.2,38.2,131.6,30.8c26.3-4.3,51.1-15.7,73-30.7c41.4-28.4,72.7-70.1,91.5-116.5c8.2-20.3,18.2-45.8,17.5-68
		c-0.6-20.4-10.3-42.6-22.4-58.7C399.1,73.8,376.2,58.1,350.8,52.1z"/>
	<path class="st1" d="M350.8,52.1c-12.7-3-26-3.9-38.9-1.6c-34.1,6.1-60,32.8-88.9,51.8c-19,12.4-39.9,21.7-61.9,27.6
		c-23,6.1-48,8.7-67.3,22.7c-17,12.3-27.2,32.1-32.4,52.5c-6.3,24.8-5.7,51.9,5.1,75c11.5,24.9,33.6,43.4,57,57.7
		c39.3,23.9,86.2,38.2,131.6,30.8c26.3-4.3,51.1-15.7,73-30.7c41.4-28.4,72.7-70.1,91.5-116.5c8.2-20.3,18.2-45.8,17.5-68
		c-0.6-20.4-10.3-42.6-22.4-58.7C399.1,73.8,376.2,58.1,350.8,52.1z"/>
</g>
<g id="freepik--Shadow--inject-3">
	<ellipse class="st0" cx="251.8" cy="431" rx="169.7" ry="23.1"/>
	<ellipse class="st2" cx="251.8" cy="431" rx="169.7" ry="23.1"/>
</g>
<g id="freepik--Floor--inject-3">
	<line class="st3" x1="238.5" y1="386.1" x2="377.9" y2="386.1"/>
	<line class="st3" x1="111.2" y1="386.1" x2="220" y2="386.1"/>
	<rect x="264.3" y="279.9" class="st4" width="90.5" height="113.2"/>
	<rect x="287.6" y="279.9" class="st5" width="70.7" height="113.2"/>
	<rect x="295.8" y="287" class="st5" width="55.6" height="35.5"/>
	<rect x="309.5" y="301.4" class="st4" width="28.2" height="6.8"/>
	<rect x="295.8" y="335.7" class="st5" width="55.6" height="35.5"/>
	<rect x="309.5" y="350.1" class="st4" width="28.2" height="6.8"/>
	<path class="st6" d="M141.4,397.3c0,2-10.8,3.7-24.1,3.7s-24.1-1.6-24.1-3.7s10.8-3.7,24.1-3.7S141.4,395.3,141.4,397.3z"/>
	<polygon class="st6" points="93.1,397.3 86.2,366.9 148.3,366.9 141.4,397.3 	"/>
	<path class="st6" d="M148.3,366.9c0,2.6-13.9,4.7-31,4.7s-31.1-2.1-31.1-4.7s13.9-4.7,31.1-4.7S148.3,364.3,148.3,366.9z"/>
	<path class="st7" d="M142.3,366.7c0,0.6-2,1.2-5.5,1.7c-6.5,0.7-13.1,1.1-19.6,1c-6.6,0.1-13.1-0.3-19.6-1c-3.4-0.5-5.5-1-5.5-1.7
		c0-1.5,11.2-2.7,25.1-2.7S142.3,365.2,142.3,366.7z"/>
	<path class="st0" d="M136.9,368.4c-6.5,0.7-13.1,1.1-19.6,1c-6.6,0.1-13.1-0.3-19.6-1c2-1,10-1.7,19.6-1.7S134.9,367.4,136.9,368.4
		z"/>
	<path class="st8" d="M138.9,376.8c2.5-0.4,5.1-1,7.6-1.6"/>
	<path class="st8" d="M98.9,377.4c10,1.2,20.2,1.4,30.2,0.6"/>
	<path class="st8" d="M88.2,375.7c0,0,2.8,0.6,7.6,1.3"/>
	<path class="st0" d="M103.3,201.1c5.7-4.2,11-8.8,15.9-13.8c6.7-7.2,3.1-19,3.1-19s-4.6,4.1-11.8,11.3s-7.2,12.3-7.2,12.3V201.1z"
		/>
	<path class="st0" d="M113.7,233.1c5.7-4.2,11-8.8,15.9-13.8c6.6-7.2,3.1-18.9,3.1-18.9s-4.6,4.1-11.8,11.3s-7.2,12.3-7.2,12.3
		L113.7,233.1z"/>
	<path class="st0" d="M104.7,209.7c-6.1-3.5-11.8-7.6-17.3-12.1c-7.4-6.4-5.1-18.5-5.1-18.5s5,3.6,12.9,10s8.4,11.5,8.4,11.5
		L104.7,209.7z"/>
	<path class="st0" d="M118.3,247.4c-6.4-2.9-12.6-6.3-18.4-10.2c-8-5.6-7-17.9-7-17.9s5.4,3,13.9,8.6s9.6,10.5,9.6,10.5L118.3,247.4
		z"/>
	<path class="st0" d="M113.9,288.8c-5.7-4.2-11-8.8-15.9-13.8c-6.7-7.2-3.1-19-3.1-19s4.6,4.1,11.8,11.3s7.2,12.3,7.2,12.3
		L113.9,288.8z"/>
	<path class="st0" d="M115.4,298.7c5-4.9,9.6-10.3,13.8-16c5.6-8,0.4-19.2,0.4-19.2s-4,4.7-10.1,12.8s-5.3,13.2-5.3,13.2
		L115.4,298.7z"/>
	<path class="st0" d="M121.1,328.6c-5.7-4.2-11-8.8-15.9-13.8c-6.7-7.2-3.1-19-3.1-19s4.6,4.1,11.8,11.3s7.2,12.3,7.2,12.3V328.6z"
		/>
	<path class="st0" d="M114,355.3c-4.4-5.5-8.4-11.3-11.8-17.4c-4.6-8.6,1.8-19.1,1.8-19.1s3.4,5.1,8.6,13.9s3.8,13.7,3.8,13.7
		L114,355.3z"/>
	<path class="st3" d="M109.4,370.9c0,0,9.9-30.7,11.8-42s-4.7-20.8-6.9-37.8s6-34,3.1-47.3s-9.9-22.7-12.8-37.3
		c-1-5.3-1.6-10.6-2-15.9"/>
	<line class="st3" x1="96.1" y1="198.1" x2="103.8" y2="204"/>
	<line class="st3" x1="106.7" y1="191.4" x2="103.4" y2="197.1"/>
	<path class="st3" d="M103.8,233.5c6.7,4.8,13.1,9.7,13.1,9.7"/>
	<path class="st3" d="M125.2,215.5c-6.1,7-11.5,17.6-11.5,17.6"/>
	<path class="st3" d="M99.8,268.3c5.5,5.5,10.1,11.7,13.8,18.5"/>
	<path class="st3" d="M126.3,274.4c0,0-0.5,0.7-4.3,6.3c-2.7,4.2-5,8.7-7,13.3"/>
	<path class="st3" d="M107.8,307.1c2.8,3.1,5.3,6.4,7.6,9.9c2.2,3.8,4.2,7.7,5.8,11.8"/>
	<path class="st3" d="M105.1,329.2c1.3,2.7,4.3,9.5,7,14.7c1.6,3.5,2.3,7.5,1.9,11.3"/>
	<path class="st0" d="M149.2,266.1c-3.1-3.2-5.9-6.7-8.5-10.4c-3.4-5.2,0.1-12.2,0.1-12.2s2.5,3.1,6.2,8.4s3.2,8.5,3.2,8.5
		L149.2,266.1z"/>
	<path class="st0" d="M139.2,285c-3.1-3.2-5.9-6.7-8.5-10.4c-3.4-5.2,0.1-12.2,0.1-12.2s2.4,3.1,6.2,8.4s3.2,8.5,3.2,8.5L139.2,285z
		"/>
	<path class="st0" d="M147.4,271.4c4.2-1.6,8.3-3.5,12.2-5.7c5.3-3.2,5.2-11.1,5.2-11.1s-3.5,1.7-9.2,4.8s-6.5,6.3-6.5,6.3
		L147.4,271.4z"/>
	<path class="st0" d="M134.8,293.5c4.3-1.1,8.6-2.6,12.7-4.4c5.6-2.6,6.3-10.5,6.3-10.5s-3.7,1.3-9.6,3.9S137,288,137,288
		L134.8,293.5z"/>
	<path class="st0" d="M133,319.9c4-2,7.8-4.4,11.5-7c5-3.8,4-11.5,4-11.5s-3.4,2.1-8.6,5.8s-5.8,6.9-5.8,6.9L133,319.9z"/>
	<path class="st0" d="M131.1,326c-2.6-3.6-4.9-7.5-6.9-11.5c-2.6-5.6,1.9-12.1,1.9-12.1s2,3.4,4.9,9.1s1.9,8.9,1.9,8.9L131.1,326z"
		/>
	<path class="st0" d="M124.5,352.1c-3.9-2.2-7.6-4.8-11.1-7.6c-4.7-4-3.3-11.8-3.3-11.8s3.2,2.3,8.3,6.3s5.4,7.3,5.4,7.3
		L124.5,352.1z"/>
	<path class="st0" d="M124.2,344.1c4-2,7.8-4.3,11.5-7c5-3.8,4-11.5,4-11.5s-3.3,2.1-8.6,5.8s-5.8,6.9-5.8,6.9L124.2,344.1z"/>
	<path class="st0" d="M125.8,361.6c3.4-2.9,6.5-6.2,9.3-9.6c3.8-4.9,0.9-12.2,0.9-12.2s-2.7,2.9-6.9,7.8s-3.9,8.2-3.9,8.2
		L125.8,361.6z"/>
	<path class="st3" d="M127,371.9c0,0-2.9-20.3-2.8-27.6s5.3-12.5,8.4-22.9s0-22,3.2-30s8.6-13.1,12-22c1.2-3.2,2.2-6.5,3-9.8"/>
	<line class="st3" x1="154.1" y1="265" x2="148.6" y2="267.8"/>
	<line class="st3" x1="148.2" y1="259.6" x2="149.6" y2="263.6"/>
	<path class="st3" d="M145.4,286.3c-4.7,2.4-9.3,4.7-9.3,4.7"/>
	<path class="st3" d="M133.9,272.7c2.2,3.9,4,8,5.3,12.3"/>
	<path class="st3" d="M144.1,308.6c-4,2.8-7.6,6.2-10.7,10.1"/>
	<path class="st3" d="M126.8,309.6c0,0,0.2,0.5,2,4.4c1.3,2.9,2.3,6,3,9.1"/>
	<path class="st3" d="M114.7,340.3c1.2,1.2,2.5,2.3,3.8,3.3c2.1,1.9,4.1,3.9,5.9,6.1"/>
	<path class="st3" d="M134.9,332.1c-2.1,1.6-4,3.4-5.8,5.4c-1.8,2.1-3.5,4.4-4.9,6.8"/>
	<path class="st3" d="M134.2,346.3c-1.1,1.6-3.7,5.5-6,8.5c-1.4,2-2.3,4.4-2.4,6.9"/>
	<path class="st9" d="M103.3,201.1c5.7-4.2,11-8.8,15.9-13.8c6.7-7.2,3.1-19,3.1-19s-4.6,4.1-11.8,11.3s-7.2,12.3-7.2,12.3V201.1z"
		/>
	<path class="st9" d="M113.7,233.1c5.7-4.2,11-8.8,15.9-13.8c6.6-7.2,3.1-18.9,3.1-18.9s-4.6,4.1-11.8,11.3s-7.2,12.3-7.2,12.3
		L113.7,233.1z"/>
	<path class="st9" d="M104.7,209.7c-6.1-3.5-11.8-7.6-17.3-12.1c-7.4-6.4-5.1-18.5-5.1-18.5s5,3.6,12.9,10s8.4,11.5,8.4,11.5
		L104.7,209.7z"/>
	<path class="st9" d="M118.3,247.4c-6.4-2.9-12.6-6.3-18.4-10.2c-8-5.6-7-17.9-7-17.9s5.4,3,13.9,8.6s9.6,10.5,9.6,10.5L118.3,247.4
		z"/>
	<path class="st9" d="M113.9,288.8c-5.7-4.2-11-8.8-15.9-13.8c-6.7-7.2-3.1-19-3.1-19s4.6,4.1,11.8,11.3s7.2,12.3,7.2,12.3
		L113.9,288.8z"/>
	<path class="st9" d="M121.1,328.6c-5.7-4.2-11-8.8-15.9-13.8c-6.7-7.2-3.1-19-3.1-19s4.6,4.1,11.8,11.3s7.2,12.3,7.2,12.3V328.6z"
		/>
	<path class="st9" d="M149.2,266.1c-3.1-3.2-5.9-6.7-8.5-10.4c-3.4-5.2,0.1-12.2,0.1-12.2s2.5,3.1,6.2,8.4s3.2,8.5,3.2,8.5
		L149.2,266.1z"/>
	<path class="st9" d="M137.1,270.7c-3.7-5.3-6.2-8.4-6.2-8.4c-0.4,0.8-0.7,1.6-0.9,2.5c-0.3-0.8-0.5-1.3-0.5-1.3s-4,4.7-10.1,12.8
		s-5.3,13.2-5.3,13.2l1.3,9.1c5-4.9,9.6-10.3,13.8-16c1.4-2.1,2.3-4.5,2.5-7c2.3,3.3,4.9,6.4,7.6,9.3l1-5.8
		C140.2,279.2,140.8,276,137.1,270.7z"/>
	<path class="st9" d="M147.4,271.4c4.2-1.6,8.3-3.5,12.2-5.7c5.3-3.2,5.2-11.1,5.2-11.1s-3.5,1.7-9.2,4.8s-6.5,6.3-6.5,6.3
		L147.4,271.4z"/>
	<path class="st9" d="M134.8,293.5c4.3-1.1,8.6-2.6,12.7-4.4c5.6-2.6,6.3-10.5,6.3-10.5s-3.7,1.3-9.6,3.9S137,288,137,288
		L134.8,293.5z"/>
	<path class="st9" d="M133,319.9c4-2,7.8-4.4,11.5-7c5-3.8,4-11.5,4-11.5s-3.4,2.1-8.6,5.8s-5.8,6.9-5.8,6.9L133,319.9z"/>
	<path class="st9" d="M131.1,326c-2.6-3.6-4.9-7.5-6.9-11.5c-2.6-5.6,1.9-12.1,1.9-12.1s2,3.4,4.9,9.1s1.9,8.9,1.9,8.9L131.1,326z"
		/>
	<path class="st9" d="M124.5,352.1l-0.7-5.8c0,0-0.4-3.2-5.4-7.3c-1.7-1.3-3.1-2.5-4.3-3.4c-0.4-0.9-1-1.9-1.6-3
		c-5.1-8.7-8.5-13.9-8.5-13.9s-6.4,10.5-1.8,19.1c3.5,6.1,7.4,11.9,11.8,17.4l2.3-8.6C118.9,348.7,121.7,350.5,124.5,352.1z"/>
	<path class="st9" d="M124.2,344.1c4-2,7.8-4.3,11.5-7c5-3.8,4-11.5,4-11.5s-3.3,2.1-8.6,5.8s-5.8,6.9-5.8,6.9L124.2,344.1z"/>
	<path class="st9" d="M125.8,361.6c3.4-2.9,6.5-6.2,9.3-9.6c3.8-4.9,0.9-12.2,0.9-12.2s-2.7,2.9-6.9,7.8s-3.9,8.2-3.9,8.2
		L125.8,361.6z"/>
</g>
<g id="freepik--Board--inject-3">
	<rect x="100.4" y="66.4" class="st6" width="302.7" height="162.1"/>
	<rect x="108.6" y="75" class="st7" width="286.5" height="145.5"/>
	<line class="st3" x1="195.1" y1="85" x2="195.1" y2="200.4"/>
	<line class="st3" x1="292.6" y1="85" x2="292.6" y2="204.4"/>
	<line class="st3" x1="133.6" y1="108.4" x2="361.1" y2="108.4"/>
	<path class="st10" d="M136.8,123.5c0,0-2.8,5.9,1.3,13.2l10.6-1.2c0,0-1.7-9.8-1.6-13.4L136.8,123.5z"/>
	<path class="st11" d="M136.8,122.9l10.2-0.8c0.5,3.6,1.3,7.1,2.6,10.4l-10.4,1.3C138,130.3,137.1,126.6,136.8,122.9z"/>
	<path class="st10" d="M151.8,142.1l10.2-0.8c0.5,3.6,1.3,7,2.6,10.4l-10.4,1.3C153,149.5,152.2,145.8,151.8,142.1z"/>
	<path class="st11" d="M154.6,162.3l10.3-0.8c0.4,3.6,1.3,7,2.6,10.4l-10.4,1.3C155.8,169.6,155,166,154.6,162.3z"/>
	<path class="st11" d="M165.8,122.8l11.5-0.7c-0.1,4.2,0.6,8.3,1.9,12.2l-11.4,1.3C167.8,135.6,165.8,132.5,165.8,122.8z"/>
	<path class="st10" d="M167.4,121l11.5-0.7c-0.1,4.2,0.6,8.3,2,12.2l-11.4,1.3C169.6,133.8,167.4,130.7,167.4,121z"/>
	<path class="st6" d="M176.5,123.6c0,0.4-0.3,0.7-0.6,0.7c0,0,0,0,0,0c-0.4,0-0.7-0.3-0.7-0.6c0,0,0,0,0,0c0-0.4,0.3-0.7,0.7-0.7
		C176.2,122.9,176.5,123.2,176.5,123.6C176.5,123.6,176.5,123.6,176.5,123.6z"/>
	<path class="st6" d="M145,124.9c0,0.4-0.3,0.7-0.6,0.7c0,0,0,0,0,0c-0.4,0-0.7-0.3-0.7-0.6c0,0,0,0,0,0c0-0.4,0.3-0.7,0.7-0.7
		C144.7,124.2,145,124.5,145,124.9C145,124.9,145,124.9,145,124.9z"/>
	<path class="st6" d="M157.5,143.9c0,0.4-0.3,0.7-0.7,0.7s-0.7-0.3-0.7-0.7c0-0.4,0.3-0.7,0.7-0.7l0,0
		C157.2,143.2,157.5,143.5,157.5,143.9z"/>
	<path class="st11" d="M172.5,145.6l9.8-1c0.1,4.4,0.7,8.8,1.9,13.1l-10.1,0.9C174.2,158.6,172.3,154,172.5,145.6z"/>
	<path class="st11" d="M130.1,148.3c0,0-4.6,8.1,0.6,16.3l10.4-1.2c0,0-2.7-9.5-1.1-15.6L130.1,148.3z"/>
	<path class="st10" d="M130.1,148.3l9.9-0.5c0,4.2,0.5,8.3,1.6,12.3l-9.9,1.4C131.6,161.5,129.1,158.3,130.1,148.3z"/>
	<path class="st6" d="M136.5,150.1c0,0.4-0.3,0.7-0.7,0.7c-0.4,0-0.7-0.3-0.7-0.7c0-0.4,0.3-0.7,0.7-0.7c0,0,0,0,0,0
		C136.2,149.4,136.5,149.7,136.5,150.1L136.5,150.1z"/>
	<path class="st6" d="M180.5,147.2c0,0.4-0.3,0.7-0.7,0.7c-0.4,0-0.7-0.3-0.7-0.7c0,0,0,0,0,0c0-0.4,0.3-0.7,0.6-0.7c0,0,0,0,0,0
		C180.2,146.5,180.5,146.8,180.5,147.2C180.5,147.2,180.5,147.2,180.5,147.2z"/>
	<path class="st6" d="M163.6,163.9c0,0.4-0.2,0.7-0.6,0.7c-0.4,0-0.7-0.2-0.7-0.6c0-0.1,0-0.1,0-0.2c0-0.4,0.4-0.6,0.7-0.6
		C163.3,163.4,163.6,163.6,163.6,163.9z"/>
	<path class="st10" d="M213.6,152.4l10.3-0.8c0.4,3.6,1.3,7,2.6,10.4l-10.4,1.3C214.8,159.8,214,156.1,213.6,152.4z"/>
	<path class="st11" d="M216.3,176.5l10.2-0.8c0.5,3.6,1.3,7,2.6,10.4l-10.4,1.3C217.4,183.9,216.6,180.2,216.3,176.5z"/>
	<path class="st11" d="M251.9,122.8l11.5-0.7c-0.1,4.2,0.6,8.3,2,12.2l-11.3,1.3C254,135.6,251.9,132.5,251.9,122.8z"/>
	<path class="st10" d="M253.6,121l11.5-0.7c-0.1,4.1,0.6,8.3,1.9,12.2l-11.4,1.3C255.6,133.8,253.6,130.7,253.6,121z"/>
	<path class="st6" d="M262.6,123.6c0,0.4-0.3,0.7-0.7,0.7c-0.4,0-0.7-0.3-0.7-0.7c0-0.4,0.3-0.7,0.7-0.7
		C262.4,122.9,262.6,123.2,262.6,123.6z"/>
	<path class="st6" d="M219.3,154.2c0,0.4-0.3,0.7-0.6,0.7c0,0,0,0,0,0c-0.4,0-0.7-0.3-0.7-0.6c0,0,0,0,0,0c0-0.4,0.3-0.7,0.7-0.7
		C219,153.5,219.3,153.8,219.3,154.2C219.3,154.2,219.3,154.2,219.3,154.2z"/>
	<path class="st11" d="M236.5,150.2l9.8-1c0.1,4.4,0.7,8.8,1.9,13.1l-10.1,0.9C238.2,163.2,236.4,158.6,236.5,150.2z"/>
	<path class="st6" d="M244.5,151.8c0,0.4-0.3,0.7-0.7,0.7s-0.7-0.3-0.7-0.7s0.3-0.7,0.7-0.7C244.2,151.1,244.5,151.4,244.5,151.8
		L244.5,151.8z"/>
	<path class="st6" d="M223.3,178.3c0,0.4-0.2,0.7-0.6,0.7c-0.4,0-0.7-0.2-0.7-0.6c0-0.1,0-0.1,0-0.2c0-0.4,0.4-0.6,0.7-0.6
		C223.1,177.7,223.3,177.9,223.3,178.3z"/>
	<path class="st10" d="M315,122.9l10.2-0.8c0.5,3.6,1.3,7.1,2.6,10.4l-10.4,1.3C316.2,130.3,315.4,126.6,315,122.9z"/>
	<path class="st10" d="M332.8,162.3l10.3-0.8c0.4,3.6,1.3,7,2.6,10.4l-10.4,1.3C334,169.6,333.2,166,332.8,162.3z"/>
	<path class="st10" d="M345.7,121l11.5-0.7c-0.1,4.2,0.6,8.3,1.9,12.2l-11.4,1.3C347.7,133.8,345.7,130.7,345.7,121z"/>
	<path class="st6" d="M354.7,123.6c0,0.4-0.3,0.7-0.7,0.7c0,0,0,0,0,0c-0.4,0-0.7-0.3-0.7-0.6c0,0,0,0,0,0c0-0.4,0.3-0.7,0.6-0.7
		c0,0,0,0,0,0C354.4,122.9,354.7,123.2,354.7,123.6C354.7,123.6,354.7,123.6,354.7,123.6z"/>
	<path class="st6" d="M323.2,124.9c0,0.4-0.3,0.7-0.7,0.7c-0.4,0-0.7-0.3-0.7-0.7c0-0.4,0.3-0.7,0.7-0.7
		C322.9,124.3,323.2,124.6,323.2,124.9z"/>
	<path class="st10" d="M308.3,148.3l9.9-0.5c0,4.2,0.5,8.3,1.6,12.3l-10,1.4C309.8,161.5,307.3,158.3,308.3,148.3z"/>
	<path class="st6" d="M314.7,150.1c0,0.4-0.3,0.7-0.6,0.7c0,0,0,0,0,0c-0.4,0-0.7-0.3-0.7-0.7v0c0-0.4,0.3-0.7,0.7-0.7c0,0,0,0,0,0
		C314.4,149.4,314.7,149.7,314.7,150.1C314.7,150.1,314.7,150.1,314.7,150.1z"/>
	<path class="st6" d="M341.8,163.9c0,0.4-0.3,0.7-0.7,0.7c-0.4,0-0.7-0.3-0.7-0.7c0-0.4,0.3-0.7,0.7-0.7c0,0,0,0,0,0
		C341.5,163.3,341.8,163.6,341.8,163.9L341.8,163.9z"/>
	<polygon class="st9" points="100.4,67.2 108.6,75 108.6,220.6 100.4,228.5 	"/>
	<polygon class="st9" points="403.1,66.4 403.1,227.7 395.2,220.6 395.2,75 	"/>
	<line class="st3" x1="207" y1="121.8" x2="228.6" y2="120.2"/>
	<line class="st3" x1="207" y1="125.7" x2="228.6" y2="124.2"/>
	<line class="st3" x1="207" y1="129.6" x2="228.6" y2="128.1"/>
	<path class="st3" d="M260,160.9c1-3.6,4.3-6.2,7.8-7.5c7.2-2.8,14.4,0.1,17,7.6c1.9,5.4,1.5,12.5-3.5,16c-4.3,2.9-9.7,3.7-14.7,2.2
		c-3.7-1.2-6.8-4.8-6.4-8.7"/>
	<path class="st3" d="M281.4,135.6c-1.3,5.2-2.6,10.4-3.8,15.6"/>
	<path class="st3" d="M274.1,145.5c0.7,2.2,1.7,4.2,2.9,6.1c2.1-0.8,3.9-2.2,5.1-4.1"/>
	<path class="st10" d="M266.5,161.9l10.2-0.8c0.5,3.6,1.3,7,2.6,10.4l-10.4,1.3C267.7,169.3,266.8,165.6,266.5,161.9z"/>
	<path class="st6" d="M272.2,163.7c0,0.4-0.3,0.7-0.7,0.7c0,0,0,0,0,0c-0.4,0-0.7-0.3-0.7-0.6c0,0,0,0,0,0c0-0.4,0.3-0.7,0.6-0.7
		c0,0,0,0,0,0C271.9,163,272.2,163.3,272.2,163.7L272.2,163.7z"/>
	<g>
		<path class="st6" d="M220.9,98.1v1.8h-7.4v-9.5h7.2v1.8h-5v2.1h4.4v1.7h-4.4v2.2H220.9z"/>
		<path class="st6" d="M229.9,95.7v4.2h-2.1V96c0-1.2-0.5-1.7-1.5-1.7c-1,0-1.7,0.6-1.7,2v3.6h-2.1v-7.3h2v0.9c0.6-0.6,1.4-1,2.4-1
			C228.6,92.5,229.9,93.5,229.9,95.7z"/>
		<path class="st6" d="M235.2,95.1c0-2.9,2.2-4.9,5.2-4.9c1.6,0,3,0.6,3.9,1.7l-1.4,1.3c-0.6-0.7-1.4-1.1-2.4-1.1c-1.8,0-3,1.2-3,3
			c0,1.8,1.3,3,3,3c0.9,0,1.7-0.4,2.4-1.1l1.4,1.3c-0.9,1.1-2.3,1.7-3.9,1.7C237.4,100,235.2,98,235.2,95.1z"/>
		<path class="st6" d="M244.8,96.2c0-2.2,1.7-3.8,4-3.8c2.3,0,4,1.6,4,3.8s-1.7,3.8-4,3.8C246.5,100,244.8,98.4,244.8,96.2z
			 M250.7,96.2c0-1.3-0.8-2-1.9-2c-1.1,0-1.9,0.8-1.9,2s0.8,2,1.9,2C249.9,98.3,250.7,97.5,250.7,96.2z"/>
		<path class="st6" d="M261.6,92.6v7.3h-2V99c-0.6,0.6-1.4,1-2.3,1c-1.8,0-3.1-1-3.1-3.3v-4.1h2.1v3.8c0,1.2,0.5,1.8,1.5,1.8
			c1,0,1.7-0.6,1.7-2v-3.6H261.6z"/>
		<path class="st6" d="M268.1,92.5v2c-0.2,0-0.3,0-0.5,0c-1.2,0-1.9,0.6-1.9,2v3.4h-2.1v-7.3h2v1C266.1,92.8,267,92.5,268.1,92.5z"
			/>
		<path class="st6" d="M268.7,99.2l0.7-1.5c0.7,0.4,1.6,0.7,2.5,0.7c1,0,1.3-0.3,1.3-0.7c0-1.2-4.4,0-4.4-2.9c0-1.4,1.2-2.4,3.4-2.4
			c1,0,2.1,0.2,2.8,0.6l-0.7,1.5c-0.7-0.4-1.4-0.5-2.1-0.5c-0.9,0-1.4,0.3-1.4,0.7c0,1.2,4.4,0,4.4,2.9c0,1.4-1.3,2.3-3.4,2.3
			C270.6,100,269.4,99.6,268.7,99.2z"/>
	</g>
	<g>
		<path class="st6" d="M307.4,92.9h-2.8v-1.6h7.5v1.6h-2.8v7h-2V92.9z"/>
		<path class="st6" d="M318.9,97.2h-5c0.2,0.8,0.9,1.3,1.9,1.3c0.7,0,1.2-0.2,1.7-0.6l1,1.1c-0.6,0.7-1.5,1.1-2.7,1.1
			c-2.3,0-3.8-1.4-3.8-3.4c0-2,1.5-3.4,3.5-3.4c2,0,3.5,1.3,3.5,3.4C319,96.8,319,97,318.9,97.2z M313.9,96h3.3
			c-0.1-0.8-0.8-1.4-1.6-1.4C314.7,94.7,314,95.2,313.9,96z"/>
		<path class="st6" d="M324.4,93.2V95c-0.2,0-0.3,0-0.4,0c-1.1,0-1.8,0.6-1.8,1.9v3.1h-1.9v-6.6h1.8v0.9
			C322.6,93.5,323.4,93.2,324.4,93.2z"/>
		<path class="st6" d="M336.8,96.1v3.8h-1.9v-3.5c0-1.1-0.5-1.6-1.3-1.6c-0.9,0-1.5,0.6-1.5,1.7v3.3h-1.9v-3.5
			c0-1.1-0.5-1.6-1.3-1.6c-0.9,0-1.5,0.6-1.5,1.7v3.3h-1.9v-6.6h1.8v0.8c0.5-0.6,1.2-0.9,2.1-0.9c0.9,0,1.7,0.4,2.2,1.1
			c0.5-0.7,1.4-1.1,2.4-1.1C335.6,93.2,336.8,94.1,336.8,96.1z"/>
		<path class="st6" d="M338.3,91.3c0-0.6,0.5-1.1,1.2-1.1c0.7,0,1.2,0.4,1.2,1c0,0.6-0.5,1.1-1.2,1.1
			C338.7,92.4,338.3,91.9,338.3,91.3z M338.5,93.3h1.9v6.6h-1.9V93.3z"/>
		<path class="st6" d="M349,96.1v3.8h-1.9v-3.5c0-1.1-0.5-1.6-1.3-1.6c-0.9,0-1.6,0.6-1.6,1.8v3.3h-1.9v-6.6h1.8v0.8
			c0.5-0.6,1.3-0.9,2.2-0.9C347.8,93.2,349,94.1,349,96.1z"/>
		<path class="st6" d="M357.3,97.2h-5c0.2,0.8,0.9,1.3,1.9,1.3c0.7,0,1.2-0.2,1.7-0.6l1,1.1c-0.6,0.7-1.5,1.1-2.7,1.1
			c-2.3,0-3.8-1.4-3.8-3.4c0-2,1.5-3.4,3.5-3.4c2,0,3.5,1.3,3.5,3.4C357.3,96.8,357.3,97,357.3,97.2z M352.2,96h3.3
			c-0.1-0.8-0.8-1.4-1.6-1.4C353,94.7,352.4,95.2,352.2,96z M354.2,92.4h-1.5l1.7-1.8h2.1L354.2,92.4z"/>
	</g>
	<g>
		<path class="st6" d="M144.5,98.1h-4l-0.8,1.9h-2.1l3.9-8.6h2l3.9,8.6h-2.1L144.5,98.1z M143.8,96.6l-1.4-3.3l-1.4,3.3H143.8z
			 M142,90.8l-2-1.6h1.8l1.5,1.6H142z"/>
		<path class="st6" d="M153.7,92.9v2.3h4v1.6h-4v3.2h-2v-8.6h6.5v1.6H153.7z"/>
		<path class="st6" d="M165.2,96.2v3.8h-1.8v-0.8c-0.4,0.6-1,0.9-2,0.9c-1.6,0-2.5-0.9-2.5-2c0-1.2,0.8-2,2.9-2h1.5
			c0-0.8-0.5-1.3-1.5-1.3c-0.7,0-1.4,0.2-1.9,0.6l-0.7-1.3c0.7-0.5,1.8-0.8,2.9-0.8C164,93.2,165.2,94.1,165.2,96.2z M163.3,97.8
			v-0.7h-1.3c-0.9,0-1.2,0.3-1.2,0.8c0,0.5,0.4,0.8,1.1,0.8C162.5,98.7,163,98.4,163.3,97.8z"/>
		<path class="st6" d="M166.7,91.3c0-0.6,0.5-1.1,1.2-1.1c0.7,0,1.2,0.4,1.2,1c0,0.6-0.5,1.1-1.2,1.1
			C167.2,92.4,166.7,91.9,166.7,91.3z M166.9,93.3h1.9v6.6h-1.9V93.3z"/>
		<path class="st6" d="M174.8,93.2V95c-0.2,0-0.3,0-0.4,0c-1.1,0-1.8,0.6-1.8,1.9v3.1h-1.9v-6.6h1.8v0.9
			C173,93.5,173.7,93.2,174.8,93.2z"/>
		<path class="st6" d="M182.3,97.2h-5c0.2,0.8,0.9,1.3,1.9,1.3c0.7,0,1.2-0.2,1.7-0.6l1,1.1c-0.6,0.7-1.5,1.1-2.7,1.1
			c-2.3,0-3.8-1.4-3.8-3.4c0-2,1.5-3.4,3.5-3.4c2,0,3.5,1.3,3.5,3.4C182.4,96.8,182.3,97,182.3,97.2z M177.3,96h3.3
			c-0.1-0.8-0.8-1.4-1.6-1.4C178,94.7,177.4,95.2,177.3,96z"/>
	</g>
</g>
<g id="freepik--character-2--inject-3">
	<path class="st7" d="M333.6,222.1c0.7-2.8,0.5-5.8-0.6-8.5c-1.3-2.8-2.8-5.5-4.4-8.1c0,0,0.4-6.3-1.2-8.5s-6.6-10-7.8-10.1
		s-1,5.4,1,8.9l-0.3,2.4c0,0-7.6-3.9-9.9-4.8s-8-3.5-9.2-2.3s7.7,4.2,9.2,6.7c0,0-14.1-1.5-13.9,0.4s5,2.2,5,2.2s-1.5,0.3-1.1,1.4
		s10.8,3.5,10.8,3.5c2.8,4.2,6.7,7.5,11.4,9.4C330.5,218.2,333.6,222.1,333.6,222.1z"/>
	<path class="st3" d="M334.6,221.3c-0.1-7.9-6-15.7-6-15.7s0.5-7-2.2-9.9c-0.5-0.5-0.9-1-1.3-1.6c-0.4-0.5-0.8-1.1-1.2-1.6
		c-1.9-2.6-3.6-5.4-4.3-5.4c-0.9-0.1-0.6,4.8,0.3,7.1c0.1,0.3,0.2,0.5,0.4,0.7c0.2,0.3,0.4,0.7,0.4,1.1c0.1,1.7-1.2,4.1,0.1,6.4"/>
	<path class="st3" d="M320.3,198.4c0,0-16.8-9.4-19.8-6.6c0,0,9,4.3,9.9,6.2"/>
	<path class="st3" d="M313.5,202.5c0,0-10.3-3.2-13-1.5s10.8,4.6,10.8,4.6s4.9,7.3,8.3,6.9"/>
	<path class="st3" d="M300.5,201c0,0-4.1-0.6-4-2.5s13-2,18,1.3"/>
	<path class="st6" d="M320.3,194.8c0.2,0.3,0.4,0.7,0.4,1.1l-11.1,4.5c-0.5,0.2-1.1,0-1.3-0.5c-0.2-0.5,0-1.1,0.5-1.3l11.1-4.5
		C320,194.4,320.1,194.6,320.3,194.8z"/>
	<path class="st6" d="M331.2,191.7l-6,2.5c-0.4-0.5-0.8-1.1-1.2-1.6l6.5-2.7c0.5-0.2,1.1,0.1,1.3,0.6
		C331.9,190.9,331.7,191.5,331.2,191.7L331.2,191.7z"/>
	<polygon class="st7" points="330.3,211.1 299.9,214.7 290.3,223.1 313.3,267.3 346.5,265.1 348.9,254.1 	"/>
	<polygon class="st6" points="330.3,211.1 326.5,218.7 346.5,265.1 348.9,254.1 	"/>
	<polygon class="st12" points="330.3,211.1 326.5,218.7 346.5,265.1 348.9,254.1 	"/>
	<polygon class="st6" points="290.3,223.1 326.5,218.7 346.5,265.1 313.3,267.3 	"/>
	<polygon class="st13" points="290.3,223.1 326.5,218.7 346.5,265.1 313.3,267.3 	"/>
	<polygon class="st3" points="326.5,218.7 290.3,223.1 313.3,267.3 346.5,265.1 	"/>
	<line class="st3" x1="326.5" y1="218.7" x2="330.3" y2="211.1"/>
	<polyline class="st3" points="346.5,265.1 348.9,254.1 330.3,211.1 299.9,214.7 290.3,223.1 	"/>
	<path class="st7" d="M313.6,249.3c0,0-1.3-6.5-4.9-8s-14.6-0.4-15,1.8s3.8,4.7,3.8,4.7s-0.6,7.4,3.4,10.1c4,2.7,11,1.5,11,1.5
		l3.6,0.9l2-10.5L313.6,249.3z"/>
	<path class="st3" d="M315,249l-1.4,0.3c0,0-1.5-7.7-5.5-8.3s-14.8,0.3-14.4,2.9s3.8,3.9,3.8,3.9s-0.1,8.9,4.2,10.5
		s10.2,1.1,10.2,1.1c-0.7-0.3,0.5,0.1,2,0.5"/>
	<path class="st0" d="M404.1,415.4l0.5,12.4c0,0-8.8,5.4-12.9,4s-17.3-8.3-17.3-8.3s-0.6-7.1,7.4-7s19.1,4.5,19.1,4.5L404.1,415.4z"
		/>
	<path class="st9" d="M404.1,415.4l0.5,12.4c0,0-8.8,5.4-12.9,4s-17.3-8.3-17.3-8.3s-0.6-7.1,7.4-7s19.1,4.5,19.1,4.5L404.1,415.4z"
		/>
	<path class="st7" d="M378.2,418.3c2.7,1.5,5.4,2.8,8.3,3.8c1.5,0.6,3,0.8,4.6,0.8l1.3-0.9l1.7-0.9l0.6-1.9l-5.1-1.1
		C389.6,418.1,381.9,416.7,378.2,418.3z"/>
	<path class="st7" d="M375.3,420.6l-0.8,2.9c0,0,10.1,7.2,15.9,8s14.3-3.6,14.3-3.6l-0.1-1.9c0,0-5.2,3-10,3.2
		S375.3,420.6,375.3,420.6z"/>
	<path class="st3" d="M394.8,418.8c0,0-12.2-1.6-16.3-0.6s-4,5.3-4,5.3s14,9.5,19.7,8.4c3.7-0.8,7.2-2.1,10.4-4.1v-13.1"/>
	<path class="st3" d="M375.3,420.6c0,0,14.5,8.7,19.3,8.5s10-3.9,10-3.9"/>
	<path class="st3" d="M377.9,418.7c4.4,0.7,6.8,4.2,11.3,4.4c2.4,0.1,4.7-1.2,5.9-3.3"/>
	<path class="st0" d="M353.4,421.7l-0.4,17.6c0,0-9.7,2.4-15.1,0.4s-16.5-16.3-16.5-16.3s3.3-6.5,10.4-3.8s16.7,7.4,16.7,7.4
		L353.4,421.7z"/>
	<path class="st9" d="M353.4,421.7l-0.4,17.6c0,0-9.7,2.4-15.1,0.4s-16.5-16.3-16.5-16.3s3.3-6.5,10.4-3.8s16.7,7.4,16.7,7.4
		L353.4,421.7z"/>
	<path class="st7" d="M321.4,423.4l1.2-2.3c0,0,6.7,7.1,8.3,8.6s6,5.8,9.8,7.2s11.8-0.1,11.8-0.1l0.5,2.5c0,0-11.8,1.9-14.6,0.6
		S324.4,428.4,321.4,423.4z"/>
	<path class="st7" d="M327.2,418.8c0,0,4.5,3.7,6,5s4.1,3.3,6.6,3.3c1.8-0.2,3.6-0.8,5.1-1.8l-6.1-2.7
		C338.8,422.5,330.3,417.9,327.2,418.8z"/>
	<path class="st3" d="M340.1,423.4c0,0-7.6-4.4-12.6-4.6s-6.2,4.6-6.2,4.6s12,16.3,18.8,17c4.3,0.4,8.7,0,12.9-1.1l0.4-14.5"/>
	<path class="st3" d="M322.7,420.9c0,0,12.3,14.4,17.3,15.8s13.1,0,13.1,0"/>
	<path class="st3" d="M326,418.9c2.1,0.5,4,1.6,5.5,3.1c1.4,1.6,3.1,2.9,4.9,4.1c1.9,1,4.3,1.3,6.1,0.1"/>
	<path class="st7" d="M351.7,150.1c0,0-7,6.2-7.6,10.4s1.6,9.2,1.4,11s-3.8,5.5-3.2,6.6c0.8,1.1,1.8,2.2,2.8,3.1c0,0-0.4,9.1,5,12.3
		l2.5,0.6l11.4-6.2l1.8,2l16.3-3c-1.2-2.5-1.9-5.2-2.1-8c-0.2-4.6,2.1-13.6,2.1-13.6l-4.6-9.5L351.7,150.1z"/>
	<path class="st0" d="M392.4,267.3l5.9,23.4c0,0-4.6,2.4-10.8,5.3c-11.1,5.3-27.6,12.6-32.6,12c-7.8-1.1-26.2-20.1-26.2-20.1
		l11.2-24.3c0,0-23.4,0.7-27.9-0.8c0,0-1.2-9,2-16.7l28.4,1.4l0.3-2.4c0,0,5.9-20.8,9.4-28.8s7.6-15.3,7.6-15.3l7.2-5.3l-2-5.4
		c0,0,8.4-6.1,17.3-5.9l0,0c3,0,5.9,0.9,8.5,2.5l-1.7,5.7c0,0,15.4,18,17.7,24.1S397.8,254.7,392.4,267.3z"/>
	<path class="st9" d="M337.6,268.4l20.6,3.6c0,0,13.2-11.4,17.8-40c0,0-9.8,24.4-17.7,30.7l-18.5,0.8L337.6,268.4z"/>
	<path class="st9" d="M392.4,267.3l5.9,23.4c0,0-4.7,1.8-10.9,4.8c-1.3-6.8-3-13.5-5.1-20.1c-0.2-0.9-0.6-1.7-1.1-2.5
		c-0.6-1-1.4-1.8-2.3-2.5c-2.6-1.5-6.1-4.3-7.6-6.8c4.6,0.9,10,3.1,14.6,2.9c0.6,0,1.2-0.1,1.6-0.5c0.3-0.4,0.5-0.8,0.6-1.3
		c1.9-7.5,3.9-15,5.8-22.5c0.8-2.5,1.2-5.2,1.3-7.8c-0.1-3.3-1.4-6.5-2.6-9.6c-3.2-7.8-6.5-15.7-9.7-23.5c-0.4-1.2-1.1-2.2-2-3
		c-0.9-0.5-1.8-0.8-2.8-0.9c-3.4-0.5-7.8-1.6-11.2-1.7c3.9-3.3,9.7-4.6,14.7-5.3c0.5-2,0.7-4,0.6-6l0,0c3,0,5.9,0.9,8.5,2.5
		l-1.7,5.7c0,0,15.4,18,17.7,24.1S397.8,254.7,392.4,267.3z"/>
	<path class="st6" d="M351.1,167.6c0.1,0.9-0.1,1.7-0.5,1.8s-0.9-0.6-1-1.6s0.1-1.7,0.5-1.8S351,166.6,351.1,167.6z"/>
	<path class="st3" d="M369.5,176.6l5.6-1.5c0,0,1.4-6,0.8-9.6s-5.4-3.9-6.9-3.8s-1.2,5.5-1.2,5.5"/>
	<path class="st3" d="M349.4,151.8l-5.3,8.8c-0.4,0.7-0.6,1.5-0.4,2.3l1.8,8.8c0.2,0.9,0,1.8-0.6,2.5c-1,1.3-2.5,3.4-2.6,4.1
		s0.9,1.4,1.8,2c0.7,0.5,1.2,1.2,1.4,2.1c0.5,2.9,0.7,5.7,2.7,8.9c2.6,4.1,5.9,2.8,5.9,2.8l10-6c0.8-0.5,3.1-8.8,3.1-8.8"/>
	<path class="st3" d="M347.3,162.6c0,0,3.2-3.9,6.3,0.3"/>
	<path class="st6" d="M349,182.2c0,0,8.2-5.3,9.4-8c0,0,0.7,7.8-2.5,9.2S349,182.2,349,182.2z"/>
	<path class="st3" d="M381.1,184.4c0,0-2.1-6.9-0.9-11.5"/>
	<path class="st6" d="M332.1,291.4c0,0-0.3,30.4,2.2,68.5s6.1,65.9,6.1,65.9s8.3,6.8,14.8,0l11.2-99l25.2,92.2c0,0,5,4.4,9.3,2.3
		c2.6-1.4,4.8-3.5,6.2-6.2c0,0-11.4-99.6-11.4-123c0,0-36.1,16.8-40.8,16.1S332.1,291.4,332.1,291.4z"/>
	<polyline class="st8" points="366.3,326.8 366.3,320.2 375.4,315.8 	"/>
	<path class="st3" d="M375.4,265.1c0,0,5.2,3.8,15.5,4.5"/>
	<path class="st3" d="M375.4,269.6c4.3,1.2,8.9,1.2,13.2,0"/>
	<path class="st6" d="M367.8,165.2c-0.7-0.5,0.7,5.5-3.2,5.7c-0.8,0.2-1.7,0-2.4-0.5c-0.5-0.7-0.9-1.5-1.1-2.3
		c-0.7-2.2-1.4-4.4-2-6.6c-0.5-1.4-1-3-2.2-3.8c-0.9-0.5-1.9-0.8-2.9-1.1c-2.3-0.7-4.4-2.5-4.5-4.9c0,0-8.8,0.8-10.2-2.6
		c-2.1-5.2,1.2-7.5,5.8-7.4s8.7,2.2,13.5,0.5s15.4-5.8,17.5-0.7c0,0,3.8-1.7,6.1,4.6s7.5,19,2.7,22.9s-3.6,6.3-5.9,6
		s-2.9-3.7-2.9-3.7s1.2-8-3.9-9.3S367.8,165.2,367.8,165.2z"/>
	<path class="st3" d="M373.3,136.8c2,1,3,3.3,2.3,5.4"/>
	<polygon class="st13" points="366.6,195.5 365,190.2 370.4,187.4 371.7,193 	"/>
	<path class="st3" d="M376.1,141.5c2.4-1.5,5.5-1.1,7.4,1"/>
	<path class="st3" d="M366.5,195.2l-1.9-5c0,0,8-5,16.1-5.8c3.5-0.4,6.4,1.3,9.7,2.4l-1.7,5.7"/>
	<path class="st3" d="M339.8,263.6l-11.2,24.3c5.3,6.7,23.7,19.2,26.2,20.1s43.4-17.3,43.4-17.3l-5.9-23.4c0,0,17.3-41.8,14.6-49.4
		s-17.7-25.9-20.8-27.6s-10.8,1.1-10.8,1.1s-11,4.3-14.8,8.2s-13,25.9-14.8,35.4"/>
	<path class="st3" d="M342.2,247.5l-28.4-1.4c-4.2,10-1.9,16.7-1.9,16.7c8.4,2,46.4,0,46.4,0c8.8-8.9,19.2-34.3,19.2-34.3
		c0.6-5.5-0.6-11.1-3.3-16"/>
	<path class="st13" d="M366.6,204.9l-2,6.2c0,0-22.8,32.9-22.2,39.3c0,0-0.4-3.1,3.7-16.4c2.9-8.8,7-17.1,12.1-24.7L366.6,204.9z"/>
	<path class="st3" d="M344.4,255.5c-1.7-2.8-2.5-6.2-2.1-9.4c0.7-5.4,8.6-25.6,16-36.8l9.6-5"/>
	<line class="st3" x1="365.3" y1="189.8" x2="364" y2="188.1"/>
</g>
</svg>
