<?xml version="1.0" encoding="utf-8"?>
<!-- Generator: Adobe Illustrator 24.2.3, SVG Export Plug-In . SVG Version: 6.00 Build 0)  -->
<svg version="1.1" id="Calque_1" xmlns="http://www.w3.org/2000/svg" xmlns:xlink="http://www.w3.org/1999/xlink" x="0px" y="0px"
	 viewBox="0 0 750 500" style="enable-background:new 0 0 750 500;" xml:space="preserve">
<style type="text/css">
	.st0{fill:#67B7AA;}
	.st1{opacity:0.7;fill:#FFFFFF;enable-background:new    ;}
	.st2{fill:#67B7AA;stroke:#263238;stroke-linecap:round;stroke-linejoin:round;}
	.st3{fill:none;stroke:#263238;stroke-linecap:round;stroke-linejoin:round;}
	.st4{fill:#263238;stroke:#263238;stroke-linecap:round;stroke-linejoin:round;}
	.st5{fill:#FFFFFF;stroke:#263238;stroke-linecap:round;stroke-linejoin:round;}
	.st6{fill:none;stroke:#263238;stroke-miterlimit:10;}
	.st7{fill:#263238;}
	.st8{fill:#8C8C8C;stroke:#263238;stroke-linecap:round;stroke-linejoin:round;}
</style>
<g id="freepik--background-simple--inject-7">
	<path class="st0" d="M591.4,66.7c-71.7-9.3-112.4,30.4-208.8,34.8C286.8,94,250.3,52.9,177.8,59.8c-78.1,7.5-138.6,109.2-121.3,211
		s123.9,158.7,178.4,158.3c43.6-0.3,82.1-18,131.8-22.3c49.1,5.9,85.7,24.9,129.2,26.6c54.4,2.2,166.8-51.1,194.7-152.1
		S668.6,76.7,591.4,66.7z"/>
	<path class="st1" d="M591.4,66.7c-71.7-9.3-112.4,30.4-208.8,34.8C286.8,94,250.3,52.9,177.8,59.8c-78.1,7.5-138.6,109.2-121.3,211
		s123.9,158.7,178.4,158.3c43.6-0.3,82.1-18,131.8-22.3c49.1,5.9,85.7,24.9,129.2,26.6c54.4,2.2,166.8-51.1,194.7-152.1
		S668.6,76.7,591.4,66.7z"/>
</g>
<g id="freepik--graduation-cap--inject-7">
	<path class="st2" d="M54,350.5c-0.8,0-1.4-0.6-1.4-1.4l0,0v-93.7c0-0.8,0.6-1.4,1.4-1.4c0.8,0,1.4,0.6,1.4,1.4c0,0,0,0,0,0v93.7
		C55.4,349.8,54.8,350.5,54,350.5C54,350.5,54,350.5,54,350.5z"/>
	<path class="st2" d="M53.3,346.9c0,0-6.8,3.5-8.5,13.3s-5.6,27.6-5.6,27.6h27.2c0,0-1.7-19.9-3.8-28.3S54.7,345.7,53.3,346.9z"/>
	<path class="st2" d="M58.2,347.9c-0.2,2.3-2.3,4-4.6,3.7s-4-2.3-3.7-4.6c0.2-2.1,2-3.8,4.1-3.8C56.4,343.4,58.3,345.5,58.2,347.9
		C58.2,347.9,58.2,347.9,58.2,347.9z"/>
	<line class="st3" x1="44.1" y1="387.3" x2="46.9" y2="374.1"/>
	<line class="st3" x1="51.1" y1="368.9" x2="48.7" y2="383.1"/>
	<line class="st3" x1="54.6" y1="387" x2="55.3" y2="380.7"/>
	<line class="st3" x1="61.2" y1="386.6" x2="59.5" y2="373"/>
	<polygon class="st4" points="122.1,147.3 49.4,258 176.5,203.6 262.3,126.3 	"/>
	<path class="st5" d="M210,164.6c-6.3-13.3-35.3-12.7-64.7,1.3s-48.2,36.1-41.8,49.4l19.8,39l106.6-50.7L210,164.6z"/>
	<ellipse transform="matrix(0.903 -0.4297 0.4297 0.903 -81.2874 98.0648)" class="st4" cx="176.5" cy="229" rx="59" ry="26.6"/>
</g>
<g id="freepik--Device--inject-7">
	<path class="st5" d="M531.3,447.2H398.6l4.5-5.5c7-8.6,10.9-19.4,10.9-30.5v-33.9h102v33.9c0,11.1,3.8,21.9,10.8,30.5L531.3,447.2z
		"/>
	<rect x="414" y="377.3" class="st4" width="102" height="26.5"/>
	<path class="st4" d="M268.4,86.8h393.2c4.7,0,8.5,3.8,8.5,8.5v284.2c0,4.7-3.8,8.5-8.5,8.5H268.4c-4.7,0-8.5-3.8-8.5-8.5V95.3
		C259.9,90.6,263.7,86.8,268.4,86.8z"/>
	<path class="st5" d="M259.9,341.2h410.2l0,0v38.3c0,4.7-3.8,8.5-8.5,8.5H268.4c-4.7,0-8.5-3.8-8.5-8.5c0,0,0,0,0,0V341.2
		L259.9,341.2z"/>
	<rect x="280.5" y="105.5" class="st5" width="368.9" height="212.8"/>
	<rect x="502.1" y="131.9" class="st3" width="138" height="167.6"/>
	<polygon class="st5" points="640.1,169.9 628.1,153.7 573.9,247.4 550,230.4 502.1,299.5 640.1,299.5 	"/>
	
		<ellipse transform="matrix(0.7071 -0.7071 0.7071 0.7071 37.383 429.3285)" class="st5" cx="536.9" cy="169.5" rx="20.1" ry="20.1"/>
	<line class="st6" x1="300.7" y1="188.9" x2="487.3" y2="188.9"/>
	<line class="st6" x1="300.7" y1="204.4" x2="487.3" y2="204.4"/>
	<line class="st6" x1="300.7" y1="219.9" x2="487.3" y2="219.9"/>
	<rect x="280.5" y="105.5" class="st5" width="368.9" height="21.2"/>
	<rect x="280.5" y="305" class="st5" width="368.9" height="13.3"/>
	<rect x="398.6" y="447.2" class="st4" width="132.7" height="6.1"/>
	<g>
		<path class="st7" d="M325.7,168.3l0-17l-8.3,14h-3l-8.3-13.6v16.6h-6.2V140h5.4l10.6,17.6l10.4-17.6h5.4l0.1,28.3H325.7z"/>
		<path class="st7" d="M336.5,157.4c0-6.6,5.1-11.2,12-11.2c6.9,0,11.9,4.7,11.9,11.2c0,6.6-5,11.2-11.9,11.2
			C341.5,168.6,336.5,164,336.5,157.4z M354,157.4c0-3.8-2.4-6-5.5-6c-3.2,0-5.6,2.3-5.6,6c0,3.8,2.4,6,5.6,6
			C351.6,163.5,354,161.2,354,157.4z"/>
		<path class="st7" d="M386.9,155.9v12.5h-6.3v-11.5c0-3.5-1.6-5.1-4.4-5.1c-3,0-5.2,1.9-5.2,5.9v10.8h-6.3v-21.8h6v2.5
			c1.7-1.9,4.2-2.9,7.2-2.9C383,146.2,386.9,149.2,386.9,155.9z"/>
		<path class="st7" d="M429,150.3c0,6.3-4.7,10.2-12.3,10.2H411v7.8h-6.6V140h12.3C424.3,140,429,143.9,429,150.3z M422.4,150.3
			c0-3.1-2-4.9-6-4.9H411v9.8h5.3C420.4,155.2,422.4,153.3,422.4,150.3z"/>
		<path class="st7" d="M440.2,145.3v7.5h13.1v5.3h-13.1v10.3h-6.6V140h21.4v5.3H440.2z"/>
		<path class="st7" d="M481.5,163.1v5.3h-21.9V140h21.4v5.3H466v6.2h13.2v5.1H466v6.6H481.5z"/>
	</g>
</g>
<g id="freepik--Floor--inject-7">
	<line class="st3" x1="680.3" y1="453.3" x2="44.2" y2="453.3"/>
</g>
<g id="freepik--Thesis--inject-7">
	<path class="st5" d="M324.2,231.7l0.1-3.3l-1,2.1l-0.8-1V225l-2.5-0.4l-0.2-2.3l-1.3-0.4v-2.4l-1.7-0.4v-2.6l-2.8-0.6l-0.6-1.3
		l-2.5-0.8l0,0l-73.1,16.1l-76.3-6.5c0,0-5,39.3-10.5,74.9s-30,125-30,125l-5.2,6.4l1.9,2.7l-1,0.8l2.2,0.9l1.1,1.5l-0.4,1.2
		l1.9,0.9l1.1,1.5l-0.3,1.4l2,1l0.8,1.1l-1,1.7l3.1,1.3l1.2,1.6l-0.9,1.4l3,1.5l1,1.4l-0.6,0.7h1.1l1,1.3c0,0,99.6,1,157.7-0.5
		c0,0,22.8-117.8,27.5-153s7.3-66.4,7.3-66.4L324.2,231.7z"/>
	<path class="st2" d="M156.9,217c0,0-4.1,61.2-14.5,107.4S116,429.7,116,429.7s98.4,1.4,156.5-0.2c0,0,26.7-114,31.3-149.3
		s7.3-66.4,7.3-66.4S172,219.6,156.9,217z"/>
	<line class="st3" x1="127.3" y1="439.8" x2="190.6" y2="442.6"/>
	<line class="st3" x1="174.7" y1="439.9" x2="196.5" y2="440.9"/>
	<line class="st3" x1="255.1" y1="446.2" x2="220" y2="446.4"/>
	<line class="st3" x1="282.2" y1="449.5" x2="262.4" y2="449.4"/>
	<path class="st3" d="M277.2,436c0,0,5.7,9.7,11.4,15.4"/>
	<polyline class="st3" points="285,430.4 282.3,443.5 263.7,443.7 	"/>
	<line class="st3" x1="288.8" y1="423.2" x2="284.8" y2="440.3"/>
	<line class="st3" x1="276.4" y1="439" x2="239.8" y2="439.4"/>
	<path class="st3" d="M318,229.6c0,0-4.7,50.1-7,66.3"/>
	<line class="st3" x1="321.5" y1="228.7" x2="320.1" y2="243.7"/>
	<path class="st3" d="M309.3,279.2c0,0-3.6,29.1-7,46.4"/>
	<line class="st3" x1="257.5" y1="449.5" x2="242.9" y2="449.5"/>
	<path class="st3" d="M127.1,444.5c0,0,39.3,1.9,40.5,1.9"/>
	<line class="st3" x1="147.5" y1="436.7" x2="159.8" y2="437.1"/>
	<path class="st3" d="M302.3,369.7c0,0-8.9,46.3-11.6,57.8"/>
	<path class="st5" d="M168,236.5c0-2.3-1.9-4.2-4.2-4.2c-2.3,0-4.2,1.9-4.2,4.2c0,2.3,1.9,4.2,4.2,4.2c0,0,0,0,0,0
		C166.1,240.6,168,238.8,168,236.5z"/>
	<path class="st5" d="M162.8,276.4c0-2.3-1.9-4.2-4.2-4.2s-4.2,1.9-4.2,4.2s1.9,4.2,4.2,4.2c0,0,0,0,0,0
		C160.9,280.5,162.8,278.7,162.8,276.4z"/>
	<path class="st5" d="M156.2,316.3c0-2.3-1.9-4.2-4.2-4.2c-2.3,0-4.2,1.9-4.2,4.2c0,2.3,1.9,4.2,4.2,4.2c0,0,0,0,0,0
		C154.4,320.4,156.2,318.6,156.2,316.3C156.2,316.3,156.2,316.3,156.2,316.3z"/>
	<path class="st5" d="M146.6,356.1c0-2.3-1.9-4.2-4.2-4.2s-4.2,1.9-4.2,4.2c0,2.3,1.9,4.2,4.2,4.2S146.6,358.5,146.6,356.1
		L146.6,356.1z"/>
	<circle class="st5" cx="134" cy="396" r="4.2"/>
	<path class="st8" d="M127.2,387.8c-4.7,0-8.5,3.9-8.4,8.6c0,3,1.5,5.7,4,7.3l0.9-3.2c-1.2-1.1-1.8-2.6-1.8-4.1
		c0-2.9,2.4-5.3,5.3-5.3c2.9,0,5.3,2.4,5.3,5.3c0,0,0,0,0,0c-0.1,0.9,0.6,1.6,1.4,1.7c0.9,0.1,1.6-0.6,1.7-1.4c0-0.1,0-0.2,0-0.2
		C135.6,391.7,131.9,387.9,127.2,387.8z"/>
	<path class="st8" d="M135.7,347.9c-4.8,0.1-8.5,4-8.4,8.8c0.1,3.5,2.3,6.6,5.6,7.9l0.7-3.1c-1.9-0.9-3.2-2.9-3.2-5
		c-0.1-2.9,2.1-5.4,5.1-5.5c2.9-0.1,5.4,2.1,5.5,5.1c0,0.2,0,0.3,0,0.5c0,0.9,0.7,1.5,1.6,1.5s1.6-0.7,1.6-1.5
		C144.1,351.8,140.4,348,135.7,347.9C135.7,347.9,135.7,347.9,135.7,347.9z"/>
	<path class="st8" d="M145.3,308c-4.7,0.1-8.5,3.9-8.4,8.6c0,3.6,2.2,6.8,5.5,8l0.7-3.1c-1.9-0.9-3.1-2.8-3.1-5
		c0-2.9,2.4-5.3,5.3-5.3c2.9,0,5.3,2.4,5.3,5.3c0,0,0,0,0,0c0,0.9,0.7,1.5,1.6,1.5s1.6-0.7,1.6-1.5C153.7,311.9,150,308.1,145.3,308
		z"/>
	<path class="st8" d="M151.8,268.1c-4.7,0.1-8.6,3.9-8.5,8.7c0,3.8,2.6,7.1,6.2,8.2l0.5-3.1c-2.1-0.8-3.5-2.9-3.5-5.1
		c0-2.9,2.4-5.3,5.3-5.3c2.9,0,5.3,2.4,5.3,5.3c0,0,0,0,0,0c0,0.9,0.7,1.6,1.6,1.6s1.6-0.7,1.6-1.6
		C160.3,272,156.5,268.2,151.8,268.1z"/>
	<path class="st8" d="M157,228.2c-4.7,0-8.5,3.9-8.4,8.6c0,3.6,2.3,6.9,5.7,8.1l0.4-3.2c-1.8-0.9-3-2.8-3-4.9c0-2.9,2.4-5.3,5.3-5.3
		c2.9,0,5.3,2.4,5.3,5.3c0,0,0,0,0,0c-0.1,0.9,0.6,1.6,1.4,1.7c0.9,0.1,1.6-0.6,1.7-1.4c0-0.1,0-0.2,0-0.2
		C165.4,232.1,161.7,228.3,157,228.2z"/>
	<g>
		<path class="st7" d="M211.7,291.7c0,7.8-5.7,12.6-14.8,12.6h-6.8l-1.7,8.4h-7.1l6.1-30.5h12.3
			C207.4,282.1,211.7,285.7,211.7,291.7z M204.6,292.3c0-3-2.1-4.4-5.7-4.4h-5.5l-2.1,10.6h6C201.9,298.5,204.6,296.3,204.6,292.3z"
			/>
		<path class="st7" d="M224.9,287.8l-1.6,8.1h14.2l-1.2,5.7h-14.1l-2.2,11.1h-7.1l6.1-30.5H242l-1.2,5.7H224.9z"/>
		<path class="st7" d="M252.7,287.8l-1.3,6.6h14.2l-1.1,5.5h-14.2l-1.4,7.1h16.7l-1.2,5.7h-23.6l6.1-30.5h23.1l-1.2,5.7H252.7z"/>
	</g>
</g>
</svg>
